<svg width="317" height="329" viewBox="0 0 317 329" fill="none" xmlns="http://www.w3.org/2000/svg">
<g clip-path="url(#clip0)">
<path opacity="0.18" d="M112.932 58.331C88.4582 73.0524 57.5895 76.4964 35.7601 94.8588C28.0543 101.347 21.8352 109.451 16.8247 118.151C0.539157 146.457 -2.80306 181.786 7.90452 212.608C18.6121 243.429 43.1822 269.214 73.6026 281.561C88.1518 287.464 103.751 290.373 119.338 292.405C148.076 296.144 177.119 297.011 206.032 294.994C224.309 293.716 243.607 290.835 257.669 279.186C267.043 271.42 273.148 260.464 277.869 249.293C290.635 218.92 294.582 185.612 289.264 153.131C286.012 133.486 279.288 114.257 268.212 97.6557C249.577 69.7154 220.252 51.3868 190.2 37.4419C178.403 31.9945 163.326 22.4841 150.173 27.9878C136.344 33.7841 126.108 50.4076 112.932 58.331Z" fill="#40AAFF"/>
<path opacity="0.52" d="M9.74292 293.868C7.16107 294.358 4.44871 294.926 2.49105 296.682C-1.2427 300.002 -0.476658 306.372 2.80314 310.131C6.08294 313.89 11.0764 315.641 15.8542 317.076C55.7566 328.978 98.1329 329.062 139.794 329.045C152.522 329.045 165.584 328.978 177.472 324.464C185.712 321.341 193.026 316.198 201.152 312.782C231.651 299.951 267.338 313.26 299.585 305.714C303.37 304.83 307.575 303.221 308.891 299.591C311.553 292.275 300.794 287.802 292.946 287.419C258.517 285.731 224.021 285.893 189.61 287.903C162.117 289.507 137.071 281.414 109.476 282.523C75.9947 283.855 42.6589 287.647 9.74292 293.868Z" fill="url(#paint0_linear)"/>
<path d="M166.731 287.38H157.595C154.473 287.38 151.479 286.152 149.269 283.966C147.059 281.781 145.812 278.815 145.803 275.719V11.2798C145.805 8.17884 147.048 5.20533 149.259 3.01263C151.47 0.819934 154.468 -0.412571 157.595 -0.414062H166.731C163.603 -0.414063 160.604 0.817964 158.393 3.01099C156.182 5.20401 154.939 8.17838 154.939 11.2798V275.719C154.947 278.815 156.193 281.782 158.403 283.968C160.614 286.154 163.609 287.381 166.731 287.38Z" fill="#40AAFF"/>
<path d="M166.731 287.38H157.595C154.473 287.38 151.479 286.152 149.269 283.966C147.059 281.781 145.812 278.815 145.803 275.719V11.2798C145.805 8.17884 147.048 5.20533 149.259 3.01263C151.47 0.819934 154.468 -0.412571 157.595 -0.414062H166.731C163.603 -0.414063 160.604 0.817964 158.393 3.01099C156.182 5.20401 154.939 8.17838 154.939 11.2798V275.719C154.947 278.815 156.193 281.782 158.403 283.968C160.614 286.154 163.609 287.381 166.731 287.38Z" fill="url(#paint1_linear)"/>
<path d="M80.8829 90.6268C80.8829 90.6268 54.9338 124.031 57.5781 139.023C60.2224 154.014 66.5947 169.287 66.5947 169.287L84.0038 95.5677L80.8829 90.6268Z" fill="#40AAFF"/>
<path d="M80.8829 90.6268C80.8829 90.6268 54.9338 124.031 57.5781 139.023C60.2224 154.014 66.5947 169.287 66.5947 169.287L84.0038 95.5677L80.8829 90.6268Z" fill="url(#paint2_linear)"/>
<path d="M305.209 -0.414062H166.714C160.201 -0.414062 154.922 4.82145 154.922 11.2798V275.686C154.922 282.144 160.201 287.38 166.714 287.38H305.209C311.721 287.38 317 282.144 317 275.686V11.2798C317 4.82145 311.721 -0.414062 305.209 -0.414062Z" fill="#40AAFF"/>
<path opacity="0.34" d="M237.627 32.0169H167.797C167.255 32.0169 166.717 31.9108 166.215 31.7046C165.714 31.4983 165.258 31.196 164.874 30.815C164.491 30.434 164.187 29.9817 163.979 29.484C163.772 28.9863 163.666 28.453 163.667 27.9145C163.667 26.828 164.102 25.786 164.876 25.0177C165.651 24.2494 166.702 23.8177 167.797 23.8177H237.627C238.723 23.8177 239.774 24.2492 240.55 25.0173C241.325 25.7855 241.762 26.8275 241.763 27.9145C241.763 29.0026 241.327 30.046 240.552 30.8154C239.776 31.5847 238.724 32.0169 237.627 32.0169Z" fill="white"/>
<path opacity="0.34" d="M237.627 73.8233H167.797C166.707 73.8233 165.66 73.3955 164.886 72.6333C164.113 71.8711 163.674 70.8363 163.667 69.7546C163.666 69.2162 163.772 68.6828 163.979 68.1851C164.187 67.6874 164.491 67.2351 164.874 66.8541C165.258 66.4731 165.714 66.1708 166.215 65.9646C166.717 65.7584 167.255 65.6522 167.797 65.6522H237.627C238.724 65.6522 239.776 66.0844 240.552 66.8538C241.327 67.6231 241.763 68.6666 241.763 69.7546C241.754 70.8368 241.314 71.8716 240.54 72.6337C239.765 73.3957 238.718 73.8233 237.627 73.8233Z" fill="white"/>
<path opacity="0.34" d="M237.627 115.63H167.797C166.702 115.63 165.651 115.198 164.876 114.43C164.102 113.661 163.667 112.619 163.667 111.533C163.666 110.994 163.772 110.461 163.979 109.963C164.187 109.466 164.491 109.013 164.874 108.632C165.258 108.251 165.714 107.949 166.215 107.743C166.717 107.537 167.255 107.43 167.797 107.43H237.627C238.724 107.43 239.776 107.863 240.552 108.632C241.327 109.401 241.763 110.445 241.763 111.533C241.762 112.62 241.325 113.662 240.55 114.43C239.774 115.198 238.723 115.63 237.627 115.63Z" fill="white"/>
<path opacity="0.34" d="M237.627 157.442H167.797C166.701 157.44 165.651 157.007 164.876 156.238C164.102 155.469 163.667 154.426 163.667 153.339C163.666 152.801 163.772 152.267 163.979 151.77C164.187 151.272 164.491 150.82 164.874 150.439C165.258 150.058 165.714 149.755 166.215 149.549C166.717 149.343 167.255 149.237 167.797 149.237H237.627C238.724 149.237 239.776 149.669 240.552 150.438C241.327 151.208 241.763 152.251 241.763 153.339C241.762 154.427 241.325 155.469 240.55 156.238C239.775 157.007 238.723 157.44 237.627 157.442Z" fill="white"/>
<path opacity="0.34" d="M237.627 199.248H167.797C166.701 199.247 165.651 198.814 164.876 198.044C164.102 197.275 163.667 196.233 163.667 195.146C163.666 194.607 163.772 194.074 163.979 193.576C164.187 193.078 164.491 192.626 164.874 192.245C165.258 191.864 165.714 191.562 166.215 191.356C166.717 191.149 167.255 191.043 167.797 191.043H237.627C238.724 191.043 239.776 191.475 240.552 192.245C241.327 193.014 241.763 194.058 241.763 195.146C241.762 196.233 241.325 197.276 240.55 198.045C239.775 198.814 238.723 199.247 237.627 199.248Z" fill="white"/>
<path opacity="0.34" d="M237.627 241.054H167.797C167.255 241.054 166.717 240.948 166.215 240.742C165.714 240.536 165.258 240.233 164.874 239.852C164.491 239.471 164.187 239.019 163.979 238.521C163.772 238.024 163.666 237.49 163.667 236.952C163.667 235.865 164.102 234.822 164.876 234.053C165.651 233.284 166.701 232.851 167.797 232.849H237.627C238.723 232.851 239.775 233.284 240.55 234.053C241.325 234.822 241.762 235.864 241.763 236.952C241.763 238.04 241.327 239.083 240.552 239.853C239.776 240.622 238.724 241.054 237.627 241.054Z" fill="white"/>
<path d="M68.7907 178.668C73.699 169.31 97.5996 189.473 100.618 199.49C103.637 209.507 84.0037 244.69 73.8125 255.551C63.6213 266.412 44.7313 276.13 32.6618 279.501C32.6618 279.501 28.406 273.874 29.2572 271.561C30.1084 269.248 55.1211 251.167 57.3852 240.244C59.6493 229.321 63.8823 188.032 68.7907 178.668Z" fill="#302F47"/>
<path d="M184.134 91.5497C184.134 91.5497 181.115 82.8553 181.62 81.8986C182.125 80.942 185.059 78.736 186.443 80.0247C187.828 81.3134 190.637 89.3044 190.637 89.3044L220.115 79.3213C220.115 79.3213 223.406 78.8148 223.06 82.3826C222.714 85.9504 190.994 98.4546 190.994 98.4546C190.994 98.4546 188.412 101.077 184.134 91.5497Z" fill="#40AAFF"/>
<path d="M184.134 91.5497C184.134 91.5497 181.115 82.8553 181.62 81.8986C182.125 80.942 185.059 78.736 186.443 80.0247C187.828 81.3134 190.637 89.3044 190.637 89.3044L220.115 79.3213C220.115 79.3213 223.406 78.8148 223.06 82.3826C222.714 85.9504 190.994 98.4546 190.994 98.4546C190.994 98.4546 188.412 101.077 184.134 91.5497Z" fill="url(#paint3_linear)"/>
<path d="M113.562 42.2195C113.562 42.2195 122.76 58.1452 120.938 67.7963C119.117 77.4474 113.913 75.2808 112.069 80.2724C110.913 83.5454 110.17 86.9477 109.856 90.4018C109.856 90.4018 104.517 94.7011 94.9553 83.0017C95.8066 78.239 95.2915 73.335 93.4686 68.8486C90.4215 61.6399 92.0671 35.6185 113.562 42.2195Z" fill="url(#paint4_linear)"/>
<path d="M85.2124 34.0034C71.1286 47.3292 65.352 39.2482 58.3158 42.9342C51.2795 46.6201 48.5729 47.937 51.1263 61.8199C53.6798 75.7028 41.094 72.7034 38.0752 81.1052C29.4445 105.118 43.7496 109.31 59.7174 108.646C75.6851 107.982 74.1814 79.0793 85.9501 77.9594C97.7188 76.8396 100.136 78.5841 104.897 63.5925C107.7 54.7743 105.703 50.9251 109.51 47.9313C114.373 44.1103 116.07 35.8323 110.991 32.3039C105.402 28.421 94.1723 25.5285 85.2124 34.0034Z" fill="#3F3D56"/>
<path d="M84.2138 88.4265C84.2138 88.4265 83.0392 83.1029 86.8977 81.274C90.7563 79.4451 101.816 78.5616 103.353 81.274C104.891 83.9864 106.577 90.1316 108.222 90.2779C109.868 90.4242 116.626 101.083 116.626 101.083C116.626 101.083 118.039 130.694 118.118 142.191C118.249 160.458 107.212 188.972 91.9763 186.648C76.7406 184.324 65.6244 180.126 65.8741 172.292C66.1238 164.459 78.9933 105.444 78.0741 98.7979C77.0754 91.6285 83.9527 88.1789 84.2138 88.4265Z" fill="#40AAFF"/>
<path d="M84.2138 88.4265C84.2138 88.4265 83.0392 83.1029 86.8977 81.274C90.7563 79.4451 101.816 78.5616 103.353 81.274C104.891 83.9864 106.577 90.1316 108.222 90.2779C109.868 90.4242 116.626 101.083 116.626 101.083C116.626 101.083 118.039 130.694 118.118 142.191C118.249 160.458 107.212 188.972 91.9763 186.648C76.7406 184.324 65.6244 180.126 65.8741 172.292C66.1238 164.459 78.9933 105.444 78.0741 98.7979C77.0754 91.6285 83.9527 88.1789 84.2138 88.4265Z" fill="url(#paint5_linear)"/>
<path d="M97.8947 97.6612C97.8947 97.6612 103.762 86.1812 112.081 93.1592C120.399 100.137 130.608 125.939 137.712 126.085C144.816 126.232 174.028 102.889 176.576 104.999C179.124 107.11 183.55 112.377 181.166 116.873C178.783 121.37 146.121 149.732 132.055 147.076C117.988 144.42 88.0042 125.371 97.8947 97.6612Z" fill="#40AAFF"/>
<path d="M97.8947 97.6612C97.8947 97.6612 103.762 86.1812 112.081 93.1592C120.399 100.137 130.608 125.939 137.712 126.085C144.816 126.232 174.028 102.889 176.576 104.999C179.124 107.11 183.55 112.377 181.166 116.873C178.783 121.37 146.121 149.732 132.055 147.076C117.988 144.42 88.0042 125.371 97.8947 97.6612Z" fill="url(#paint6_linear)"/>
<path d="M177.512 105.844C177.512 105.844 183.447 94.8812 183.935 92.9004C184.423 90.9195 185.904 93.8964 185.904 93.8964C185.904 93.8964 191.011 89.9009 191.863 88.1564C192.714 86.4119 200.107 83.7107 203.444 84.144C206.781 84.5773 201.174 86.6089 201.174 86.6089C201.174 86.6089 198.53 87.8075 197.145 94.3916C195.761 100.976 194.359 106.609 188.231 109.372C182.103 112.135 181.711 112.748 181.711 112.748C181.711 112.748 180.264 106.952 177.512 105.844Z" fill="url(#paint7_linear)"/>
<path d="M68.7908 178.668C68.7908 178.668 61.4821 195.258 75.0723 210.745C88.6625 226.232 98.797 238.319 95.9314 262.287C93.0658 286.254 99.9375 298.606 99.9375 298.606H107.95C107.95 298.606 120.382 254.206 118.237 235.404C116.093 216.603 106.735 178.725 106.735 178.725C106.735 178.725 88.4242 170.058 68.7908 178.668Z" fill="#3F3D56"/>
<path d="M99.9375 298.595V308.724H122.011C122.011 308.724 108.795 306.355 108.421 303.66C108.046 300.964 107.95 298.595 107.95 298.595H99.9375Z" fill="url(#paint8_linear)"/>
<path d="M101.572 305.613C100.573 305.41 99.3303 305.162 98.7004 305.956C98.4932 306.252 98.3608 306.594 98.3145 306.952C98.1179 307.935 98.0455 308.939 98.0989 309.94C98.1386 310.688 98.3145 311.533 98.9671 311.904C99.3771 312.089 99.83 312.161 100.278 312.112L123.168 311.696C124.042 311.696 125.052 311.6 125.546 310.885C125.77 310.534 125.87 310.118 125.83 309.704C125.767 309.141 125.582 308.598 125.288 308.113C124.994 307.627 124.598 307.21 124.127 306.89C123.178 306.248 122.124 305.774 121.012 305.489C118.175 304.633 113.635 303.035 110.832 304.2C107.774 305.455 104.948 306.316 101.572 305.613Z" fill="#3F3D56"/>
<path d="M29.0358 273.08L19.9568 277.678L31.0105 296.625C31.0105 296.625 26.471 284.093 28.6159 282.427C30.7608 280.762 32.7923 279.495 32.7923 279.495L29.0358 273.08Z" fill="url(#paint9_linear)"/>
<path d="M23.4522 277.537C23.1344 276.575 22.7258 275.387 21.7158 275.241C21.3558 275.208 20.9932 275.264 20.6604 275.404C19.7019 275.732 18.7873 276.174 17.9367 276.721C17.3068 277.126 16.6599 277.7 16.6599 278.449C16.7036 278.892 16.8662 279.316 17.1309 279.675C21.0727 286.158 25.0145 292.641 28.9563 299.124C29.4103 299.861 29.9891 300.688 30.8572 300.756C31.2767 300.77 31.6894 300.648 32.0318 300.407C32.4974 300.072 32.8842 299.641 33.1653 299.144C33.4465 298.646 33.6154 298.094 33.6604 297.526C33.7452 296.39 33.632 295.247 33.3256 294.149C32.6617 291.296 31.7652 286.575 29.3535 284.763C26.6979 282.776 24.5303 280.784 23.4522 277.537Z" fill="#3F3D56"/>
<path opacity="0.34" d="M286.029 13.1425H262.384C260.601 13.1425 259.155 14.5761 259.155 16.3445V36.0518C259.155 37.8202 260.601 39.2538 262.384 39.2538H286.029C287.812 39.2538 289.258 37.8202 289.258 36.0518V16.3445C289.258 14.5761 287.812 13.1425 286.029 13.1425Z" fill="white"/>
<path opacity="0.34" d="M286.029 58.5222H262.384C260.601 58.5222 259.155 59.9558 259.155 61.7242V81.4316C259.155 83.2 260.601 84.6336 262.384 84.6336H286.029C287.812 84.6336 289.258 83.2 289.258 81.4316V61.7242C289.258 59.9558 287.812 58.5222 286.029 58.5222Z" fill="white"/>
<path opacity="0.34" d="M286.029 99.6984H262.384C260.601 99.6984 259.155 101.132 259.155 102.9V122.608C259.155 124.376 260.601 125.81 262.384 125.81H286.029C287.812 125.81 289.258 124.376 289.258 122.608V102.9C289.258 101.132 287.812 99.6984 286.029 99.6984Z" fill="white"/>
<path opacity="0.34" d="M286.029 181.167H262.384C260.601 181.167 259.155 182.601 259.155 184.369V204.076C259.155 205.845 260.601 207.278 262.384 207.278H286.029C287.812 207.278 289.258 205.845 289.258 204.076V184.369C289.258 182.601 287.812 181.167 286.029 181.167Z" fill="white"/>
<path opacity="0.34" d="M286.029 140.278H262.384C260.601 140.278 259.155 141.711 259.155 143.48V163.187C259.155 164.956 260.601 166.389 262.384 166.389H286.029C287.812 166.389 289.258 164.956 289.258 163.187V143.48C289.258 141.711 287.812 140.278 286.029 140.278Z" fill="white"/>
<path opacity="0.34" d="M286.029 223.896H262.384C260.601 223.896 259.155 225.33 259.155 227.098V246.806C259.155 248.574 260.601 250.008 262.384 250.008H286.029C287.812 250.008 289.258 248.574 289.258 246.806V227.098C289.258 225.33 287.812 223.896 286.029 223.896Z" fill="white"/>
<path d="M261.266 22.3884L266.68 31.3924C268.382 34.2061 271.31 34.7688 273.432 32.7542L291.755 15.2641C291.755 15.2641 293.457 12.8499 291.647 10.9816C289.837 9.11328 288.339 11.263 288.339 11.263L272.11 26.7272C271.083 27.6557 269.681 27.3518 268.887 26.0181L264.574 18.7756C263.763 17.4194 262.259 17.2956 261.368 18.5449C261.003 19.1167 260.8 19.7759 260.782 20.4527C260.764 21.1294 260.932 21.7984 261.266 22.3884Z" fill="#40AAFF"/>
<path d="M261.266 66.9409L266.68 75.9449C268.382 78.7304 271.31 79.3213 273.432 77.3067L291.755 59.8166C291.755 59.8166 293.457 57.4024 291.647 55.5341C289.837 53.6658 288.339 55.8155 288.339 55.8155L272.11 71.2797C271.083 72.2082 269.681 71.9043 268.887 70.5706L264.574 63.3281C263.757 61.9606 262.259 61.8368 261.368 63.0636C260.996 63.6392 260.79 64.3047 260.772 64.9882C260.754 65.6716 260.925 66.3469 261.266 66.9409Z" fill="#40AAFF"/>
<path d="M261.266 151.831L266.68 160.835C268.382 163.621 271.31 164.211 273.432 162.197L291.755 144.701C291.755 144.701 293.457 142.287 291.647 140.419C289.837 138.55 288.339 140.7 288.339 140.7L272.11 156.17C271.083 157.098 269.681 156.789 268.887 155.461L264.574 148.218C263.757 146.851 262.259 146.727 261.368 147.954C260.996 148.529 260.79 149.195 260.772 149.878C260.754 150.562 260.925 151.237 261.266 151.831Z" fill="#40AAFF"/>
<path d="M261.266 193.024L266.68 202.028C268.382 204.814 271.31 205.404 273.432 203.39L291.755 185.9C291.755 185.9 293.457 183.48 291.647 181.612C289.837 179.743 288.339 181.893 288.339 181.893L272.11 197.363C271.083 198.291 269.681 197.982 268.887 196.654L264.574 189.411C263.757 188.044 262.259 187.92 261.368 189.147C260.996 189.722 260.79 190.388 260.772 191.071C260.754 191.755 260.925 192.43 261.266 193.024Z" fill="#40AAFF"/>
<path d="M261.266 233.148L266.68 242.152C268.382 244.965 271.31 245.528 273.432 243.519L291.755 226.023C291.755 226.023 293.457 223.609 291.647 221.741C289.837 219.873 288.339 222.022 288.339 222.022L272.11 237.487C271.083 238.421 269.681 238.111 268.887 236.777L264.574 229.574C263.757 228.207 262.259 228.083 261.368 229.31C261.004 229.881 260.802 230.539 260.784 231.215C260.766 231.89 260.933 232.558 261.266 233.148Z" fill="#40AAFF"/>
<path d="M261.266 22.3884L266.68 31.3924C268.382 34.2061 271.31 34.7688 273.432 32.7542L291.755 15.2641C291.755 15.2641 293.457 12.8499 291.647 10.9816C289.837 9.11328 288.339 11.263 288.339 11.263L272.11 26.7272C271.083 27.6557 269.681 27.3518 268.887 26.0181L264.574 18.7756C263.763 17.4194 262.259 17.2956 261.368 18.5449C261.003 19.1167 260.8 19.7759 260.782 20.4527C260.764 21.1294 260.932 21.7984 261.266 22.3884Z" fill="url(#paint10_linear)"/>
<path d="M261.266 66.9409L266.68 75.9449C268.382 78.7304 271.31 79.3213 273.432 77.3067L291.755 59.8166C291.755 59.8166 293.457 57.4024 291.647 55.5341C289.837 53.6658 288.339 55.8155 288.339 55.8155L272.11 71.2797C271.083 72.2082 269.681 71.9043 268.887 70.5706L264.574 63.3281C263.757 61.9606 262.259 61.8368 261.368 63.0636C260.996 63.6392 260.79 64.3047 260.772 64.9882C260.754 65.6716 260.925 66.3469 261.266 66.9409Z" fill="url(#paint11_linear)"/>
<path d="M261.266 151.831L266.68 160.835C268.382 163.621 271.31 164.211 273.432 162.197L291.755 144.701C291.755 144.701 293.457 142.287 291.647 140.419C289.837 138.55 288.339 140.7 288.339 140.7L272.11 156.17C271.083 157.098 269.681 156.789 268.887 155.461L264.574 148.218C263.757 146.851 262.259 146.727 261.368 147.954C260.996 148.529 260.79 149.195 260.772 149.878C260.754 150.562 260.925 151.237 261.266 151.831Z" fill="url(#paint12_linear)"/>
<path d="M261.266 193.024L266.68 202.028C268.382 204.814 271.31 205.404 273.432 203.39L291.755 185.9C291.755 185.9 293.457 183.48 291.647 181.612C289.837 179.743 288.339 181.893 288.339 181.893L272.11 197.363C271.083 198.291 269.681 197.982 268.887 196.654L264.574 189.411C263.757 188.044 262.259 187.92 261.368 189.147C260.996 189.722 260.79 190.388 260.772 191.071C260.754 191.755 260.925 192.43 261.266 193.024Z" fill="url(#paint13_linear)"/>
<path d="M261.266 233.148L266.68 242.152C268.382 244.965 271.31 245.528 273.432 243.519L291.755 226.023C291.755 226.023 293.457 223.609 291.647 221.741C289.837 219.873 288.339 222.022 288.339 222.022L272.11 237.487C271.083 238.421 269.681 238.111 268.887 236.777L264.574 229.574C263.757 228.207 262.259 228.083 261.368 229.31C261.004 229.881 260.802 230.539 260.784 231.215C260.766 231.89 260.933 232.558 261.266 233.148Z" fill="url(#paint14_linear)"/>
</g>
<defs>
<linearGradient id="paint0_linear" x1="156.199" y1="248.443" x2="147.398" y2="548.864" gradientUnits="userSpaceOnUse">
<stop stop-opacity="0"/>
<stop offset="0.98"/>
</linearGradient>
<linearGradient id="paint1_linear" x1="10165.3" y1="44858" x2="-5093.58" y2="45750.3" gradientUnits="userSpaceOnUse">
<stop stop-opacity="0"/>
<stop offset="0.98"/>
</linearGradient>
<linearGradient id="paint2_linear" x1="4467.47" y1="17722.4" x2="7533.58" y2="18113.8" gradientUnits="userSpaceOnUse">
<stop stop-opacity="0"/>
<stop offset="0.98"/>
</linearGradient>
<linearGradient id="paint3_linear" x1="18208.2" y1="2643.42" x2="17374.7" y2="5983.04" gradientUnits="userSpaceOnUse">
<stop stop-opacity="0"/>
<stop offset="0.98"/>
</linearGradient>
<linearGradient id="paint4_linear" x1="92.294" y1="66.1587" x2="121.177" y2="66.1587" gradientUnits="userSpaceOnUse">
<stop stop-color="#ECC4D7"/>
<stop offset="0.42" stop-color="#EFD4D1"/>
<stop offset="1" stop-color="#F2EAC9"/>
</linearGradient>
<linearGradient id="paint5_linear" x1="13615.2" y1="26360.8" x2="-10020.3" y2="24678" gradientUnits="userSpaceOnUse">
<stop stop-opacity="0"/>
<stop offset="0.98"/>
</linearGradient>
<linearGradient id="paint6_linear" x1="26769.8" y1="12050" x2="26013.1" y2="20556.3" gradientUnits="userSpaceOnUse">
<stop stop-opacity="0"/>
<stop offset="0.98"/>
</linearGradient>
<linearGradient id="paint7_linear" x1="10433.9" y1="5240.37" x2="11717.7" y2="5240.37" gradientUnits="userSpaceOnUse">
<stop stop-color="#ECC4D7"/>
<stop offset="0.42" stop-color="#EFD4D1"/>
<stop offset="1" stop-color="#F2EAC9"/>
</linearGradient>
<linearGradient id="paint8_linear" x1="5470.17" y1="5815.37" x2="6328.83" y2="5815.37" gradientUnits="userSpaceOnUse">
<stop stop-color="#ECC4D7"/>
<stop offset="0.42" stop-color="#EFD4D1"/>
<stop offset="1" stop-color="#F2EAC9"/>
</linearGradient>
<linearGradient id="paint9_linear" x1="1333.15" y1="12310.1" x2="1623.49" y2="12310.1" gradientUnits="userSpaceOnUse">
<stop stop-color="#ECC4D7"/>
<stop offset="0.42" stop-color="#EFD4D1"/>
<stop offset="1" stop-color="#F2EAC9"/>
</linearGradient>
<linearGradient id="paint10_linear" x1="18039.3" y1="-1939.07" x2="16866.9" y2="27651.4" gradientUnits="userSpaceOnUse">
<stop stop-opacity="0"/>
<stop offset="0.98"/>
</linearGradient>
<linearGradient id="paint11_linear" x1="18177.5" y1="-1888.64" x2="17006.3" y2="27691.8" gradientUnits="userSpaceOnUse">
<stop stop-opacity="0"/>
<stop offset="0.98"/>
</linearGradient>
<linearGradient id="paint12_linear" x1="18429.9" y1="-1794.01" x2="17258.1" y2="27793.1" gradientUnits="userSpaceOnUse">
<stop stop-opacity="0"/>
<stop offset="0.98"/>
</linearGradient>
<linearGradient id="paint13_linear" x1="18552.3" y1="-1748.06" x2="17380.5" y2="27839.3" gradientUnits="userSpaceOnUse">
<stop stop-opacity="0"/>
<stop offset="0.98"/>
</linearGradient>
<linearGradient id="paint14_linear" x1="18665" y1="-1703.49" x2="17492.2" y2="27888.5" gradientUnits="userSpaceOnUse">
<stop stop-opacity="0"/>
<stop offset="0.98"/>
</linearGradient>
<clipPath id="clip0">
<rect width="317" height="329" fill="white"/>
</clipPath>
</defs>
</svg>
