<svg width="316" height="346" viewBox="0 0 316 346" fill="none" xmlns="http://www.w3.org/2000/svg">
<g clip-path="url(#clip0)">
<path opacity="0.24" d="M284.035 62.2793C281.954 34.2395 260.23 8.83114 232.89 2.42513C208.202 -3.36616 182.392 5.25068 157.111 3.32025C147.3 2.56533 137.63 0.22509 127.787 -0.0229542C116.967 -0.215954 106.249 2.08203 96.4588 6.69341C86.669 11.3048 78.0701 18.1061 71.3268 26.5717C55.5866 46.6525 44.741 71.5432 42.0673 96.9192C33.8738 174.837 4.86229 194.303 1.38005 216.498C-12.0853 302.235 75.8979 342.267 145.845 345.794C209.635 349.029 294.859 308.663 305.575 294.977C321.067 275.155 316.561 225.417 309.618 201.238C304.055 181.826 295.43 162.565 293.781 142.29C292.422 125.477 294.018 115.566 287.398 98.9143C282.763 87.3209 284.94 74.4766 284.035 62.2793Z" fill="#40AAFF"/>
<path opacity="0.44" d="M92.2525 269.505L37.9489 284.927L15.9019 207.279L17.1093 205.467L57.4947 195.459L66.3243 198.381L72.9977 201.692L93.4599 267.693L92.2525 269.505Z" fill="#40AAFF"/>
<path d="M290.039 129.263C290.044 134.811 288.955 140.304 286.834 145.43C284.714 150.556 281.605 155.213 277.684 159.136C273.762 163.058 269.107 166.169 263.983 168.29C258.858 170.41 253.367 171.5 247.821 171.496H89.9561C78.8566 171.625 68.1528 167.376 60.163 159.668C52.1731 151.96 47.5404 141.413 47.2682 130.312C46.996 119.212 51.1062 108.451 58.7086 100.36C66.3111 92.2692 76.7937 87.5 87.8861 87.0851C89.5397 77.6692 94.454 69.1359 101.767 62.9816C109.081 56.8272 118.326 53.4446 127.883 53.4266H133.274C142.715 53.432 151.861 56.718 159.148 62.7229C163.286 52.0981 171.01 43.2564 180.981 37.7303C190.952 32.2042 202.541 30.3419 213.74 32.4663C224.94 34.5906 235.043 40.5677 242.3 49.3616C249.556 58.1554 253.508 69.2118 253.471 80.6144C253.492 82.892 253.301 85.1667 252.899 87.4087C263.134 88.6374 272.565 93.5744 279.408 101.286C286.252 108.999 290.034 118.951 290.039 129.263Z" fill="#40AAFF"/>
<path d="M290.039 129.263C290.044 134.811 288.955 140.304 286.834 145.43C284.714 150.556 281.605 155.213 277.684 159.136C273.762 163.058 269.107 166.169 263.983 168.29C258.858 170.41 253.367 171.5 247.821 171.496H89.9561C78.8566 171.625 68.1528 167.376 60.163 159.668C52.1731 151.96 47.5404 141.413 47.2682 130.312C46.996 119.212 51.1062 108.451 58.7086 100.36C66.3111 92.2692 76.7937 87.5 87.8861 87.0851C89.5397 77.6692 94.454 69.1359 101.767 62.9816C109.081 56.8272 118.326 53.4446 127.883 53.4266H133.274C142.715 53.432 151.861 56.718 159.148 62.7229C163.286 52.0981 171.01 43.2564 180.981 37.7303C190.952 32.2042 202.541 30.3419 213.74 32.4663C224.94 34.5906 235.043 40.5677 242.3 49.3616C249.556 58.1554 253.508 69.2118 253.471 80.6144C253.492 82.892 253.301 85.1667 252.899 87.4087C263.134 88.6374 272.565 93.5744 279.408 101.286C286.252 108.999 290.034 118.951 290.039 129.263Z" fill="url(#paint0_linear)"/>
<path d="M289.436 117.109C289.433 122.464 288.345 127.762 286.236 132.684C284.127 137.605 281.042 142.048 277.167 145.742C269.195 153.391 258.566 157.645 247.519 157.605H90.7754C67.5749 157.605 48.7837 139.53 48.7837 117.131C48.7896 111.775 49.8798 106.476 51.9883 101.553C54.0969 96.6303 57.1802 92.1856 61.0524 88.487C68.5251 81.3115 78.3661 77.1221 88.7163 76.7103C90.1563 68.7566 94.082 61.4651 99.9285 55.8854C107.592 48.5192 117.816 44.4202 128.444 44.4538H133.834C143.152 44.4435 152.2 47.5784 159.515 53.3511C166.522 35.9556 184.02 23.6289 204.611 23.6289C231.424 23.6289 253.126 44.5832 253.126 70.4769C253.145 72.6472 252.954 74.8143 252.554 76.9476C273.34 79.3741 289.436 96.4244 289.436 117.109Z" fill="white"/>
<path d="M89.6759 225.634H62.896C62.0382 225.634 61.2156 225.293 60.609 224.686C60.0025 224.079 59.6617 223.256 59.6617 222.398C59.6617 221.54 60.0025 220.717 60.609 220.111C61.2156 219.504 62.0382 219.163 62.896 219.163H89.6759C91.6602 219.163 93.5633 218.375 94.9664 216.971C96.3696 215.567 97.1578 213.664 97.1578 211.679V165.564C97.1578 164.706 97.4986 163.883 98.1051 163.276C98.7117 162.669 99.5343 162.329 100.392 162.329C101.25 162.329 102.073 162.669 102.679 163.276C103.286 163.883 103.626 164.706 103.626 165.564V211.711C103.621 215.407 102.148 218.95 99.5321 221.561C96.9162 224.172 93.3711 225.637 89.6759 225.634Z" fill="#40AAFF"/>
<path d="M249.525 225.634H222.745C219.053 225.631 215.514 224.164 212.903 221.553C210.291 218.943 208.822 215.404 208.816 211.711V165.564C208.816 164.706 209.157 163.883 209.763 163.276C210.37 162.669 211.192 162.329 212.05 162.329C212.908 162.329 213.731 162.669 214.337 163.276C214.944 163.883 215.284 164.706 215.284 165.564V211.711C215.284 213.696 216.073 215.6 217.476 217.003C218.879 218.407 220.782 219.195 222.766 219.195H249.546C250.404 219.195 251.227 219.536 251.833 220.143C252.44 220.75 252.781 221.573 252.781 222.431C252.781 223.289 252.44 224.112 251.833 224.719C251.227 225.325 250.404 225.666 249.546 225.666L249.525 225.634Z" fill="#40AAFF"/>
<path d="M160.442 285.316C159.584 285.316 158.761 284.975 158.155 284.368C157.548 283.761 157.208 282.938 157.208 282.08V169.188C157.208 168.33 157.548 167.507 158.155 166.9C158.761 166.293 159.584 165.952 160.442 165.952C161.3 165.952 162.122 166.293 162.729 166.9C163.335 167.507 163.676 168.33 163.676 169.188V282.091C163.673 282.947 163.331 283.767 162.725 284.372C162.119 284.976 161.298 285.316 160.442 285.316Z" fill="#40AAFF"/>
<path d="M159.504 53.3511L170.522 64.7503C170.522 64.7503 177.368 23.6182 220.502 26.4437C220.502 26.4437 179.923 12.1111 159.504 53.3511Z" fill="url(#paint1_linear)"/>
<path d="M88.7163 76.7105C88.7163 76.7105 96.554 75.8369 104.014 84.9175C104.014 84.9175 105.621 48.2501 136.756 47.6138C136.756 47.6138 124.002 39.4607 106.225 50.9355C90.3011 61.2023 88.7163 76.7105 88.7163 76.7105Z" fill="url(#paint2_linear)"/>
<path d="M93.46 267.694L39.1564 283.115L17.1094 205.467L58.7022 193.647L67.5318 196.559L74.2052 199.88L93.46 267.694Z" fill="white"/>
<path opacity="0.44" d="M58.5297 193.647L67.9091 205.51L74.3776 199.665C74.3776 199.665 65.7852 195.232 58.5297 193.647Z" fill="#40AAFF"/>
<path opacity="0.1" d="M67.9092 205.478C67.9092 205.478 71.6825 204.043 72.9654 205.176C74.2484 206.308 90.6569 268.535 90.6569 268.535L93.46 267.683L74.3346 199.632L67.9092 205.478Z" fill="#40AAFF"/>
<path opacity="0.44" d="M30.0033 220.037L67.2299 210.169L67.9846 212.542L30.8011 222.571L30.0033 220.037Z" fill="#40AAFF"/>
<path opacity="0.44" d="M32.4183 228.352L69.6449 218.484L70.3996 220.856L33.2161 230.886L32.4183 228.352Z" fill="#40AAFF"/>
<path opacity="0.44" d="M34.844 236.677L72.0598 226.809L72.8252 229.171L35.631 239.201L34.844 236.677Z" fill="#40AAFF"/>
<path opacity="0.44" d="M37.2589 244.992L74.4855 235.124L75.2402 237.486L38.0567 247.516L37.2589 244.992Z" fill="#40AAFF"/>
<path d="M129.36 268.901L189.971 277.928L179.74 333.716L118.364 323.04L129.36 268.901Z" fill="#40AAFF"/>
<path d="M128.811 267.802L189.421 276.828L179.19 332.616L117.814 321.94L128.811 267.802Z" fill="white"/>
<path opacity="0.44" d="M129.36 268.901L188.321 278.09L178.177 331.236L118.86 320.84L129.36 268.901Z" fill="#40AAFF"/>
<path d="M133.543 274.294L127.603 307.305L154.663 295.097L163.568 307.64L157.305 313.247L171.277 304.221L177.54 312.363L183.815 282.878L133.543 274.294Z" fill="white"/>
<path d="M259.292 259.939L240.544 233.949L263.184 198.888L285.953 229.559C285.953 229.559 291.775 240.711 286.223 245.822C280.671 250.934 274.957 244.42 275.313 242.026C275.668 239.632 283.064 230.163 283.064 230.163L269.761 212.541L250.085 241.466L264.596 262.776C267.831 268.61 266.03 276.289 260.112 279.384C259.006 280.02 257.768 280.388 256.495 280.459C255.222 280.53 253.95 280.302 252.781 279.794C245.773 276.753 259.292 259.939 259.292 259.939Z" fill="white"/>
<path opacity="0.44" d="M260.198 259.638L241.45 233.647L264.09 198.586L286.859 229.258C286.859 229.258 292.681 240.409 287.129 245.521C281.577 250.633 275.863 244.119 276.218 241.725C276.574 239.33 283.97 229.862 283.97 229.862L270.699 212.25L251.023 241.175L265.545 262.485C268.78 268.319 266.968 275.998 261.05 279.093C259.944 279.729 258.706 280.097 257.433 280.168C256.16 280.239 254.888 280.011 253.719 279.503C246.689 276.451 260.198 259.638 260.198 259.638Z" fill="#40AAFF"/>
<path opacity="0.44" d="M261.502 259.444L242.765 233.442L265.405 198.392L288.174 229.053C288.174 229.053 293.985 240.204 288.444 245.327C282.903 250.449 277.178 243.925 277.534 241.52C277.889 239.115 285.285 229.657 285.285 229.657L271.982 212.035L252.295 240.959L266.817 262.269C270.052 268.114 268.251 275.782 262.322 278.877C261.219 279.515 259.982 279.885 258.711 279.956C257.439 280.027 256.168 279.798 255.002 279.287C247.994 276.246 261.502 259.444 261.502 259.444Z" fill="#40AAFF"/>
<path d="M160.647 224.739C166.214 224.739 170.727 220.224 170.727 214.655C170.727 209.086 166.214 204.572 160.647 204.572C155.08 204.572 150.567 209.086 150.567 214.655C150.567 220.224 155.08 224.739 160.647 224.739Z" fill="white"/>
<path d="M160.647 227.953C158.015 227.955 155.441 227.176 153.252 225.714C151.062 224.253 149.355 222.175 148.347 219.742C147.339 217.31 147.074 214.633 147.587 212.051C148.1 209.468 149.368 207.096 151.229 205.234C153.09 203.372 155.462 202.105 158.043 201.592C160.625 201.078 163.301 201.343 165.732 202.352C168.163 203.36 170.241 205.068 171.702 207.258C173.163 209.448 173.942 212.022 173.94 214.655C173.934 218.18 172.532 221.559 170.04 224.052C167.548 226.544 164.17 227.947 160.647 227.953ZM160.647 207.796C159.291 207.796 157.965 208.199 156.837 208.952C155.71 209.706 154.831 210.777 154.312 212.031C153.793 213.284 153.657 214.663 153.922 215.993C154.186 217.324 154.839 218.546 155.798 219.505C156.757 220.465 157.979 221.118 159.309 221.383C160.639 221.647 162.018 221.511 163.271 220.992C164.524 220.473 165.594 219.594 166.348 218.466C167.101 217.338 167.503 216.012 167.503 214.655C167.503 212.836 166.781 211.092 165.495 209.805C164.209 208.519 162.465 207.796 160.647 207.796Z" fill="#40AAFF"/>
<path d="M212.643 208.616C218.21 208.616 222.723 204.101 222.723 198.532C222.723 192.963 218.21 188.449 212.643 188.449C207.076 188.449 202.563 192.963 202.563 198.532C202.563 204.101 207.076 208.616 212.643 208.616Z" fill="white"/>
<path d="M212.643 211.83C210.012 211.83 207.44 211.049 205.252 209.587C203.064 208.124 201.359 206.046 200.352 203.614C199.345 201.183 199.082 198.507 199.595 195.925C200.108 193.344 201.375 190.972 203.236 189.111C205.097 187.25 207.467 185.983 210.048 185.469C212.628 184.956 215.303 185.219 217.734 186.226C220.165 187.234 222.243 188.939 223.705 191.128C225.167 193.316 225.947 195.889 225.947 198.521C225.944 202.05 224.541 205.433 222.047 207.929C219.553 210.424 216.171 211.827 212.643 211.83ZM212.643 191.663C211.287 191.663 209.961 192.065 208.834 192.818C207.706 193.572 206.827 194.643 206.308 195.897C205.789 197.15 205.654 198.529 205.918 199.86C206.183 201.19 206.836 202.412 207.795 203.371C208.754 204.331 209.975 204.984 211.305 205.249C212.636 205.513 214.014 205.377 215.267 204.858C216.52 204.339 217.591 203.46 218.344 202.332C219.098 201.204 219.5 199.878 219.5 198.521C219.488 196.709 218.761 194.974 217.477 193.696C216.193 192.417 214.455 191.698 212.643 191.695V191.663Z" fill="#40AAFF"/>
<path d="M100.586 208.616C106.153 208.616 110.666 204.101 110.666 198.532C110.666 192.963 106.153 188.449 100.586 188.449C95.019 188.449 90.506 192.963 90.506 198.532C90.506 204.101 95.019 208.616 100.586 208.616Z" fill="white"/>
<path d="M100.586 211.83C97.9545 211.832 95.3813 211.053 93.1921 209.592C91.0029 208.131 89.2961 206.053 88.2875 203.622C87.2789 201.19 87.0139 198.514 87.5261 195.932C88.0382 193.35 89.3044 190.977 91.1645 189.115C93.0246 187.253 95.3951 185.984 97.976 185.47C100.557 184.956 103.232 185.218 105.664 186.225C108.096 187.232 110.174 188.938 111.636 191.127C113.099 193.316 113.879 195.889 113.879 198.521C113.873 202.047 112.471 205.427 109.98 207.922C107.489 210.416 104.111 211.821 100.586 211.83ZM100.586 191.663C99.2301 191.663 97.9044 192.065 96.7768 192.818C95.6492 193.572 94.7704 194.643 94.2515 195.897C93.7325 197.15 93.5967 198.529 93.8613 199.86C94.1258 201.19 94.7789 202.412 95.7378 203.371C96.6967 204.331 97.9185 204.984 99.2485 205.249C100.579 205.513 101.957 205.377 103.21 204.858C104.463 204.339 105.534 203.46 106.287 202.332C107.041 201.204 107.443 199.878 107.443 198.521C107.431 196.709 106.704 194.974 105.42 193.696C104.136 192.417 102.398 191.698 100.586 191.695V191.663Z" fill="#40AAFF"/>
</g>
<defs>
<linearGradient id="paint0_linear" x1="168.333" y1="108.546" x2="180.427" y2="587.584" gradientUnits="userSpaceOnUse">
<stop stop-opacity="0"/>
<stop offset="0.95"/>
</linearGradient>
<linearGradient id="paint1_linear" x1="14822.3" y1="1557.02" x2="9283.23" y2="5928.08" gradientUnits="userSpaceOnUse">
<stop stop-opacity="0"/>
<stop offset="0.95"/>
</linearGradient>
<linearGradient id="paint2_linear" x1="8484.16" y1="2322.8" x2="4216.43" y2="5015.59" gradientUnits="userSpaceOnUse">
<stop stop-opacity="0"/>
<stop offset="0.95"/>
</linearGradient>
<clipPath id="clip0">
<rect width="316" height="346" fill="white"/>
</clipPath>
</defs>
</svg>
