<svg width="346" height="252" viewBox="0 0 346 252" fill="none" xmlns="http://www.w3.org/2000/svg">
<g clip-path="url(#clip0_1151_2408)">
<path d="M201.544 44.4246C208.029 44.4246 213.286 39.1604 213.286 32.6667C213.286 26.1729 208.029 20.9087 201.544 20.9087C195.06 20.9087 189.803 26.1729 189.803 32.6667C189.803 39.1604 195.06 44.4246 201.544 44.4246Z" fill="#F2F2F2"/>
<path d="M292.627 218.926C310.08 205.615 318.415 183.246 313.197 161.907C313.067 161.377 312.93 160.848 312.786 160.32C309.327 147.654 300.767 135.616 288.292 131.569C277.818 128.17 266.385 130.784 255.457 129.432C234.006 126.779 217.375 109.398 205.673 91.2004C193.971 73.0023 184.978 52.6321 169.428 37.5978C143.798 12.8164 101.988 7.48091 70.2103 23.6118C38.4323 39.7427 18.19 75.5305 19.0533 111.198C19.9166 146.865 41.0609 180.965 71.7677 199.057C83.0481 205.703 96.095 210.412 109.079 208.764C120.346 207.335 130.582 201.273 141.796 199.473C159.426 196.643 176.943 204.625 192.192 213.927C207.44 223.229 222.169 234.254 239.497 238.566C256.322 242.754 277.167 230.718 292.627 218.926Z" fill="#F2F2F2"/>
<path d="M267.552 24.3608C267.17 24.1054 266.783 23.8632 266.4 23.6166C255.341 16.5337 243.487 10.7796 231.084 6.47331L228.208 46.2027H209.976V0.673752C208.829 0.435957 207.672 0.211373 206.516 0V46.2027H184.849C172.922 46.2027 161.483 41.4579 153.049 33.012C144.615 24.5662 139.877 13.1112 139.877 1.16701V1.16697C138.716 1.41797 137.564 1.68659 136.411 1.97283V46.2027H118.764L116.025 8.31843C103.279 13.2136 91.178 19.651 79.9922 27.4873C79.7987 27.6195 79.6052 27.756 79.4161 27.8881C78.4443 28.5706 77.4856 29.2664 76.5314 29.971V181.539H128.54L127.621 168.79L122.564 98.795H224.404L219.347 168.79L218.428 181.539H269.861V25.8932C269.096 25.3736 268.326 24.8628 267.552 24.3608ZM136.411 87.2355H121.728L119.015 49.6727H136.411V87.2355ZM206.516 87.2355H181.855V86.4913C181.855 86.1335 181.784 85.7793 181.647 85.4488C181.511 85.1184 181.31 84.8182 181.057 84.5654C180.804 84.3126 180.504 84.1122 180.174 83.9757C179.844 83.8392 179.49 83.7693 179.133 83.7699H168.412C168.055 83.7697 167.701 83.84 167.372 83.9768C167.042 84.1135 166.742 84.3139 166.49 84.5667C166.237 84.8194 166.037 85.1194 165.901 85.4497C165.764 85.7799 165.694 86.1339 165.694 86.4913V87.2355H139.877V49.6727H206.516V87.2355ZM209.976 87.2355V49.6727H227.958L225.244 87.2355H209.976Z" fill="#3F3D56"/>
<path d="M0 191.245C3.82017 195.778 7.95213 200.037 12.3656 203.993L333.634 204.434C338.048 200.478 342.18 196.218 346 191.685L0 191.245Z" fill="#3F3D56"/>
<path d="M217.863 150.424V188.164C217.863 188.645 218.054 189.106 218.394 189.446C218.733 189.786 219.194 189.978 219.674 189.978H275.524C276.004 189.978 276.464 189.786 276.804 189.446C277.144 189.106 277.335 188.645 277.335 188.164V150.424C277.334 149.943 277.143 149.482 276.803 149.143C276.464 148.803 276.004 148.612 275.524 148.612H219.674C219.194 148.612 218.734 148.803 218.395 149.143C218.055 149.482 217.864 149.943 217.863 150.424V150.424Z" fill="#3F3D56"/>
<path d="M219.173 150.893V187.699C219.173 187.956 219.276 188.202 219.457 188.384C219.638 188.565 219.884 188.668 220.141 188.668H275.059C275.315 188.668 275.561 188.565 275.743 188.384C275.924 188.202 276.026 187.956 276.027 187.699V150.893C276.027 150.636 275.925 150.389 275.743 150.207C275.562 150.025 275.316 149.922 275.059 149.922H220.141C219.884 149.922 219.638 150.025 219.456 150.207C219.275 150.389 219.173 150.636 219.173 150.893V150.893Z" fill="#6C63FF"/>
<path d="M216.695 195.525C216.797 195.653 216.927 195.757 217.075 195.828C217.223 195.899 217.385 195.935 217.549 195.934H277.351C277.515 195.934 277.676 195.897 277.824 195.827C277.971 195.756 278.101 195.654 278.204 195.526C278.307 195.399 278.381 195.251 278.419 195.091C278.458 194.932 278.46 194.766 278.427 194.606L277.498 190.191C277.46 190.01 277.377 189.843 277.257 189.703C277.138 189.563 276.985 189.456 276.813 189.39C276.689 189.341 276.556 189.316 276.423 189.316H218.474C218.34 189.316 218.208 189.341 218.083 189.39C217.912 189.456 217.759 189.563 217.639 189.703C217.52 189.843 217.437 190.01 217.398 190.191L216.47 194.606C216.437 194.766 216.44 194.932 216.479 195.091C216.518 195.25 216.591 195.398 216.695 195.525V195.525Z" fill="#2F2E41"/>
<path d="M274.371 191.218H275.783C275.902 191.218 275.998 191.122 275.998 191.003V190.326C275.998 190.208 275.902 190.112 275.783 190.112H274.371C274.252 190.112 274.156 190.208 274.156 190.326V191.003C274.156 191.122 274.252 191.218 274.371 191.218Z" fill="#3F3D56"/>
<path d="M270.687 191.218H272.1C272.218 191.218 272.314 191.122 272.314 191.003V190.326C272.314 190.208 272.218 190.112 272.1 190.112H270.687C270.569 190.112 270.472 190.208 270.472 190.326V191.003C270.472 191.122 270.569 191.218 270.687 191.218Z" fill="#3F3D56"/>
<path d="M267.003 191.218H268.416C268.535 191.218 268.631 191.122 268.631 191.003V190.326C268.631 190.208 268.535 190.112 268.416 190.112H267.003C266.885 190.112 266.789 190.208 266.789 190.326V191.003C266.789 191.122 266.885 191.218 267.003 191.218Z" fill="#3F3D56"/>
<path d="M263.32 191.218H264.732C264.851 191.218 264.947 191.122 264.947 191.003V190.326C264.947 190.208 264.851 190.112 264.732 190.112H263.32C263.201 190.112 263.105 190.208 263.105 190.326V191.003C263.105 191.122 263.201 191.218 263.32 191.218Z" fill="#3F3D56"/>
<path d="M259.636 191.218H261.048C261.167 191.218 261.263 191.122 261.263 191.003V190.326C261.263 190.208 261.167 190.112 261.048 190.112H259.636C259.517 190.112 259.421 190.208 259.421 190.326V191.003C259.421 191.122 259.517 191.218 259.636 191.218Z" fill="#3F3D56"/>
<path d="M255.952 191.218H257.365C257.483 191.218 257.579 191.122 257.579 191.003V190.326C257.579 190.208 257.483 190.112 257.365 190.112H255.952C255.834 190.112 255.737 190.208 255.737 190.326V191.003C255.737 191.122 255.834 191.218 255.952 191.218Z" fill="#3F3D56"/>
<path d="M252.268 191.218H253.681C253.8 191.218 253.896 191.122 253.896 191.003V190.326C253.896 190.208 253.8 190.112 253.681 190.112H252.268C252.15 190.112 252.054 190.208 252.054 190.326V191.003C252.054 191.122 252.15 191.218 252.268 191.218Z" fill="#3F3D56"/>
<path d="M248.585 191.218H249.997C250.116 191.218 250.212 191.122 250.212 191.003V190.326C250.212 190.208 250.116 190.112 249.997 190.112H248.585C248.466 190.112 248.37 190.208 248.37 190.326V191.003C248.37 191.122 248.466 191.218 248.585 191.218Z" fill="#3F3D56"/>
<path d="M244.901 191.218H246.314C246.432 191.218 246.528 191.122 246.528 191.003V190.326C246.528 190.208 246.432 190.112 246.314 190.112H244.901C244.782 190.112 244.686 190.208 244.686 190.326V191.003C244.686 191.122 244.782 191.218 244.901 191.218Z" fill="#3F3D56"/>
<path d="M241.217 191.218H242.63C242.748 191.218 242.844 191.122 242.844 191.003V190.326C242.844 190.208 242.748 190.112 242.63 190.112H241.217C241.099 190.112 241.003 190.208 241.003 190.326V191.003C241.003 191.122 241.099 191.218 241.217 191.218Z" fill="#3F3D56"/>
<path d="M237.533 191.218H238.946C239.065 191.218 239.161 191.122 239.161 191.003V190.326C239.161 190.208 239.065 190.112 238.946 190.112H237.533C237.415 190.112 237.319 190.208 237.319 190.326V191.003C237.319 191.122 237.415 191.218 237.533 191.218Z" fill="#3F3D56"/>
<path d="M233.85 191.218H235.262C235.381 191.218 235.477 191.122 235.477 191.003V190.326C235.477 190.208 235.381 190.112 235.262 190.112H233.85C233.731 190.112 233.635 190.208 233.635 190.326V191.003C233.635 191.122 233.731 191.218 233.85 191.218Z" fill="#3F3D56"/>
<path d="M230.166 191.218H231.579C231.697 191.218 231.793 191.122 231.793 191.003V190.326C231.793 190.208 231.697 190.112 231.579 190.112H230.166C230.047 190.112 229.951 190.208 229.951 190.326V191.003C229.951 191.122 230.047 191.218 230.166 191.218Z" fill="#3F3D56"/>
<path d="M226.482 191.218H227.895C228.013 191.218 228.109 191.122 228.109 191.003V190.326C228.109 190.208 228.013 190.112 227.895 190.112H226.482C226.364 190.112 226.268 190.208 226.268 190.326V191.003C226.268 191.122 226.364 191.218 226.482 191.218Z" fill="#3F3D56"/>
<path d="M222.799 191.218H224.211C224.33 191.218 224.426 191.122 224.426 191.003V190.326C224.426 190.208 224.33 190.112 224.211 190.112H222.799C222.68 190.112 222.584 190.208 222.584 190.326V191.003C222.584 191.122 222.68 191.218 222.799 191.218Z" fill="#3F3D56"/>
<path d="M219.115 191.218H220.527C220.646 191.218 220.742 191.122 220.742 191.003V190.326C220.742 190.208 220.646 190.112 220.527 190.112H219.115C218.996 190.112 218.9 190.208 218.9 190.326V191.003C218.9 191.122 218.996 191.218 219.115 191.218Z" fill="#3F3D56"/>
<path d="M274.414 193.063H275.827C275.945 193.063 276.042 192.966 276.042 192.848V192.171C276.042 192.052 275.945 191.956 275.827 191.956H274.414C274.296 191.956 274.2 192.052 274.2 192.171V192.848C274.2 192.966 274.296 193.063 274.414 193.063Z" fill="#3F3D56"/>
<path d="M270.731 193.063H272.143C272.262 193.063 272.358 192.966 272.358 192.848V192.171C272.358 192.052 272.262 191.956 272.143 191.956H270.731C270.612 191.956 270.516 192.052 270.516 192.171V192.848C270.516 192.966 270.612 193.063 270.731 193.063Z" fill="#3F3D56"/>
<path d="M267.047 193.063H268.459C268.578 193.063 268.674 192.966 268.674 192.848V192.171C268.674 192.052 268.578 191.956 268.459 191.956H267.047C266.928 191.956 266.832 192.052 266.832 192.171V192.848C266.832 192.966 266.928 193.063 267.047 193.063Z" fill="#3F3D56"/>
<path d="M263.363 193.063H264.776C264.894 193.063 264.99 192.966 264.99 192.848V192.171C264.99 192.052 264.894 191.956 264.776 191.956H263.363C263.245 191.956 263.148 192.052 263.148 192.171V192.848C263.148 192.966 263.245 193.063 263.363 193.063Z" fill="#3F3D56"/>
<path d="M259.679 193.063H261.092C261.211 193.063 261.307 192.966 261.307 192.848V192.171C261.307 192.052 261.211 191.956 261.092 191.956H259.679C259.561 191.956 259.465 192.052 259.465 192.171V192.848C259.465 192.966 259.561 193.063 259.679 193.063Z" fill="#3F3D56"/>
<path d="M255.996 193.063H257.408C257.527 193.063 257.623 192.966 257.623 192.848V192.171C257.623 192.052 257.527 191.956 257.408 191.956H255.996C255.877 191.956 255.781 192.052 255.781 192.171V192.848C255.781 192.966 255.877 193.063 255.996 193.063Z" fill="#3F3D56"/>
<path d="M252.312 193.063H253.725C253.843 193.063 253.939 192.966 253.939 192.848V192.171C253.939 192.052 253.843 191.956 253.725 191.956H252.312C252.193 191.956 252.097 192.052 252.097 192.171V192.848C252.097 192.966 252.193 193.063 252.312 193.063Z" fill="#3F3D56"/>
<path d="M248.628 193.063H250.041C250.159 193.063 250.255 192.966 250.255 192.848V192.171C250.255 192.052 250.159 191.956 250.041 191.956H248.628C248.51 191.956 248.414 192.052 248.414 192.171V192.848C248.414 192.966 248.51 193.063 248.628 193.063Z" fill="#3F3D56"/>
<path d="M244.944 193.063H246.357C246.476 193.063 246.572 192.966 246.572 192.848V192.171C246.572 192.052 246.476 191.956 246.357 191.956H244.944C244.826 191.956 244.73 192.052 244.73 192.171V192.848C244.73 192.966 244.826 193.063 244.944 193.063Z" fill="#3F3D56"/>
<path d="M241.261 193.063H242.673C242.792 193.063 242.888 192.966 242.888 192.848V192.171C242.888 192.052 242.792 191.956 242.673 191.956H241.261C241.142 191.956 241.046 192.052 241.046 192.171V192.848C241.046 192.966 241.142 193.063 241.261 193.063Z" fill="#3F3D56"/>
<path d="M237.577 193.063H238.99C239.108 193.063 239.204 192.966 239.204 192.848V192.171C239.204 192.052 239.108 191.956 238.99 191.956H237.577C237.458 191.956 237.362 192.052 237.362 192.171V192.848C237.362 192.966 237.458 193.063 237.577 193.063Z" fill="#3F3D56"/>
<path d="M233.893 193.063H235.306C235.424 193.063 235.521 192.966 235.521 192.848V192.171C235.521 192.052 235.424 191.956 235.306 191.956H233.893C233.775 191.956 233.679 192.052 233.679 192.171V192.848C233.679 192.966 233.775 193.063 233.893 193.063Z" fill="#3F3D56"/>
<path d="M230.21 193.063H231.622C231.741 193.063 231.837 192.966 231.837 192.848V192.171C231.837 192.052 231.741 191.956 231.622 191.956H230.21C230.091 191.956 229.995 192.052 229.995 192.171V192.848C229.995 192.966 230.091 193.063 230.21 193.063Z" fill="#3F3D56"/>
<path d="M226.526 193.063H227.938C228.057 193.063 228.153 192.966 228.153 192.848V192.171C228.153 192.052 228.057 191.956 227.938 191.956H226.526C226.407 191.956 226.311 192.052 226.311 192.171V192.848C226.311 192.966 226.407 193.063 226.526 193.063Z" fill="#3F3D56"/>
<path d="M222.842 193.063H224.255C224.373 193.063 224.469 192.966 224.469 192.848V192.171C224.469 192.052 224.373 191.956 224.255 191.956H222.842C222.723 191.956 222.627 192.052 222.627 192.171V192.848C222.627 192.966 222.723 193.063 222.842 193.063Z" fill="#3F3D56"/>
<path d="M219.158 193.063H220.571C220.689 193.063 220.786 192.966 220.786 192.848V192.171C220.786 192.052 220.689 191.956 220.571 191.956H219.158C219.04 191.956 218.944 192.052 218.944 192.171V192.848C218.944 192.966 219.04 193.063 219.158 193.063Z" fill="#3F3D56"/>
<path d="M243.839 195.276H258.145C258.264 195.276 258.36 195.18 258.36 195.061V194.384C258.36 194.265 258.264 194.169 258.145 194.169H243.839C243.721 194.169 243.625 194.265 243.625 194.384V195.061C243.625 195.18 243.721 195.276 243.839 195.276Z" fill="#3F3D56"/>
<path d="M228.683 157.974H227.433C227.053 157.974 226.746 158.282 226.746 158.661C226.746 159.041 227.053 159.349 227.433 159.349H228.683C229.062 159.349 229.37 159.041 229.37 158.661C229.37 158.282 229.062 157.974 228.683 157.974Z" fill="white"/>
<path d="M242.985 157.974H241.734C241.355 157.974 241.048 158.282 241.048 158.661C241.048 159.041 241.355 159.349 241.734 159.349H242.985C243.364 159.349 243.671 159.041 243.671 158.661C243.671 158.282 243.364 157.974 242.985 157.974Z" fill="white"/>
<path d="M247.037 157.974H245.787C245.407 157.974 245.1 158.282 245.1 158.661C245.1 159.041 245.407 159.349 245.787 159.349H247.037C247.416 159.349 247.724 159.041 247.724 158.661C247.724 158.282 247.416 157.974 247.037 157.974Z" fill="white"/>
<path d="M239.095 157.859H231.323C230.944 157.859 230.636 158.167 230.636 158.547C230.636 158.926 230.944 159.234 231.323 159.234H239.095C239.474 159.234 239.781 158.926 239.781 158.547C239.781 158.167 239.474 157.859 239.095 157.859Z" fill="white"/>
<path d="M258.164 157.859H250.392C250.013 157.859 249.705 158.167 249.705 158.547C249.705 158.926 250.013 159.234 250.392 159.234H258.164C258.543 159.234 258.85 158.926 258.85 158.547C258.85 158.167 258.543 157.859 258.164 157.859Z" fill="white"/>
<path d="M232.497 161.077H231.246C230.867 161.077 230.56 161.385 230.56 161.764C230.56 162.144 230.867 162.452 231.246 162.452H232.497C232.876 162.452 233.183 162.144 233.183 161.764C233.183 161.385 232.876 161.077 232.497 161.077Z" fill="white"/>
<path d="M246.799 161.077H245.548C245.169 161.077 244.862 161.385 244.862 161.764C244.862 162.144 245.169 162.452 245.548 162.452H246.799C247.178 162.452 247.485 162.144 247.485 161.764C247.485 161.385 247.178 161.077 246.799 161.077Z" fill="white"/>
<path d="M250.851 161.077H249.6C249.221 161.077 248.914 161.385 248.914 161.764C248.914 162.144 249.221 162.452 249.6 162.452H250.851C251.23 162.452 251.537 162.144 251.537 161.764C251.537 161.385 251.23 161.077 250.851 161.077Z" fill="white"/>
<path d="M242.909 160.962H235.137C234.757 160.962 234.45 161.27 234.45 161.65C234.45 162.029 234.757 162.337 235.137 162.337H242.909C243.288 162.337 243.595 162.029 243.595 161.65C243.595 161.27 243.288 160.962 242.909 160.962Z" fill="white"/>
<path d="M261.978 160.962H254.206C253.827 160.962 253.519 161.27 253.519 161.65C253.519 162.029 253.827 162.337 254.206 162.337H261.978C262.357 162.337 262.664 162.029 262.664 161.65C262.664 161.27 262.357 160.962 261.978 160.962Z" fill="white"/>
<path d="M236.311 164.18H235.06C234.681 164.18 234.374 164.488 234.374 164.867C234.374 165.247 234.681 165.555 235.06 165.555H236.311C236.69 165.555 236.997 165.247 236.997 164.867C236.997 164.488 236.69 164.18 236.311 164.18Z" fill="white"/>
<path d="M250.613 164.18H249.362C248.983 164.18 248.676 164.488 248.676 164.867C248.676 165.247 248.983 165.555 249.362 165.555H250.613C250.992 165.555 251.299 165.247 251.299 164.867C251.299 164.488 250.992 164.18 250.613 164.18Z" fill="white"/>
<path d="M254.665 164.18H253.414C253.035 164.18 252.728 164.488 252.728 164.867C252.728 165.247 253.035 165.555 253.414 165.555H254.665C255.044 165.555 255.351 165.247 255.351 164.867C255.351 164.488 255.044 164.18 254.665 164.18Z" fill="white"/>
<path d="M246.722 164.065H238.95C238.571 164.065 238.264 164.373 238.264 164.753C238.264 165.132 238.571 165.44 238.95 165.44H246.722C247.102 165.44 247.409 165.132 247.409 164.753C247.409 164.373 247.102 164.065 246.722 164.065Z" fill="white"/>
<path d="M265.792 164.065H258.019C257.64 164.065 257.333 164.373 257.333 164.753C257.333 165.132 257.64 165.44 258.019 165.44H265.792C266.171 165.44 266.478 165.132 266.478 164.753C266.478 164.373 266.171 164.065 265.792 164.065Z" fill="white"/>
<path d="M240.125 167.283H238.874C238.495 167.283 238.188 167.591 238.188 167.97C238.188 168.35 238.495 168.658 238.874 168.658H240.125C240.504 168.658 240.811 168.35 240.811 167.97C240.811 167.591 240.504 167.283 240.125 167.283Z" fill="white"/>
<path d="M254.426 167.283H253.176C252.797 167.283 252.489 167.591 252.489 167.97C252.489 168.35 252.797 168.658 253.176 168.658H254.426C254.805 168.658 255.113 168.35 255.113 167.97C255.113 167.591 254.805 167.283 254.426 167.283Z" fill="white"/>
<path d="M258.479 167.283H257.228C256.849 167.283 256.542 167.591 256.542 167.97C256.542 168.35 256.849 168.658 257.228 168.658H258.479C258.858 168.658 259.165 168.35 259.165 167.97C259.165 167.591 258.858 167.283 258.479 167.283Z" fill="white"/>
<path d="M250.536 167.168H242.764C242.385 167.168 242.078 167.476 242.078 167.856C242.078 168.235 242.385 168.543 242.764 168.543H250.536C250.915 168.543 251.223 168.235 251.223 167.856C251.223 167.476 250.915 167.168 250.536 167.168Z" fill="white"/>
<path d="M242.985 179.622H241.734C241.355 179.622 241.048 179.93 241.048 180.31C241.048 180.689 241.355 180.997 241.734 180.997H242.985C243.364 180.997 243.671 180.689 243.671 180.31C243.671 179.93 243.364 179.622 242.985 179.622Z" fill="white"/>
<path d="M247.037 179.622H245.787C245.407 179.622 245.1 179.93 245.1 180.31C245.1 180.689 245.407 180.997 245.787 180.997H247.037C247.416 180.997 247.724 180.689 247.724 180.31C247.724 179.93 247.416 179.622 247.037 179.622Z" fill="white"/>
<path d="M258.164 179.737H250.392C250.013 179.737 249.705 180.045 249.705 180.424C249.705 180.804 250.013 181.112 250.392 181.112H258.164C258.543 181.112 258.85 180.804 258.85 180.424C258.85 180.045 258.543 179.737 258.164 179.737Z" fill="white"/>
<path d="M228.683 179.622H227.433C227.053 179.622 226.746 179.93 226.746 180.31C226.746 180.689 227.053 180.997 227.433 180.997H228.683C229.062 180.997 229.37 180.689 229.37 180.31C229.37 179.93 229.062 179.622 228.683 179.622Z" fill="white"/>
<path d="M239.095 179.737H231.323C230.944 179.737 230.636 180.045 230.636 180.424C230.636 180.804 230.944 181.112 231.323 181.112H239.095C239.474 181.112 239.781 180.804 239.781 180.424C239.781 180.045 239.474 179.737 239.095 179.737Z" fill="white"/>
<path d="M232.497 176.519H231.246C230.867 176.519 230.56 176.827 230.56 177.207C230.56 177.586 230.867 177.894 231.246 177.894H232.497C232.876 177.894 233.183 177.586 233.183 177.207C233.183 176.827 232.876 176.519 232.497 176.519Z" fill="white"/>
<path d="M246.799 176.519H245.548C245.169 176.519 244.862 176.827 244.862 177.207C244.862 177.586 245.169 177.894 245.548 177.894H246.799C247.178 177.894 247.485 177.586 247.485 177.207C247.485 176.827 247.178 176.519 246.799 176.519Z" fill="white"/>
<path d="M250.851 176.519H249.6C249.221 176.519 248.914 176.827 248.914 177.207C248.914 177.586 249.221 177.894 249.6 177.894H250.851C251.23 177.894 251.537 177.586 251.537 177.207C251.537 176.827 251.23 176.519 250.851 176.519Z" fill="white"/>
<path d="M242.909 176.634H235.137C234.757 176.634 234.45 176.941 234.45 177.321C234.45 177.701 234.757 178.009 235.137 178.009H242.909C243.288 178.009 243.595 177.701 243.595 177.321C243.595 176.941 243.288 176.634 242.909 176.634Z" fill="white"/>
<path d="M236.311 173.416H235.06C234.681 173.416 234.374 173.724 234.374 174.103C234.374 174.483 234.681 174.791 235.06 174.791H236.311C236.69 174.791 236.997 174.483 236.997 174.103C236.997 173.724 236.69 173.416 236.311 173.416Z" fill="white"/>
<path d="M250.613 173.416H249.362C248.983 173.416 248.676 173.724 248.676 174.103C248.676 174.483 248.983 174.791 249.362 174.791H250.613C250.992 174.791 251.299 174.483 251.299 174.103C251.299 173.724 250.992 173.416 250.613 173.416Z" fill="white"/>
<path d="M254.665 173.416H253.414C253.035 173.416 252.728 173.724 252.728 174.103C252.728 174.483 253.035 174.791 253.414 174.791H254.665C255.044 174.791 255.351 174.483 255.351 174.103C255.351 173.724 255.044 173.416 254.665 173.416Z" fill="white"/>
<path d="M246.722 173.531H238.95C238.571 173.531 238.264 173.838 238.264 174.218C238.264 174.598 238.571 174.906 238.95 174.906H246.722C247.102 174.906 247.409 174.598 247.409 174.218C247.409 173.838 247.102 173.531 246.722 173.531Z" fill="white"/>
<path d="M240.125 170.313H238.874C238.495 170.313 238.188 170.621 238.188 171C238.188 171.38 238.495 171.688 238.874 171.688H240.125C240.504 171.688 240.811 171.38 240.811 171C240.811 170.621 240.504 170.313 240.125 170.313Z" fill="white"/>
<path d="M254.426 170.313H253.176C252.797 170.313 252.489 170.621 252.489 171C252.489 171.38 252.797 171.688 253.176 171.688H254.426C254.805 171.688 255.113 171.38 255.113 171C255.113 170.621 254.805 170.313 254.426 170.313Z" fill="white"/>
<path d="M258.479 170.313H257.228C256.849 170.313 256.542 170.621 256.542 171C256.542 171.38 256.849 171.688 257.228 171.688H258.479C258.858 171.688 259.165 171.38 259.165 171C259.165 170.621 258.858 170.313 258.479 170.313Z" fill="white"/>
<path d="M250.536 170.428H242.764C242.385 170.428 242.078 170.735 242.078 171.115C242.078 171.495 242.385 171.802 242.764 171.802H250.536C250.915 171.802 251.223 171.495 251.223 171.115C251.223 170.735 250.915 170.428 250.536 170.428Z" fill="white"/>
<path d="M222.035 215.989L216.164 206.697L234.59 191.987L242.196 183.55C243.184 182.453 244.442 181.636 245.845 181.179C247.247 180.722 248.744 180.642 250.187 180.947C251.631 181.251 252.969 181.929 254.068 182.914C255.167 183.898 255.989 185.154 256.452 186.556C257.137 188.634 256.99 190.898 256.04 192.869C255.091 194.84 253.414 196.364 251.364 197.121L239.337 201.558L222.035 215.989Z" fill="#FFB6B6"/>
<path d="M84.2947 148.613V193.777H115.89V148.613C115.891 148.289 115.787 147.972 115.595 147.711C115.403 147.449 115.132 147.256 114.822 147.16C114.676 147.112 114.523 147.088 114.369 147.09H85.8206C85.6205 147.089 85.4222 147.128 85.2372 147.205C85.0522 147.281 84.884 147.393 84.7423 147.535C84.6006 147.676 84.4881 147.844 84.4113 148.03C84.3345 148.215 84.2949 148.413 84.2947 148.613V148.613ZM96.6251 164.132C96.6334 163.241 96.9923 162.39 97.624 161.764C98.2556 161.137 99.1088 160.785 99.998 160.785C100.887 160.785 101.74 161.137 102.372 161.764C103.004 162.39 103.363 163.241 103.371 164.132V169.372C103.366 170.265 103.009 171.119 102.377 171.749C101.745 172.379 100.89 172.732 99.998 172.732C99.1064 172.732 98.2511 172.379 97.6191 171.749C96.987 171.119 96.6297 170.265 96.6251 169.372V164.132Z" fill="#2F2E41"/>
<path d="M84.198 192.332V196.688C84.1987 196.913 84.2882 197.129 84.4471 197.289C84.606 197.449 84.8214 197.54 85.0467 197.542H115.138C115.364 197.541 115.58 197.45 115.739 197.29C115.898 197.13 115.987 196.913 115.987 196.688V192.332H84.198Z" fill="#3F3D56"/>
<path d="M34.5903 80.5688V163.031C34.5912 164.082 35.0084 165.089 35.7504 165.832C36.4925 166.575 37.4986 166.993 38.548 166.994H160.577C161.627 166.993 162.633 166.575 163.375 165.832C164.117 165.089 164.534 164.082 164.535 163.031V80.5688C164.532 79.5189 164.115 78.5127 163.373 77.7707C162.631 77.0287 161.626 76.6113 160.577 76.61H38.548C37.4996 76.6113 36.4943 77.0287 35.7525 77.7707C35.0107 78.5127 34.5928 79.5189 34.5903 80.5688Z" fill="#3F3D56"/>
<path d="M37.453 81.5948V162.014C37.454 162.575 37.6771 163.113 38.0736 163.51C38.47 163.907 39.0075 164.131 39.5682 164.132H159.561C160.122 164.131 160.659 163.907 161.056 163.51C161.452 163.113 161.676 162.575 161.676 162.014V81.5948C161.676 81.0327 161.454 80.4935 161.057 80.0956C160.661 79.6977 160.123 79.4735 159.561 79.4723H39.5682C39.0068 79.4735 38.4689 79.6977 38.0723 80.0956C37.6758 80.4935 37.4531 81.0327 37.453 81.5948Z" fill="white"/>
<path d="M59.7217 197.247C59.8439 197.4 59.9991 197.524 60.1758 197.608C60.3525 197.693 60.5461 197.737 60.742 197.736H132.13C132.325 197.735 132.518 197.692 132.694 197.607C132.871 197.523 133.026 197.401 133.149 197.249C133.272 197.097 133.359 196.92 133.405 196.73C133.451 196.54 133.454 196.342 133.414 196.15L132.306 190.879C132.26 190.664 132.161 190.464 132.018 190.297C131.876 190.13 131.693 190.002 131.488 189.924C131.34 189.865 131.182 189.835 131.022 189.836H61.8457C61.6862 189.835 61.5281 189.865 61.3796 189.924C61.1745 190.002 60.9922 190.13 60.8493 190.297C60.7065 190.464 60.6076 190.664 60.5617 190.879L59.4535 196.15C59.4141 196.342 59.4177 196.539 59.4641 196.729C59.5105 196.919 59.5985 197.095 59.7217 197.247Z" fill="#2F2E41"/>
<path d="M155.667 90.5504H43.3901C43.2734 90.5478 43.1623 90.4995 43.0807 90.416C42.9991 90.3324 42.9534 90.2201 42.9534 90.1032C42.9534 89.9864 42.9991 89.8741 43.0807 89.7905C43.1623 89.707 43.2734 89.6587 43.3901 89.6561H155.667C155.784 89.6587 155.895 89.707 155.977 89.7905C156.058 89.8741 156.104 89.9864 156.104 90.1032C156.104 90.2201 156.058 90.3324 155.977 90.416C155.895 90.4995 155.784 90.5478 155.667 90.5504V90.5504Z" fill="#3F3D56"/>
<path d="M51.0329 87.3732C52.4781 87.3732 53.6496 86.1739 53.6496 84.6945C53.6496 83.2151 52.4781 82.0157 51.0329 82.0157C49.5878 82.0157 48.4163 83.2151 48.4163 84.6945C48.4163 86.1739 49.5878 87.3732 51.0329 87.3732Z" fill="#3F3D56"/>
<path d="M60.0724 87.3732C61.5175 87.3732 62.689 86.1739 62.689 84.6945C62.689 83.2151 61.5175 82.0157 60.0724 82.0157C58.6272 82.0157 57.4557 83.2151 57.4557 84.6945C57.4557 86.1739 58.6272 87.3732 60.0724 87.3732Z" fill="#3F3D56"/>
<path d="M69.1118 87.3732C70.5569 87.3732 71.7285 86.1739 71.7285 84.6945C71.7285 83.2151 70.5569 82.0157 69.1118 82.0157C67.6666 82.0157 66.4951 83.2151 66.4951 84.6945C66.4951 86.1739 67.6666 87.3732 69.1118 87.3732Z" fill="#3F3D56"/>
<path d="M150.224 82.6782H143.804C143.677 82.6811 143.556 82.7337 143.467 82.8246C143.379 82.9156 143.329 83.0376 143.329 83.1648C143.329 83.2919 143.379 83.414 143.467 83.5049C143.556 83.5958 143.677 83.6484 143.804 83.6514H150.224C150.352 83.6496 150.474 83.5975 150.563 83.5064C150.653 83.4154 150.703 83.2926 150.703 83.1648C150.703 83.0369 150.653 82.9141 150.563 82.8231C150.474 82.732 150.352 82.68 150.224 82.6782Z" fill="#3F3D56"/>
<path d="M150.224 84.5057H143.804C143.677 84.5085 143.556 84.561 143.467 84.6519C143.378 84.7429 143.328 84.8651 143.328 84.9923C143.328 85.1195 143.378 85.2417 143.467 85.3326C143.556 85.4236 143.677 85.4761 143.804 85.4789H150.224C150.352 85.4773 150.474 85.4254 150.564 85.3343C150.654 85.2432 150.704 85.1203 150.704 84.9923C150.704 84.8642 150.654 84.7413 150.564 84.6503C150.474 84.5592 150.352 84.5072 150.224 84.5057V84.5057Z" fill="#3F3D56"/>
<path d="M150.224 86.3331H143.804C143.677 86.3361 143.556 86.3887 143.467 86.4796C143.379 86.5705 143.329 86.6926 143.329 86.8197C143.329 86.9469 143.379 87.0689 143.467 87.1599C143.556 87.2508 143.677 87.3034 143.804 87.3063H150.224C150.352 87.3045 150.474 87.2525 150.563 87.1614C150.653 87.0703 150.703 86.9476 150.703 86.8197C150.703 86.6919 150.653 86.5691 150.563 86.4781C150.474 86.387 150.352 86.3349 150.224 86.3331V86.3331Z" fill="#3F3D56"/>
<path d="M305.005 194.244C305.199 194.809 305.566 195.298 306.055 195.64C306.543 195.983 307.128 196.162 307.724 196.151L319.374 195.851C319.974 195.839 320.555 195.633 321.029 195.263C321.503 194.894 321.845 194.38 322.004 193.8L323.652 176.147C324.237 176.413 324.874 176.544 325.516 176.531C326.074 176.517 326.623 176.393 327.133 176.166C327.643 175.939 328.103 175.614 328.488 175.209C328.872 174.805 329.174 174.328 329.374 173.806C329.575 173.285 329.671 172.729 329.657 172.171C329.643 171.612 329.519 171.062 329.292 170.551C329.066 170.041 328.741 169.58 328.337 169.195C327.933 168.81 327.457 168.508 326.936 168.307C326.416 168.107 325.86 168.01 325.303 168.024C325.046 168.024 324.79 168.05 324.539 168.104C324.266 167.808 323.935 167.573 323.566 167.414C323.196 167.254 322.798 167.174 322.396 167.178L304.476 167.641C304.327 167.647 304.18 167.665 304.034 167.696C303.641 167.77 303.268 167.926 302.941 168.156C302.614 168.386 302.339 168.683 302.136 169.028C301.933 169.373 301.806 169.757 301.764 170.155C301.722 170.553 301.765 170.956 301.891 171.336L305.005 194.244ZM323.99 174.949L325.164 170.742C325.297 170.256 325.3 169.743 325.172 169.256C325.229 169.256 325.28 169.229 325.337 169.229C326.141 169.212 326.919 169.515 327.5 170.072C328.082 170.629 328.419 171.394 328.437 172.2C328.456 173.005 328.155 173.785 327.601 174.369C327.046 174.953 326.283 175.292 325.479 175.313C324.959 175.329 324.444 175.203 323.99 174.949Z" fill="#2F2E41"/>
<path d="M304.034 167.696C304.416 169.882 308.708 171.419 313.869 171.152C318.615 170.933 322.496 169.264 323.207 167.286C322.944 167.208 322.67 167.172 322.396 167.178L304.476 167.641C304.327 167.647 304.18 167.665 304.034 167.696V167.696Z" fill="#3F3D56"/>
<path d="M314.815 184.543C314.839 184.537 314.861 184.528 314.882 184.514L317.411 182.856C317.442 182.836 317.467 182.809 317.485 182.777C317.502 182.744 317.511 182.708 317.511 182.672C317.511 182.635 317.502 182.599 317.485 182.567C317.467 182.535 317.442 182.508 317.412 182.488L314.782 180.763C314.758 180.747 314.731 180.736 314.702 180.73C314.674 180.725 314.645 180.725 314.616 180.731C314.588 180.737 314.561 180.748 314.537 180.764C314.513 180.781 314.493 180.802 314.477 180.826C314.461 180.85 314.45 180.877 314.445 180.906C314.439 180.934 314.44 180.963 314.446 180.992C314.452 181.02 314.463 181.047 314.48 181.071C314.496 181.095 314.517 181.115 314.541 181.131L316.89 182.671L314.641 184.146C314.597 184.174 314.565 184.217 314.55 184.267C314.536 184.317 314.539 184.371 314.56 184.419C314.581 184.466 314.618 184.505 314.665 184.528C314.711 184.551 314.765 184.556 314.815 184.543H314.815Z" fill="#6C63FF"/>
<path d="M310.819 184.728C310.862 184.717 310.9 184.694 310.929 184.661C310.959 184.629 310.977 184.588 310.983 184.544C310.989 184.501 310.982 184.457 310.963 184.417C310.943 184.378 310.913 184.345 310.875 184.324L308.543 182.985L310.797 181.308C310.82 181.291 310.839 181.269 310.854 181.244C310.869 181.22 310.879 181.192 310.883 181.164C310.887 181.135 310.886 181.106 310.879 181.078C310.872 181.05 310.859 181.023 310.842 181C310.825 180.977 310.803 180.958 310.779 180.943C310.754 180.928 310.726 180.918 310.698 180.914C310.669 180.91 310.64 180.911 310.612 180.918C310.584 180.925 310.558 180.938 310.535 180.955L308.011 182.832C307.982 182.854 307.958 182.883 307.943 182.916C307.927 182.949 307.92 182.985 307.923 183.022C307.925 183.058 307.936 183.094 307.955 183.125C307.974 183.156 308.001 183.181 308.033 183.2L310.656 184.706C310.706 184.734 310.764 184.742 310.819 184.728V184.728Z" fill="#6C63FF"/>
<path d="M314.564 185.997C314.585 185.991 314.605 185.983 314.624 185.971C314.649 185.956 314.67 185.936 314.687 185.913C314.704 185.89 314.716 185.863 314.723 185.835C314.73 185.807 314.731 185.778 314.727 185.749C314.723 185.721 314.713 185.693 314.697 185.669L311.111 179.764C311.081 179.714 311.032 179.679 310.975 179.665C310.919 179.651 310.859 179.661 310.809 179.691C310.759 179.721 310.724 179.77 310.71 179.827C310.696 179.884 310.705 179.943 310.735 179.993L314.322 185.898C314.346 185.938 314.383 185.969 314.426 185.987C314.47 186.005 314.518 186.008 314.564 185.997Z" fill="#6C63FF"/>
<path d="M112.944 114.858H93.5112C92.7185 114.858 92.0758 115.502 92.0758 116.296V118.197C92.0758 118.991 92.7185 119.634 93.5112 119.634H112.944C113.737 119.634 114.379 118.991 114.379 118.197V116.296C114.379 115.502 113.737 114.858 112.944 114.858Z" fill="#6C63FF"/>
<path d="M124.271 124.41H82.1839C81.3912 124.41 80.7485 125.054 80.7485 125.848V127.749C80.7485 128.543 81.3912 129.186 82.1839 129.186H124.271C125.064 129.186 125.706 128.543 125.706 127.749V125.848C125.706 125.054 125.064 124.41 124.271 124.41Z" fill="#E6E6E6"/>
<path d="M124.271 133.962H82.1839C81.3912 133.962 80.7485 134.606 80.7485 135.4V137.301C80.7485 138.095 81.3912 138.738 82.1839 138.738H124.271C125.064 138.738 125.706 138.095 125.706 137.301V135.4C125.706 134.606 125.064 133.962 124.271 133.962Z" fill="#E6E6E6"/>
<path d="M127.839 165.948L127.934 166.25L127.939 166.26L130.808 174.996L134.109 185.063L140.32 203.981L140.38 206.92V206.93L140.841 230.57L139.562 233.775L141.002 239.03C141.002 239.03 140.34 231.087 136.788 235.649C134.777 238.241 132.424 240.893 130.492 243.38C133.307 244.52 136.166 245.552 139.071 246.474C139.698 246.675 140.33 246.866 140.962 247.057C141.097 247.097 141.233 247.137 141.368 247.177C150.996 250.029 160.95 251.631 170.985 251.945C171.507 251.96 172.019 251.97 172.515 251.98C172.691 251.985 172.862 251.99 173.032 251.99C173.594 251.995 174.151 252 174.713 252C175.846 252 176.975 251.983 178.099 251.95C186.416 251.715 194.684 250.595 202.765 248.609C202.709 245.269 202.559 241.365 202.343 237.196C202.243 235.151 199.991 232.936 199.855 230.796C199.76 229.188 201.781 227.676 201.676 226.044C200.994 215.992 200.141 219.85 199.509 212.732C199.444 212.034 199.384 211.366 199.328 210.728C198.922 206.156 198.641 203.298 198.641 203.298L201.34 186.263L205.579 159.518L205.253 158.981L204.887 158.8L182.528 147.718L181.314 144.603C180.961 143.706 180.347 142.935 179.552 142.39C178.757 141.845 177.818 141.55 176.855 141.544L162.126 141.484C161.362 141.48 160.608 141.659 159.926 142.006C159.245 142.353 158.656 142.858 158.208 143.478L154.22 149.009L127.839 165.948Z" fill="#3F3D56"/>
<path d="M143.716 199.771L140.38 206.92L138.102 211.803L134.185 232.344L132.223 234.429L130.543 227.048L112.954 230.959C112.377 227.749 112.799 231.068 112.443 227.546C112.544 227.446 112.649 227.345 112.754 227.245C113.035 226.984 113.271 226.738 113.266 226.501C113.065 214.355 113.667 193.683 118.694 181.159C119.481 179.115 120.519 177.176 121.784 175.387C121.884 175.252 121.98 175.116 122.075 174.981C124.392 171.73 125.857 168.53 127.934 166.255V166.25C127.947 166.239 127.959 166.227 127.969 166.215C127.977 166.211 127.984 166.206 127.989 166.199L142.256 158.624L142.868 175.845L143.305 188.222L143.716 199.771Z" fill="#3F3D56"/>
<path d="M195.159 201.802L199.326 210.73L200.781 213.839L204.698 234.379L206.653 236.458L208.337 229.08L209.128 228.917L223.402 225.957L227.562 239.188C228.5 237.624 228.869 235.783 228.608 233.977C228.347 232.171 227.471 230.511 226.128 229.278C225.844 229.02 225.607 228.77 225.614 228.533C225.851 214.246 224.978 188.159 217.097 177.422C214.594 174.014 213.093 170.62 210.908 168.249C210.901 168.243 210.901 168.236 210.894 168.236L205.577 159.518L205.252 158.982L204.887 158.8L195.159 201.802Z" fill="#3F3D56"/>
<path d="M169.916 137.286C180.737 137.286 189.51 128.501 189.51 117.665C189.51 106.828 180.737 98.043 169.916 98.043C159.094 98.043 150.322 106.828 150.322 117.665C150.322 128.501 159.094 137.286 169.916 137.286Z" fill="#FFB6B6"/>
<path d="M196.4 103.959C196.248 103.797 196.065 103.666 195.862 103.576C195.658 103.486 195.439 103.438 195.217 103.435L195.511 102.616C195.608 102.358 195.634 102.079 195.587 101.808C195.54 101.536 195.422 101.282 195.244 101.072C195.067 100.861 194.837 100.701 194.578 100.609C194.319 100.517 194.04 100.495 193.77 100.546L192.697 100.753L192.798 100.035C192.837 99.7681 192.806 99.4952 192.707 99.2437C192.609 98.9922 192.447 98.7707 192.237 98.601C192.027 98.4312 191.777 98.3191 191.51 98.2757C191.244 98.2323 190.971 98.259 190.718 98.3532C190.488 98.4439 190.241 98.4818 189.994 98.4643C189.748 98.4468 189.508 98.3742 189.293 98.2519C189.078 98.1334 188.89 97.9691 188.745 97.7706C188.599 97.5721 188.498 97.3441 188.449 97.1026L188.075 95.2971L188.036 95.2002C186.215 92.1617 182.715 89.9511 178.432 89.1408C174.619 88.4142 170.71 88.7841 166.941 89.132C165.446 89.273 163.758 89.4315 162.35 90.2946C161.154 91.0344 160.143 92.514 160.35 94.0068C156.634 92.8663 152.65 95.143 150.675 98.0141C148.336 101.431 147.953 105.712 147.892 109.058C147.724 116.976 149.356 123.454 152.729 128.315C152.975 128.668 153.037 129.403 153.525 129.65L153.424 129.487C153.969 129.76 154.523 130.2 154.316 130.671C153.723 132.028 157.667 135.026 160.446 136.017C165.517 137.827 172.258 137.673 176.998 137.021L177.165 135.898C178.876 135.665 180.081 135.22 180.419 134.524C181.018 134.014 181.528 133.556 181.972 133.133L181.976 133.129C181.985 133.12 182.003 133.107 182.011 133.098C184.153 131.041 184.65 129.87 184.874 128.086C185.09 126.338 184.707 124.564 184.316 122.965C192.556 124.242 181.07 114.175 188.748 112.229C188.836 112.202 188.926 112.18 189.016 112.163C189.241 112.11 189.465 112.057 189.68 111.996C190.719 111.713 191.714 111.288 192.636 110.732C194.782 109.424 195.49 107.689 196.598 105.734C196.758 105.455 196.825 105.133 196.789 104.814C196.753 104.495 196.617 104.195 196.4 103.959V103.959Z" fill="#2F2E41"/>
<path d="M239.218 203.199C239.213 203.969 239.205 205.048 239.169 206.383C239.165 206.568 239.161 206.757 239.156 206.951C239.099 209.403 239.042 211.46 238.95 213.745C238.945 213.904 238.941 214.058 238.932 214.217C238.809 217.405 238.615 221.117 238.281 226.996C237.661 237.855 236.579 228.489 235.493 232.298C235.44 232.487 235.383 232.712 235.33 232.976C235.166 233.935 234.888 234.87 234.504 235.763C233.928 236.107 233.334 236.437 232.749 236.767C231.083 237.697 229.39 238.591 227.683 239.44C226.725 239.916 225.762 240.383 224.794 240.832C224.64 240.902 224.491 240.973 224.341 241.039C219.387 243.334 214.281 245.285 209.06 246.878C208.04 247.186 207.024 247.486 205.995 247.763C204.922 248.063 203.849 248.345 202.763 248.609C194.683 250.595 186.415 251.716 178.098 251.951C176.976 251.986 175.846 252 174.712 252C174.149 252 173.595 251.995 173.032 251.991C172.86 251.991 172.689 251.986 172.517 251.982C172.02 251.969 171.506 251.96 170.987 251.947C160.952 251.633 150.998 250.03 141.37 247.178L140.961 247.059C140.328 246.865 139.699 246.676 139.07 246.473C136.168 245.553 133.308 244.522 130.491 243.382C128.341 242.514 126.215 241.584 124.115 240.59C124.095 240.585 124.077 240.576 124.062 240.563C123.622 240.361 123.178 240.149 122.738 239.934C122.681 239.903 122.619 239.872 122.558 239.841C120.918 239.04 119.295 238.2 117.69 237.322C116.34 234.218 114.44 233.623 113.262 230.893C112.919 230.082 112.671 229.234 112.523 228.365C112.523 228.357 112.519 228.348 112.519 228.335C112.642 229.973 111.995 225.428 112.514 228.317C112.51 228.264 112.505 228.207 112.501 228.141C112.488 227.982 112.47 227.789 112.444 227.546C110.935 212.799 111.032 195.933 110.377 182.035C110.333 181.137 110.288 180.276 110.241 179.454C110.227 179.181 110.21 178.913 110.192 178.649C110.223 178.569 110.258 178.486 110.298 178.406C110.306 178.384 110.317 178.362 110.329 178.34C110.342 178.313 110.356 178.287 110.373 178.261C110.381 178.248 110.395 178.23 110.403 178.217C110.41 178.202 110.417 178.187 110.425 178.173C110.465 178.111 110.509 178.045 110.557 177.984C110.579 177.957 110.597 177.935 110.619 177.913C110.634 177.891 110.652 177.87 110.672 177.852C110.685 177.83 110.701 177.811 110.72 177.794C110.738 177.777 110.755 177.755 110.777 177.733C110.787 177.719 110.798 177.707 110.812 177.697C110.847 177.657 110.885 177.621 110.927 177.587C111.084 177.443 111.251 177.31 111.428 177.191C111.489 177.151 111.555 177.112 111.617 177.068C112.06 176.802 112.527 176.578 113.011 176.398C113.178 176.337 113.345 176.28 113.526 176.218C113.591 176.2 113.653 176.178 113.719 176.156C113.816 176.125 113.913 176.095 114.014 176.073C114.515 175.923 115.056 175.795 115.641 175.676C115.711 175.663 115.786 175.65 115.861 175.632C115.966 175.61 116.076 175.593 116.186 175.575C116.335 175.549 116.489 175.522 116.643 175.496C117.949 175.289 119.431 175.135 121.067 175.033C121.221 175.024 121.375 175.016 121.529 175.007C121.709 174.998 121.889 174.989 122.074 174.98C122.228 174.972 122.386 174.967 122.545 174.963C122.699 174.954 122.857 174.95 123.02 174.945C123.464 174.932 123.921 174.919 124.387 174.91C125.715 174.884 127.114 174.892 128.582 174.923C129.264 174.941 129.959 174.958 130.671 174.989C130.72 174.989 130.764 174.994 130.808 174.994C131.428 175.016 132.052 175.042 132.694 175.077C133.143 175.099 133.595 175.121 134.048 175.148C134.475 175.174 134.906 175.201 135.341 175.231C135.68 175.249 136.018 175.275 136.361 175.298C136.652 175.32 136.942 175.342 137.232 175.359L137.628 175.386C137.843 175.403 138.059 175.416 138.279 175.438C138.762 175.478 139.246 175.518 139.739 175.557C140.227 175.601 140.724 175.645 141.221 175.689C141.718 175.733 142.219 175.782 142.72 175.83C142.773 175.835 142.821 175.839 142.87 175.844C143.327 175.892 143.784 175.936 144.246 175.984C144.352 175.993 144.462 176.002 144.567 176.015C145.007 176.06 145.456 176.111 145.9 176.159C146.037 176.173 146.172 176.188 146.309 176.203C146.657 176.241 147 176.274 147.351 176.315C147.812 176.368 148.283 176.416 148.74 176.478C149.096 176.517 149.453 176.557 149.809 176.601C150.367 176.667 150.935 176.737 151.502 176.812C151.717 176.839 151.933 176.865 152.148 176.896C153.767 177.099 155.402 177.323 157.065 177.557C159.584 177.913 162.144 178.301 164.721 178.719C167.302 179.137 169.898 179.579 172.508 180.045C173.168 180.164 173.828 180.282 174.492 180.406C174.791 180.463 175.09 180.52 175.389 180.577C175.899 180.67 176.409 180.767 176.919 180.864C177.429 180.961 177.939 181.057 178.449 181.159C179.056 181.278 179.667 181.396 180.274 181.515C184.272 182.308 188.247 183.154 192.125 184.039C192.763 184.184 193.401 184.334 194.034 184.479C195.3 184.774 196.555 185.074 197.798 185.377C198.141 185.457 198.48 185.54 198.818 185.624C199.663 185.835 200.507 186.047 201.338 186.262L201.483 186.302C202.095 186.452 202.693 186.606 203.291 186.765C204.702 187.134 206.09 187.509 207.455 187.887C208.361 188.138 209.256 188.392 210.142 188.649C211.465 189.032 212.763 189.42 214.025 189.812C214.337 189.909 214.649 190.006 214.957 190.098C215.88 190.384 216.791 190.675 217.675 190.966C218.378 191.195 219.064 191.428 219.741 191.661C220.419 191.895 221.083 192.128 221.734 192.361C222.151 192.511 222.565 192.67 222.978 192.819C223.572 193.04 224.157 193.26 224.728 193.48C224.904 193.546 225.076 193.617 225.247 193.683C225.357 193.731 225.463 193.771 225.568 193.815C225.775 193.898 225.986 193.978 226.188 194.061C226.395 194.141 226.597 194.224 226.799 194.312C226.997 194.392 227.2 194.475 227.393 194.559C227.591 194.638 227.784 194.722 227.978 194.81C228.141 194.876 228.299 194.946 228.453 195.017C228.765 195.153 229.077 195.29 229.381 195.431C229.53 195.501 229.68 195.567 229.829 195.638L230.172 195.796C230.221 195.823 230.269 195.845 230.317 195.867C230.427 195.92 230.542 195.977 230.652 196.03C230.907 196.149 231.157 196.276 231.403 196.395C231.733 196.563 232.054 196.73 232.362 196.893C232.674 197.06 232.978 197.227 233.268 197.39C233.316 197.417 233.36 197.443 233.409 197.47C233.475 197.505 233.541 197.545 233.607 197.58C233.831 197.707 234.046 197.84 234.262 197.967C234.684 198.227 235.084 198.482 235.458 198.738C235.541 198.795 235.621 198.852 235.704 198.905C235.981 199.103 236.245 199.297 236.491 199.495C236.491 199.5 236.491 199.5 236.496 199.5C236.579 199.561 236.658 199.627 236.738 199.689C236.804 199.751 236.874 199.804 236.94 199.865C237.169 200.063 237.38 200.253 237.573 200.446C237.638 200.506 237.7 200.57 237.758 200.636C237.783 200.657 237.807 200.681 237.828 200.706C237.916 200.794 237.995 200.882 238.07 200.97C238.082 200.983 238.092 200.996 238.101 201.01C238.206 201.133 238.303 201.257 238.395 201.38C238.439 201.442 238.488 201.503 238.527 201.565C238.58 201.64 238.633 201.719 238.677 201.794C238.716 201.856 238.752 201.922 238.787 201.983C238.88 202.142 238.96 202.309 239.024 202.481C239.074 202.598 239.113 202.719 239.143 202.842C239.176 202.959 239.201 203.078 239.218 203.199V203.199Z" fill="#2F2E41"/>
<path opacity="0.2" d="M239.218 203.199C239.213 203.969 239.205 205.048 239.169 206.383C239.165 206.568 239.156 206.757 239.152 206.951C239.108 208.822 239.042 211.134 238.95 213.745C238.945 213.904 238.941 214.058 238.932 214.217C238.809 217.405 238.615 221.117 238.281 226.996C237.661 237.855 236.579 228.489 235.493 232.298C232.477 230.439 229.17 228.493 225.634 226.494C224.996 226.133 224.353 225.77 223.704 225.406C216.633 221.456 208.735 217.317 200.489 213.217C200.164 213.054 199.834 212.891 199.509 212.733C180.622 203.384 160.007 194.29 143.305 188.222C140.082 187.051 137.004 185.994 134.11 185.065C128.015 183.114 122.747 181.749 118.693 181.159C114.471 180.542 111.555 180.762 110.377 182.035C110.333 181.137 110.288 180.276 110.241 179.454C110.223 179.181 110.205 178.913 110.188 178.649C110.215 178.576 110.25 178.507 110.284 178.437C110.289 178.427 110.293 178.416 110.298 178.406C110.306 178.384 110.317 178.361 110.329 178.34C110.342 178.313 110.356 178.287 110.373 178.261C110.387 178.23 110.405 178.2 110.425 178.173C110.465 178.111 110.509 178.045 110.557 177.984C110.593 177.937 110.631 177.893 110.672 177.852C110.685 177.83 110.701 177.811 110.72 177.794C110.738 177.777 110.755 177.755 110.777 177.733C110.787 177.719 110.798 177.707 110.812 177.697C110.847 177.657 110.885 177.621 110.927 177.587C111.084 177.443 111.251 177.31 111.428 177.191C111.489 177.151 111.555 177.112 111.617 177.068C112.06 176.802 112.527 176.578 113.011 176.398C113.178 176.337 113.345 176.279 113.526 176.218C113.591 176.2 113.653 176.178 113.719 176.156C113.816 176.125 113.913 176.095 114.014 176.072C114.515 175.923 115.056 175.795 115.641 175.676C115.817 175.641 116.001 175.606 116.186 175.575C116.336 175.548 116.489 175.522 116.643 175.496C117.949 175.289 119.431 175.135 121.067 175.033C121.221 175.024 121.375 175.016 121.529 175.007C121.709 174.998 121.889 174.989 122.074 174.98C122.228 174.972 122.386 174.967 122.545 174.963C122.699 174.954 122.857 174.95 123.02 174.945C123.464 174.932 123.921 174.919 124.387 174.91C125.715 174.888 127.114 174.897 128.582 174.928C129.264 174.941 129.959 174.963 130.671 174.994C130.715 174.994 130.764 174.998 130.808 174.998C131.428 175.016 132.056 175.046 132.694 175.077C133.143 175.099 133.595 175.121 134.048 175.148C134.475 175.174 134.906 175.201 135.341 175.231C135.68 175.249 136.018 175.275 136.361 175.297C136.652 175.319 136.942 175.341 137.232 175.359C137.58 175.386 137.927 175.412 138.279 175.438C138.762 175.478 139.246 175.518 139.739 175.557C140.227 175.601 140.724 175.645 141.221 175.689C141.718 175.733 142.219 175.782 142.72 175.83C142.773 175.835 142.821 175.839 142.87 175.844C143.327 175.892 143.784 175.936 144.246 175.984C146.805 176.244 149.439 176.548 152.148 176.896C153.767 177.103 155.405 177.325 157.065 177.561C159.584 177.918 162.144 178.305 164.721 178.719C167.302 179.137 169.898 179.579 172.508 180.045C173.168 180.163 173.828 180.282 174.492 180.406C175.301 180.555 176.11 180.708 176.919 180.864C177.429 180.96 177.939 181.057 178.449 181.159C179.056 181.278 179.668 181.396 180.274 181.515C184.272 182.308 188.247 183.153 192.126 184.039C192.763 184.184 193.401 184.334 194.034 184.479C195.3 184.774 196.555 185.073 197.798 185.377C198.141 185.461 198.48 185.545 198.818 185.628C199.667 185.84 200.507 186.051 201.338 186.262V186.267C201.387 186.276 201.435 186.289 201.483 186.302C202.09 186.456 202.693 186.61 203.291 186.769C204.702 187.139 206.09 187.512 207.455 187.887C208.361 188.143 209.258 188.394 210.142 188.649C211.466 189.037 212.763 189.424 214.025 189.812C214.337 189.909 214.649 190.006 214.957 190.098C215.881 190.389 216.786 190.678 217.675 190.965C218.378 191.194 219.064 191.428 219.742 191.661C220.419 191.895 221.083 192.128 221.734 192.361C222.156 192.511 222.569 192.665 222.978 192.815C223.576 193.035 224.157 193.255 224.728 193.48C224.904 193.546 225.076 193.616 225.247 193.683C225.568 193.806 225.88 193.934 226.188 194.061C226.395 194.14 226.597 194.224 226.799 194.312C226.997 194.392 227.2 194.475 227.393 194.559C227.591 194.638 227.784 194.722 227.978 194.81C228.141 194.876 228.299 194.946 228.453 195.017C228.765 195.153 229.077 195.29 229.381 195.431C229.53 195.501 229.68 195.567 229.829 195.638L230.172 195.796C230.221 195.823 230.269 195.845 230.317 195.867C230.691 196.043 231.052 196.219 231.404 196.395C231.733 196.562 232.054 196.73 232.362 196.893C232.727 197.086 233.075 197.276 233.409 197.47C233.475 197.505 233.541 197.544 233.607 197.58C233.831 197.707 234.046 197.84 234.262 197.967C234.684 198.227 235.084 198.482 235.458 198.738C235.827 198.993 236.17 199.244 236.491 199.495C236.491 199.5 236.491 199.5 236.496 199.5C236.65 199.623 236.799 199.746 236.94 199.865C237.169 200.063 237.38 200.253 237.573 200.446C237.638 200.506 237.7 200.569 237.758 200.636C237.783 200.657 237.807 200.681 237.828 200.706C237.921 200.808 238.013 200.909 238.101 201.01C238.206 201.133 238.303 201.257 238.396 201.38C238.439 201.442 238.488 201.503 238.527 201.565C238.58 201.64 238.633 201.719 238.677 201.794C238.717 201.856 238.752 201.922 238.787 201.983C238.88 202.142 238.96 202.309 239.024 202.481C239.072 202.598 239.112 202.719 239.143 202.842C239.176 202.959 239.201 203.078 239.218 203.199V203.199Z" fill="black"/>
</g>
<defs>
<clipPath id="clip0_1151_2408">
<rect width="346" height="252" fill="white"/>
</clipPath>
</defs>
</svg>
