<svg width="284" height="296" viewBox="0 0 284 296" fill="none" xmlns="http://www.w3.org/2000/svg">
<path d="M269.138 275.822C269.138 286.965 208.89 296 134.569 296C60.2479 296 0 286.965 0 275.822C0 267.932 30.1999 261.098 74.2127 257.782C92.3621 256.411 112.869 255.643 134.569 255.643C143.49 255.643 152.206 255.773 160.636 256.021C222.482 257.843 269.138 266.014 269.138 275.822Z" fill="#3F3D56"/>
<path opacity="0.1" d="M117.205 279.944C145.735 279.944 168.862 277.127 168.862 273.652C168.862 270.177 145.735 267.36 117.205 267.36C88.6758 267.36 65.5481 270.177 65.5481 273.652C65.5481 277.127 88.6758 279.944 117.205 279.944Z" fill="black"/>
<path d="M116.988 278.208C143.959 278.208 165.824 254.894 165.824 226.135C165.824 197.375 143.959 174.061 116.988 174.061C90.0171 174.061 68.1527 197.375 68.1527 226.135C68.1527 254.894 90.0171 278.208 116.988 278.208Z" fill="#3F3D56"/>
<path d="M132.399 256.945H102.012V284.717H132.399V256.945Z" fill="#6C63FF"/>
<path d="M172.118 263.671L170.382 273.218L181.668 274.954L189.048 270.614L188.614 263.671H172.118Z" fill="#575A89"/>
<path d="M115.252 84.4516C115.252 84.4516 114.384 94.4324 112.213 94.8663C110.043 95.3003 116.988 112.658 116.988 112.658H127.407L135.654 110.488L131.747 100.942C131.747 100.942 126.538 93.9984 130.445 88.3572C134.352 82.7159 115.252 84.4516 115.252 84.4516Z" fill="#E2A789"/>
<path opacity="0.1" d="M115.252 84.4516C115.252 84.4516 114.384 94.4324 112.213 94.8663C110.043 95.3003 116.988 112.658 116.988 112.658H127.407L135.654 110.488L131.747 100.942C131.747 100.942 126.538 93.9984 130.445 88.3572C134.352 82.7159 115.252 84.4516 115.252 84.4516Z" fill="#E2A789"/>
<path d="M93.5472 160.826C93.5472 160.826 82.2608 182.523 91.3767 186.863C100.493 191.202 102.663 190.768 102.663 192.07C102.663 193.372 100.927 192.938 101.795 195.108C102.663 197.277 100.059 205.956 102.663 211.164C105.268 216.371 104.4 220.277 104.4 220.277C104.4 220.277 104.4 220.71 105.268 222.446C106.136 224.182 106.57 225.484 106.136 226.352C105.702 227.22 103.097 232.861 105.702 234.163C108.306 235.465 121.763 236.333 123.066 234.163C124.368 231.993 121.763 230.691 123.066 229.389C124.368 228.088 125.236 227.654 124.368 226.786C123.5 225.918 122.631 215.069 122.631 215.069C122.631 215.069 124.802 202.485 123.934 200.749C123.066 199.013 121.763 197.277 122.631 195.976C123.5 194.674 124.368 195.108 124.802 193.372C125.236 191.636 126.104 187.731 126.104 187.731L130.879 187.297L142.166 189.466C142.166 189.466 154.754 203.353 168.645 207.692C168.645 207.692 172.552 211.598 173.855 211.598C175.157 211.598 175.157 211.598 174.723 212.466C174.289 213.333 172.986 213.333 173.855 214.201C174.723 215.069 176.025 213.767 175.157 215.069C174.289 216.371 173.42 216.371 174.289 217.239C175.157 218.107 173.855 222.88 173.855 223.314C173.855 223.748 169.948 264.539 171.25 265.407C172.552 266.275 190.784 268.878 192.086 265.407C193.389 261.935 191.218 257.596 191.218 257.596C191.218 257.596 197.73 205.522 195.993 202.051C194.257 198.579 188.18 182.957 155.623 172.976C155.623 172.976 146.507 171.241 146.507 169.939C146.507 168.637 145.638 160.392 143.902 159.958C142.166 159.524 132.182 159.09 132.182 159.09L119.593 162.996L102.229 159.958L93.5472 160.826Z" fill="#2F2E41"/>
<path d="M108.741 233.729L106.57 241.54C106.57 241.54 104.834 254.124 107.004 257.162C108.709 259.548 111.753 262.469 117.398 262.982C118.98 263.127 120.565 262.728 121.889 261.851C123.214 260.974 124.199 259.671 124.682 258.158C124.747 257.976 124.787 257.788 124.802 257.596C124.802 256.728 123.5 246.313 123.5 246.313L121.329 235.465L120.895 232.427L108.741 233.729Z" fill="#2F2E41"/>
<path d="M172.118 271.048C172.118 271.048 169.948 268.878 169.514 271.048C169.08 273.218 167.343 282.331 170.382 282.765C173.42 283.199 202.505 287.538 205.543 285.802C208.582 284.067 214.225 281.463 210.752 280.161C207.28 278.859 197.296 274.954 197.296 274.954C197.296 274.954 191.652 267.577 190.784 267.143C189.916 266.709 185.141 267.577 182.97 269.312C180.8 271.048 172.118 271.048 172.118 271.048Z" fill="#2F2E41"/>
<path d="M125.67 93.5645C133.102 93.5645 139.127 87.5417 139.127 80.1122C139.127 72.6827 133.102 66.6599 125.67 66.6599C118.238 66.6599 112.213 72.6827 112.213 80.1122C112.213 87.5417 118.238 93.5645 125.67 93.5645Z" fill="#E2A789"/>
<path d="M124.368 110.488L119.159 104.847L113.385 93.5645C113.385 93.5645 109.175 92.2627 108.306 94.4324C107.438 96.6021 91.8109 103.545 91.8109 103.545C91.8109 103.545 95.7177 139.997 93.9814 143.468C92.245 146.94 89.2063 160.826 91.8109 162.128C94.4155 163.43 106.57 162.128 110.477 163.864C114.384 165.599 125.67 165.599 128.709 163.43C131.748 161.26 132.616 159.524 135.654 160.826C138.241 161.934 144.289 124.044 146.03 112.753C146.177 111.805 146.055 110.834 145.678 109.952C145.302 109.069 144.686 108.309 143.899 107.759C140.004 105.027 132.989 100.321 131.748 100.942C130.011 101.809 124.368 110.488 124.368 110.488Z" fill="#575A89"/>
<path d="M143.034 108.753C144.053 109.007 144.97 109.568 145.662 110.359C146.353 111.15 146.786 112.133 146.902 113.177L150.413 144.77C150.413 144.77 141.732 163.43 137.391 150.845C133.05 138.261 143.034 108.753 143.034 108.753Z" fill="#575A89"/>
<path d="M142.166 147.808L151.716 145.204C151.716 145.204 153.452 157.354 155.189 157.354C156.925 157.354 149.111 164.298 145.204 163.43C141.298 162.562 135.654 159.524 135.22 157.354C134.786 155.185 139.127 146.072 139.127 146.072L142.166 147.808Z" fill="#575A89"/>
<path d="M115.512 85.9154C116.427 83.8984 116.268 81.5457 117.024 79.4641C117.429 78.3495 118.087 77.3436 118.945 76.525C119.803 75.7064 120.839 75.0972 121.972 74.7451C123.105 74.393 124.304 74.3075 125.475 74.4952C126.647 74.6829 127.759 75.1388 128.725 75.8273C129.698 76.5209 130.673 77.4955 131.861 77.363C133.14 77.2205 134.281 75.7939 135.457 76.3167C136.761 76.8962 136.409 79.2314 137.729 79.7708C138.424 80.0547 139.246 79.6176 139.647 78.9829C139.997 78.3159 140.188 77.5768 140.205 76.8235C140.387 74.9727 140.552 73.0139 139.749 71.3363C139.411 70.7677 139.117 70.1744 138.868 69.5615C138.728 68.9891 138.671 68.3994 138.701 67.8108C138.694 65.6354 138.535 63.3662 137.44 61.4864C136.224 59.4004 133.978 58.0665 131.634 57.4844C129.291 56.9024 126.835 56.9916 124.429 57.1953C120.452 57.5319 116.303 58.2535 113.169 60.7254C112.743 61.0365 112.377 61.4215 112.087 61.8621C111.812 62.3856 111.618 62.9476 111.511 63.5291C110.833 66.2873 109.817 68.9513 108.486 71.4604C107.846 72.5241 107.322 73.654 106.925 74.8302C106.593 76.0255 106.615 77.3876 107.311 78.415C107.877 79.2514 108.783 79.6971 109.494 80.3809C110.199 81.0585 110.529 82.3616 111.31 82.8747C111.991 83.3226 112.808 83.0064 113.503 83.4811C114.396 84.0906 114.46 85.427 115.512 85.9154Z" fill="#2F2E41"/>
<path d="M126.538 116.998L127.841 114.394C127.841 114.394 146.941 120.035 150.848 125.242C150.848 125.242 160.398 119.167 165.607 120.035L170.816 120.903L154.754 135.223L134.352 133.487L126.538 116.998Z" fill="#F2F2F2"/>
<path d="M125.67 114.394L107.872 139.129L133.484 151.713C133.484 151.713 135.878 153.015 137.72 151.713L154.754 143.902L170.816 120.903L154.754 129.148C154.754 129.148 153.018 125.676 149.545 127.412L125.67 114.394Z" fill="#6C63FF"/>
<path d="M153.018 158.222L156.491 149.109C156.491 149.109 164.304 139.129 159.963 134.355C155.623 129.582 150.848 148.242 150.848 148.242L153.018 158.222Z" fill="#E2A789"/>
<path d="M112.95 156.768L120.528 150.627C120.528 150.627 132.296 145.912 130.937 139.606C129.577 133.3 116.082 147.046 116.082 147.046L112.95 156.768Z" fill="#E2A789"/>
<path opacity="0.1" d="M94.1984 112.875H93.7643C93.7643 112.875 87.0358 104.847 85.7335 115.696C84.4313 126.544 80.0903 162.562 91.3768 163.864C102.663 165.165 110.694 158.439 110.694 158.439C110.694 158.439 118.942 145.855 115.903 145.855C114.433 145.855 110.434 145.195 106.787 145.421C102.896 145.662 99.4005 146.758 99.6246 145.638C100.059 143.468 106.353 115.913 94.1984 112.875Z" fill="black"/>
<path d="M93.5472 104.413L91.8108 103.545C91.8108 103.545 84.8653 104.847 83.563 115.696C82.2607 126.544 77.9198 162.562 89.2062 163.864C100.493 165.165 115.686 162.128 115.686 162.128C115.686 162.128 118.725 145.638 115.686 145.638C112.647 145.638 97.0199 147.808 97.454 145.638C97.8881 143.468 105.702 107.451 93.5472 104.413Z" fill="#575A89"/>
<path d="M146.724 153.232L151.51 145.898L154.537 158.006L146.724 161.477V153.232Z" fill="#575A89"/>
<path d="M48.3898 48.6512C54.8629 48.6512 60.1104 43.4055 60.1104 36.9346C60.1104 30.4638 54.8629 25.2181 48.3898 25.2181C41.9168 25.2181 36.6693 30.4638 36.6693 36.9346C36.6693 43.4055 41.9168 48.6512 48.3898 48.6512Z" fill="#F2F2F2"/>
<path d="M62.2808 124.158H34.4988V151.93H62.2808V124.158Z" fill="#F2F2F2"/>
<path d="M161.483 0L168.515 12.1752L175.546 24.3504H161.483H147.42L154.451 12.1752L161.483 0Z" fill="#F2F2F2"/>
</svg>
