<svg width="18" height="20" viewBox="0 0 18 20" fill="none" xmlns="http://www.w3.org/2000/svg">
<path d="M12.0833 18.4167V15.353C12.113 14.9755 12.062 14.596 11.9337 14.2397C11.8054 13.8835 11.6027 13.5586 11.3392 13.2867C13.825 13.0096 16.4375 12.0676 16.4375 7.74505C16.4373 6.63975 16.0121 5.57683 15.25 4.7763C15.6109 3.80929 15.5854 2.74041 15.1787 1.79172C15.1787 1.79172 14.2446 1.51464 12.0833 2.96339C10.2688 2.47162 8.35616 2.47162 6.54167 2.96339C4.38042 1.51464 3.44625 1.79172 3.44625 1.79172C3.03963 2.74041 3.01411 3.80929 3.375 4.7763C2.60718 5.58277 2.18158 6.65529 2.1875 7.7688C2.1875 12.0596 4.8 13.0017 7.28583 13.3105C7.02537 13.5796 6.8245 13.9006 6.69629 14.2525C6.56807 14.6044 6.51539 14.9794 6.54167 15.353V18.4167M6.54167 16.0417C2.58333 17.2292 2.58333 14.0626 1 13.6667L6.54167 16.0417Z" stroke="#40AAFF" stroke-width="2" stroke-linecap="round" stroke-linejoin="round"/>
</svg>
