<svg width="337" height="391" viewBox="0 0 337 391" fill="none" xmlns="http://www.w3.org/2000/svg">
<g clip-path="url(#clip0_1151_2513)">
<path d="M7.68004 109.771C11.8976 106.711 17.3258 113.455 14.373 117.654C11.3881 121.898 4.86258 120.695 2.61558 116.361C-0.251407 110.831 2.60362 104.254 7.22402 101.044C12.4726 97.3971 18.9052 97.192 24.9656 97.5337C31.0868 97.8788 37.0602 98.337 43.1584 97.4062C48.3204 96.6045 53.3642 95.104 58.1664 92.9413C68.04 88.5415 76.7098 81.5744 83.3757 72.6829C86.4862 68.4967 89.3931 63.7916 91.1736 58.7802C92.5451 54.9201 93.1949 49.8437 91.2515 46.0652C90.8289 45.2152 90.233 44.4756 89.5073 43.9003C88.7816 43.3249 87.9443 42.9282 87.056 42.7389C86.1677 42.5497 85.2509 42.5726 84.372 42.806C83.4932 43.0395 82.6743 43.4776 81.975 44.0886C78.7364 46.9032 77.8617 52.1295 80.3379 55.7713C82.995 59.6792 88.009 61.0187 92.3259 60.3072C98.3255 59.3183 103.184 54.8253 107.777 50.9571L141.793 22.3094C147.402 17.5855 152.954 12.7701 158.635 8.14436C163.255 4.38268 168.893 0.735293 174.911 2.74451C177.336 3.55443 179.781 5.47248 180.387 8.22814C180.614 9.48997 180.512 10.7935 180.091 11.9981C179.671 13.2028 178.948 14.2629 178.002 15.0641C177.57 15.4536 177.066 15.7435 176.522 15.9153C175.979 16.0872 175.407 16.1373 174.844 16.0624C174.282 15.9876 173.74 15.7894 173.253 15.4805C172.766 15.1716 172.345 14.7587 172.017 14.2681C170.749 12.3919 170.644 9.71705 171.375 7.59711C173.327 1.93154 180.489 1.33878 185.268 1.79956C190.908 2.40578 196.356 4.30777 201.232 7.37327C211.333 13.5967 218.803 23.7206 223.185 35.1016C228.04 47.7119 229.536 61.6659 229.337 75.2031C229.297 77.9641 229.117 81.0182 227.652 83.3988C226.217 85.7303 223.714 86.436 221.468 84.8768C220.737 84.369 219.797 83.3798 219.987 82.3364C220.227 81.0265 222.688 81.0164 223.674 81.0665C226.372 81.2037 228.922 82.6463 230.855 84.5912C235.447 89.2134 235.804 96.2857 235.205 102.574C234.548 109.478 232.672 116.344 233.417 123.332C234.638 134.782 243.494 141.144 252.192 146.408C256.647 149.103 261.199 151.68 265.205 155.11C269.288 158.618 272.862 162.745 275.813 167.357C281.645 176.456 285.082 187.042 285.772 198.02C286.119 203.506 285.71 209.016 284.559 214.376C283.415 219.619 281.612 226.229 276.863 229.045C275.732 229.732 274.429 230.034 273.13 229.91C271.832 229.786 270.6 229.243 269.602 228.354C267.678 226.716 266.737 223.808 268.725 221.761C270.372 220.066 273.008 220.423 274.995 221.112C277.387 221.942 279.249 223.491 281.032 225.321C284.432 228.809 288.411 233.091 293.583 231.977C294.539 231.771 294.134 230.22 293.18 230.426C286.937 231.771 283.172 224.073 278.568 221.11C275.235 218.964 269.541 217.369 266.936 221.553C264.125 226.069 268.645 230.941 272.845 231.522C278.307 232.278 282.093 226.614 283.926 221.938C288.179 211.095 288.311 198.38 285.71 187.089C283.109 175.623 277.487 165.178 269.5 156.973C265.469 152.897 260.847 149.773 256.025 146.864C251.158 143.928 246.086 141.111 241.921 137.081C239.615 134.923 237.779 132.258 236.544 129.27C235.308 126.283 234.701 123.045 234.766 119.783C234.811 112.271 237.088 104.98 236.946 97.4531C236.828 91.2122 234.829 85.1181 229.711 81.6045C227.602 80.0867 225.083 79.341 222.538 79.4807C221.503 79.571 220.049 79.7559 219.196 80.4435C218.509 80.9972 218.379 82.2933 218.517 83.1312C218.846 85.1214 220.621 86.5036 222.345 87.0576C223.392 87.4148 224.517 87.4292 225.573 87.0988C226.628 86.7683 227.565 86.1085 228.262 85.205C229.92 83.1746 230.495 80.4667 230.73 77.8593C231.048 74.3267 230.872 70.698 230.725 67.1596C230.129 52.7797 227.45 38.0556 220.405 25.5668C214.417 14.9508 205.103 6.04957 193.936 2.11154C188.674 0.255872 182.432 -0.856233 177.002 0.831463C172.33 2.28352 168.751 6.36205 169.522 11.7638C170.175 16.3364 174.641 19.4991 178.577 16.613C179.506 15.932 180.285 15.0464 180.862 14.0167C181.438 12.987 181.798 11.8375 181.918 10.6467C182.037 9.45586 181.913 8.25172 181.553 7.11652C181.193 5.98131 180.607 4.94178 179.834 4.06889C176.029 -0.157946 169.825 -0.127527 165.077 2.02058C162.218 3.31418 159.687 5.25236 157.245 7.26582C154.133 9.83238 151.065 12.4604 147.978 15.0605L110.787 46.382C107.851 48.8541 104.963 51.4165 101.93 53.7533C99.0991 55.9339 95.9763 57.9537 92.4917 58.6538C87.5849 59.6397 79.8174 57.0541 80.4125 50.4522C80.6436 47.8884 82.2445 45.0565 84.6915 44.3214C87.0902 43.6007 89.3547 45.2375 90.2464 47.5547C92.2123 52.6632 89.9037 58.5067 87.6075 62.9912C81.9221 74.0951 72.954 83.1379 62.4461 89.022C57.1864 91.974 51.5488 94.0962 45.7115 95.3216C39.1546 96.6882 32.7206 96.4207 26.0911 95.9942C19.6647 95.5807 12.9164 95.623 7.18851 99.1754C2.49179 102.088 -0.641389 107.371 0.11148 113.257C0.765261 118.369 4.63005 122.276 9.61461 121.844C13.7984 121.482 18.0019 117.692 16.5175 112.878C15.2883 108.892 10.5436 105.749 6.91466 108.382C6.11403 108.963 6.87169 110.357 7.67998 109.771H7.68004Z" fill="#3F3D56"/>
<path d="M329.023 225.902H292.284C291.71 225.902 291.16 226.144 290.754 226.575C290.348 227.006 290.12 227.589 290.12 228.198V252.461C290.12 253.07 290.348 253.654 290.754 254.085C291.16 254.515 291.71 254.757 292.284 254.758H329.023C329.597 254.757 330.147 254.515 330.553 254.085C330.959 253.654 331.187 253.07 331.188 252.461V228.198C331.187 227.589 330.959 227.006 330.553 226.575C330.147 226.144 329.597 225.902 329.023 225.902V225.902Z" fill="#F2F2F2"/>
<path d="M329.023 225.902H292.284C291.71 225.902 291.16 226.144 290.754 226.575C290.348 227.006 290.12 227.589 290.12 228.198V252.461C290.12 253.07 290.348 253.654 290.754 254.085C291.16 254.515 291.71 254.757 292.284 254.758H329.023C329.597 254.757 330.147 254.515 330.553 254.085C330.959 253.654 331.187 253.07 331.188 252.461V228.198C331.187 227.589 330.959 227.006 330.553 226.575C330.147 226.144 329.597 225.902 329.023 225.902V225.902ZM329.733 243.33C329.724 245.8 328.803 248.169 327.168 249.927C325.532 251.685 323.312 252.693 320.983 252.734C317.256 252.786 323.046 252.806 318.55 252.806C308.269 252.806 297.549 252.701 293.549 252.634C293.023 252.622 292.522 252.393 292.153 251.995C291.784 251.597 291.576 251.062 291.574 250.503V228.2C291.574 228 291.649 227.808 291.782 227.667C291.915 227.525 292.096 227.445 292.284 227.445H329.021C329.21 227.445 329.39 227.524 329.524 227.665C329.657 227.807 329.733 227.998 329.733 228.198L329.733 243.33Z" fill="#E6E6E6"/>
<path d="M324.5 211.93H296.51C296.262 211.93 296.02 212.012 295.818 212.163C295.616 212.315 295.462 212.529 295.379 212.776L291.056 225.642C290.991 225.834 290.971 226.039 290.997 226.241C291.023 226.443 291.094 226.636 291.205 226.802C291.316 226.969 291.462 227.105 291.633 227.199C291.803 227.293 291.993 227.342 292.185 227.343L329.725 227.413H329.727C329.926 227.413 330.121 227.361 330.296 227.261C330.471 227.161 330.62 227.017 330.729 226.841C330.838 226.665 330.905 226.463 330.923 226.253C330.94 226.043 330.909 225.832 330.83 225.638L330.765 225.668L330.83 225.638L325.604 212.702C325.511 212.473 325.358 212.277 325.161 212.14C324.965 212.003 324.735 211.93 324.5 211.93V211.93Z" fill="#E6E6E6"/>
<path d="M330.927 225.918C330.927 226.09 330.894 226.261 330.83 226.419L325.604 236.377C325.511 236.606 325.357 236.801 325.161 236.938C324.965 237.075 324.735 237.148 324.5 237.148H296.51C296.262 237.148 296.021 237.067 295.818 236.915C295.616 236.764 295.462 236.55 295.378 236.303L291.056 226.416C291.003 226.258 290.98 226.091 290.988 225.924C290.996 225.757 291.035 225.594 291.102 225.442C291.17 225.291 291.265 225.156 291.382 225.044C291.499 224.932 291.635 224.845 291.784 224.789C291.913 224.74 292.048 224.715 292.185 224.715L296.77 224.705L298.642 224.702L323.27 224.656L325.143 224.653L329.725 224.644H329.727C330.045 224.644 330.35 224.778 330.576 225.017C330.801 225.256 330.927 225.58 330.927 225.918V225.918Z" fill="#E6E6E6"/>
<path d="M295.039 244.102C295.594 244.102 303.216 244.596 303.216 245.185C303.216 245.774 295.594 246.234 295.039 246.234C294.772 246.234 294.517 246.122 294.328 245.922C294.14 245.722 294.034 245.451 294.034 245.168C294.034 244.885 294.14 244.614 294.328 244.414C294.517 244.214 294.772 244.102 295.039 244.102V244.102Z" fill="#E6E6E6"/>
<path d="M322.757 204.103H299.156C298.524 204.104 297.917 204.371 297.47 204.845C297.023 205.32 296.771 205.963 296.77 206.634V237.148H324.5C324.728 237.149 324.951 237.08 325.143 236.95V206.634C325.142 205.963 324.891 205.32 324.443 204.845C323.996 204.371 323.39 204.104 322.757 204.103V204.103Z" fill="#F2F2F2"/>
<path d="M313.749 206.155H300.815C300.239 206.156 299.687 206.399 299.279 206.831C298.872 207.262 298.643 207.848 298.642 208.459V237.148H323.27V216.255C323.267 213.577 322.263 211.01 320.478 209.117C318.693 207.223 316.273 206.158 313.749 206.155V206.155Z" fill="white"/>
<path d="M319.075 234.6H302.838C302.697 234.6 302.563 234.659 302.464 234.765C302.364 234.87 302.309 235.013 302.309 235.162C302.309 235.311 302.364 235.453 302.464 235.559C302.563 235.664 302.697 235.723 302.838 235.723H319.075C319.215 235.723 319.349 235.664 319.449 235.559C319.548 235.453 319.604 235.311 319.604 235.162C319.604 235.013 319.548 234.87 319.449 234.765C319.349 234.659 319.215 234.6 319.075 234.6Z" fill="#E4E4E4"/>
<path d="M319.074 232.38H302.838C302.697 232.38 302.562 232.439 302.463 232.545C302.364 232.65 302.308 232.793 302.308 232.942C302.308 233.091 302.364 233.234 302.463 233.339C302.562 233.445 302.697 233.504 302.838 233.504H319.074C319.144 233.504 319.213 233.489 319.277 233.461C319.341 233.433 319.4 233.391 319.449 233.339C319.498 233.287 319.537 233.225 319.564 233.157C319.59 233.089 319.604 233.016 319.604 232.942C319.604 232.868 319.59 232.795 319.564 232.727C319.537 232.659 319.498 232.597 319.449 232.545C319.4 232.492 319.341 232.451 319.277 232.423C319.213 232.395 319.144 232.38 319.074 232.38V232.38Z" fill="#E4E4E4"/>
<path d="M309.876 230.161H302.838C302.697 230.161 302.563 230.22 302.464 230.325C302.364 230.431 302.309 230.573 302.309 230.722C302.309 230.871 302.364 231.014 302.464 231.119C302.563 231.224 302.697 231.284 302.838 231.284H309.876C310.016 231.284 310.151 231.224 310.25 231.119C310.35 231.014 310.405 230.871 310.405 230.722C310.405 230.573 310.35 230.431 310.25 230.325C310.151 230.22 310.016 230.161 309.876 230.161Z" fill="#E4E4E4"/>
<path d="M319.074 225.512H302.838C302.698 225.512 302.563 225.572 302.464 225.677C302.365 225.782 302.31 225.925 302.31 226.074C302.31 226.223 302.365 226.365 302.464 226.471C302.563 226.576 302.698 226.635 302.838 226.636H319.074C319.144 226.636 319.213 226.622 319.278 226.594C319.342 226.565 319.401 226.524 319.45 226.472C319.499 226.42 319.539 226.358 319.565 226.289C319.592 226.221 319.606 226.148 319.606 226.074C319.606 226 319.592 225.927 319.565 225.858C319.539 225.79 319.499 225.728 319.45 225.676C319.401 225.624 319.342 225.582 319.278 225.554C319.213 225.526 319.144 225.512 319.074 225.512V225.512Z" fill="#E4E4E4"/>
<path d="M319.075 223.293H302.838C302.697 223.293 302.563 223.352 302.464 223.457C302.364 223.563 302.309 223.705 302.309 223.854C302.309 224.003 302.364 224.146 302.464 224.251C302.563 224.356 302.697 224.416 302.838 224.416H319.075C319.215 224.416 319.349 224.356 319.449 224.251C319.548 224.146 319.604 224.003 319.604 223.854C319.604 223.705 319.548 223.563 319.449 223.457C319.349 223.352 319.215 223.293 319.075 223.293V223.293Z" fill="#E4E4E4"/>
<path d="M309.876 221.073H302.838C302.697 221.073 302.562 221.132 302.463 221.237C302.364 221.342 302.308 221.485 302.308 221.634C302.308 221.783 302.364 221.926 302.463 222.032C302.562 222.137 302.697 222.196 302.838 222.196H309.876C310.017 222.196 310.151 222.137 310.251 222.032C310.35 221.926 310.406 221.783 310.406 221.634C310.406 221.485 310.35 221.342 310.251 221.237C310.151 221.132 310.017 221.073 309.876 221.073V221.073Z" fill="#E4E4E4"/>
<path d="M319.074 216.424H302.838C302.698 216.424 302.563 216.483 302.464 216.589C302.365 216.694 302.31 216.837 302.31 216.986C302.31 217.134 302.365 217.277 302.464 217.382C302.563 217.488 302.698 217.547 302.838 217.547H319.074C319.144 217.548 319.213 217.533 319.278 217.505C319.342 217.477 319.401 217.436 319.45 217.383C319.499 217.331 319.539 217.269 319.565 217.201C319.592 217.133 319.606 217.059 319.606 216.986C319.606 216.912 319.592 216.838 319.565 216.77C319.539 216.702 319.499 216.64 319.45 216.588C319.401 216.535 319.342 216.494 319.278 216.466C319.213 216.438 319.144 216.423 319.074 216.424V216.424Z" fill="#E4E4E4"/>
<path d="M319.074 214.204H302.838C302.698 214.205 302.563 214.264 302.464 214.37C302.365 214.475 302.31 214.618 302.31 214.766C302.31 214.915 302.365 215.058 302.464 215.163C302.563 215.268 302.698 215.328 302.838 215.328H319.074C319.144 215.329 319.213 215.314 319.278 215.286C319.342 215.258 319.401 215.217 319.45 215.164C319.499 215.112 319.539 215.05 319.565 214.982C319.592 214.914 319.606 214.84 319.606 214.766C319.606 214.692 319.592 214.619 319.565 214.551C319.539 214.483 319.499 214.421 319.45 214.368C319.401 214.316 319.342 214.275 319.278 214.247C319.213 214.219 319.144 214.204 319.074 214.204V214.204Z" fill="#E4E4E4"/>
<path d="M309.876 211.984H302.838C302.697 211.984 302.562 212.043 302.463 212.149C302.364 212.254 302.308 212.397 302.308 212.546C302.308 212.695 302.364 212.838 302.463 212.944C302.562 213.049 302.697 213.108 302.838 213.108H309.876C309.946 213.108 310.015 213.094 310.079 213.065C310.143 213.037 310.202 212.996 310.251 212.944C310.3 212.891 310.339 212.829 310.366 212.761C310.392 212.693 310.406 212.62 310.406 212.546C310.406 212.472 310.392 212.399 310.366 212.331C310.339 212.263 310.3 212.201 310.251 212.149C310.202 212.097 310.143 212.055 310.079 212.027C310.015 211.999 309.946 211.984 309.876 211.984V211.984Z" fill="#E4E4E4"/>
<path d="M135.016 106.765C143.669 106.765 150.684 99.324 150.684 90.1451C150.684 80.9663 143.669 73.5254 135.016 73.5254C126.363 73.5254 119.349 80.9663 119.349 90.1451C119.349 99.324 126.363 106.765 135.016 106.765Z" fill="#E2A789"/>
<path d="M152.901 80.629C151.253 77.9244 148.16 76.1219 145.162 76.6284C144.883 74.5987 144.084 72.6892 142.853 71.1076C141.622 69.5261 140.005 68.3333 138.179 67.6589C136.353 66.9846 134.387 66.8546 132.496 67.2832C130.605 67.7118 128.861 68.6825 127.454 70.0896C126.992 69.7441 126.453 69.5311 125.89 69.4713C125.327 69.4116 124.759 69.507 124.241 69.7484C123.209 70.2461 122.311 71.0105 121.63 71.9716C119.909 74.2474 118.803 76.9755 118.428 79.8654C118.054 82.7554 118.425 85.699 119.502 88.383C119.135 86.97 120.47 85.6407 121.819 85.3236C123.168 85.0066 124.583 85.3065 125.95 85.1001C127.703 84.8355 129.279 83.7567 131.035 83.5139C132.511 83.3099 133.995 83.7112 135.434 84.1135C136.872 84.5157 138.353 84.926 139.83 84.7398C141.308 84.5537 143.212 90.4944 143.186 94.6786C143.181 95.4715 143.335 96.4896 144.066 96.6578C144.965 96.865 145.487 95.5479 146.343 95.189C146.738 95.069 147.161 95.1163 147.523 95.3207C147.886 95.5252 148.159 95.8709 148.286 96.2851C148.394 96.7061 148.405 97.1484 148.32 97.5751C148.234 98.0019 148.053 98.4007 147.793 98.7384C147.267 99.408 146.642 99.983 145.943 100.441L146.295 100.752C146.882 101.574 148.099 101.61 148.944 101.101C149.753 100.52 150.407 99.7296 150.846 98.8042C152.41 96.0443 153.782 93.1036 154.334 89.9369C154.887 86.7702 154.549 83.3337 152.901 80.629Z" fill="#2F2E41"/>
<path d="M153.395 381.186L144.934 381.185L140.908 346.564L153.397 346.564L153.395 381.186Z" fill="#E2A789"/>
<path d="M153.693 390.549L127.672 390.548V390.199C127.673 387.35 128.74 384.617 130.639 382.603C132.538 380.588 135.114 379.456 137.8 379.456H137.801L142.554 375.631L151.422 379.457L153.693 379.457L153.693 390.549Z" fill="#2F2E41"/>
<path d="M168.653 365.338L162.015 370.903L138.616 346.392L148.413 338.177L168.653 365.338Z" fill="#E2A789"/>
<path d="M174.361 372.487L153.949 389.604L153.744 389.33C152.079 387.095 151.318 384.249 151.631 381.419C151.943 378.589 153.302 376.007 155.409 374.239L155.409 374.239L156.901 368.112L166.095 365.279L167.876 363.784L174.361 372.487Z" fill="#2F2E41"/>
<path d="M109.64 218.902L109.123 229.005L111.636 232.225L111.348 242.33L113.786 248.944L115.5 269.986L139.512 357.786L161.149 350.424L137.521 268.579L165.949 267.825L166.911 221.676L161.873 211.345L109.64 218.902Z" fill="#2F2E41"/>
<path d="M163.215 260.868L165.949 267.825L155.378 365.793L140.546 366.942L134.141 257.417L163.215 260.868Z" fill="#2F2E41"/>
<path d="M148.679 116.497L143.808 109.345L128.082 110.014L127.78 115.52L117.333 220.192L127.593 219.949L140.328 223.103L164.824 214.008L148.679 116.497Z" fill="#6C63FF"/>
<path d="M121.368 222.128H97.2489L103.541 175.014L106.093 155.916C106.093 155.916 104.287 142.268 103.412 135.137C103.331 134.375 103.455 133.606 103.771 132.917C104.057 132.271 104.43 131.674 104.879 131.143C107.813 127.554 114.411 124.442 118.549 122.74C120.68 121.868 122.161 121.366 122.161 121.366L127.779 115.522C135.845 126.211 121.368 222.128 121.368 222.128Z" fill="#3F3D56"/>
<path d="M145.624 112.605L153.275 117.257C153.275 117.257 175.936 121.205 178.139 130.233L169.798 156.941V213.074L149.577 221.676C149.577 221.676 132.135 130.99 145.624 112.605Z" fill="#3F3D56"/>
<path opacity="0.4" d="M137.879 255.149L134.141 301.082L140.506 354.54" fill="black"/>
<path d="M47.6227 169.581C48.2459 169.106 48.9598 168.781 49.714 168.631C50.4682 168.48 51.2444 168.506 51.988 168.708C52.7315 168.91 53.4243 169.282 54.0176 169.799C54.6108 170.315 55.09 170.964 55.4215 171.698L73.9598 169.474L69.5659 178.641L52.6352 179.348C51.4354 179.857 50.1013 179.881 48.8856 179.416C47.67 178.952 46.6572 178.03 46.0394 176.826C45.4215 175.622 45.2414 174.22 45.5332 172.884C45.825 171.549 46.5685 170.374 47.6227 169.581L47.6227 169.581Z" fill="#E2A789"/>
<path d="M125.43 129.441L130.735 132.803L101.024 177.203L64.7585 180.471L63.3145 169.488L90.0342 160.984L103.241 133.829L125.43 129.441Z" fill="#3F3D56"/>
<path d="M233.563 165.828C232.94 165.353 232.226 165.028 231.472 164.877C230.718 164.727 229.941 164.753 229.198 164.955C228.454 165.157 227.761 165.529 227.168 166.046C226.575 166.562 226.096 167.21 225.764 167.945L207.226 165.721L211.62 174.888L228.551 175.595C229.75 176.104 231.085 176.128 232.3 175.663C233.516 175.198 234.529 174.277 235.146 173.073C235.764 171.869 235.944 170.467 235.653 169.131C235.361 167.796 234.617 166.62 233.563 165.828V165.828Z" fill="#E2A789"/>
<path d="M155.756 125.688L150.451 129.049L180.162 173.45L216.428 176.718L217.871 165.735L191.152 157.231L177.945 130.076L155.756 125.688Z" fill="#3F3D56"/>
<path d="M83.5202 115.24V114.653H74.2467V100.964H73.695V114.653H63.0669V104.082C62.8811 104.237 62.6976 104.396 62.5165 104.56V114.653H55.4969C55.4189 114.847 55.3437 115.043 55.2728 115.24H62.5166V126.743H53.5225C53.531 126.94 53.5437 127.134 53.5594 127.33H62.5166V136.506H55.8061C55.8884 136.703 55.9749 136.897 56.0657 137.09H62.5165V144.804H63.0669V137.09H73.695V144.804H74.2467V137.09H83.5202V136.506H74.2467C74.2465 135.301 74.4701 134.108 74.9048 132.994C75.3394 131.881 75.9766 130.869 76.78 130.017C77.5833 129.165 78.5371 128.489 79.5867 128.028C80.6364 127.567 81.7614 127.329 82.8975 127.33H83.5202V126.743H74.2467V115.24H83.5202ZM73.695 136.506H63.0669V127.33H73.695V136.506ZM73.695 126.743H63.0669V126.513C63.067 125.032 63.342 123.566 63.8761 122.199C64.4103 120.831 65.1932 119.588 66.1801 118.541C67.167 117.495 68.3386 116.664 69.628 116.098C70.9174 115.531 72.2994 115.24 73.695 115.24V126.743Z" fill="#E6E6E6"/>
<path d="M164.091 34.0228C164.018 34.0544 163.937 34.0543 163.865 34.0225C163.792 33.9907 163.735 33.9298 163.705 33.8531L162.937 31.8847C162.907 31.8079 162.907 31.7217 162.937 31.645C162.967 31.5682 163.025 31.5072 163.097 31.4755C163.169 31.4437 163.251 31.4437 163.323 31.4755C163.395 31.5074 163.453 31.5684 163.483 31.6451L164.251 33.6135C164.281 33.6903 164.28 33.7765 164.25 33.8532C164.22 33.9299 164.163 33.9909 164.091 34.0228Z" fill="#3F3D56"/>
<path d="M179.579 19.4409L177.287 13.5655C177.113 13.119 176.858 12.7132 176.536 12.3714C176.214 12.0295 175.831 11.7583 175.41 11.5732C174.99 11.3881 174.538 11.2928 174.083 11.2926C173.627 11.2924 173.176 11.3875 172.755 11.5723V11.5723L161.021 16.7235C160.6 16.9083 160.217 17.1792 159.895 17.5208C159.573 17.8625 159.317 18.2681 159.142 18.7145C158.968 19.161 158.878 19.6395 158.878 20.1228C158.878 20.606 158.967 21.0846 159.142 21.5312V21.5312L171.716 53.7638C171.89 54.2103 172.146 54.6161 172.468 54.958C172.79 55.2998 173.172 55.571 173.593 55.7561C174.014 55.9412 174.465 56.0366 174.921 56.0367C175.376 56.0369 175.827 55.9419 176.248 55.7571V55.7571L187.983 50.6058C188.404 50.421 188.786 50.1501 189.109 49.8085C189.431 49.4669 189.686 49.0613 189.861 48.6148C190.035 48.1684 190.125 47.6899 190.126 47.2066C190.126 46.7233 190.036 46.2447 189.862 45.7982V45.7982L181.211 23.6231C181.238 23.6114 181.262 23.5943 181.282 23.5728C181.302 23.5512 181.318 23.5257 181.329 23.4975C181.34 23.4693 181.346 23.4392 181.346 23.4087C181.346 23.3782 181.34 23.348 181.329 23.3199L179.865 19.5666C179.854 19.5385 179.838 19.5129 179.818 19.4913C179.798 19.4697 179.773 19.4526 179.747 19.441C179.72 19.4293 179.692 19.4233 179.663 19.4233C179.634 19.4232 179.606 19.4292 179.579 19.4409V19.4409Z" fill="#3F3D56"/>
<path d="M176.614 13.8876L189.17 46.0739C189.431 46.7424 189.433 47.4932 189.175 48.1631C188.918 48.833 188.421 49.368 187.793 49.6517C187.785 49.6569 187.777 49.6614 187.768 49.6648L175.977 54.8411C175.342 55.1198 174.628 55.1195 173.993 54.8402C173.358 54.561 172.854 54.0257 172.591 53.352L160.034 21.1657C159.904 20.8322 159.838 20.4748 159.838 20.1138C159.838 19.7529 159.905 19.3956 160.036 19.0622C160.166 18.7288 160.357 18.426 160.598 18.171C160.839 17.9159 161.124 17.7137 161.439 17.5759L162.869 16.9481C162.87 17.1625 162.921 17.3733 163.016 17.5619C163.112 17.7506 163.251 17.9113 163.419 18.0299C163.587 18.1485 163.78 18.2214 163.982 18.2421C164.183 18.2627 164.386 18.2305 164.572 18.1484L171.295 15.1972C171.442 15.1327 171.575 15.0379 171.687 14.9183C171.802 14.798 171.893 14.6548 171.956 14.4968C172.019 14.3389 172.052 14.1693 172.053 13.9978C172.054 13.8264 172.023 13.6564 171.962 13.4976C171.901 13.3389 171.811 13.1945 171.697 13.0727L173.23 12.3996C173.865 12.1211 174.578 12.1214 175.213 12.4004C175.847 12.6795 176.351 13.2144 176.614 13.8876Z" fill="#6C63FF"/>
<path d="M162.781 30.665C162.708 30.6966 162.627 30.6965 162.555 30.6647C162.482 30.6329 162.425 30.572 162.395 30.4953L161.627 28.5269C161.597 28.4502 161.597 28.3639 161.627 28.2872C161.657 28.2104 161.715 28.1495 161.787 28.1177C161.859 28.0859 161.941 28.0859 162.013 28.1178C162.085 28.1496 162.143 28.2106 162.173 28.2874L162.941 30.2557C162.971 30.3325 162.97 30.4187 162.94 30.4954C162.91 30.5721 162.853 30.6331 162.781 30.665V30.665Z" fill="#3F3D56"/>
<path d="M161.236 26.868C161.163 26.8996 161.082 26.8995 161.01 26.8677C160.937 26.8359 160.88 26.775 160.85 26.6983L160.082 24.7299C160.067 24.6919 160.059 24.6511 160.059 24.6099C160.059 24.5686 160.067 24.5278 160.081 24.4897C160.096 24.4516 160.118 24.4169 160.145 24.3878C160.173 24.3586 160.206 24.3355 160.241 24.3197C160.277 24.3039 160.316 24.2959 160.355 24.2959C160.394 24.2959 160.432 24.3041 160.468 24.32C160.504 24.3358 160.536 24.359 160.564 24.3883C160.591 24.4175 160.613 24.4522 160.628 24.4904L161.396 26.4587C161.425 26.5355 161.425 26.6217 161.395 26.6984C161.365 26.7751 161.308 26.8361 161.236 26.868Z" fill="#3F3D56"/>
<path d="M165.558 16.1556C165.528 16.0788 165.528 15.9926 165.558 15.9159C165.588 15.8392 165.646 15.7782 165.718 15.7463L167.574 14.9318C167.646 14.9 167.727 14.9 167.8 14.9318C167.872 14.9637 167.93 15.0247 167.959 15.1014C167.989 15.1782 167.989 15.2645 167.959 15.3412C167.929 15.418 167.872 15.4789 167.799 15.5107L165.944 16.3253C165.872 16.3569 165.79 16.3568 165.718 16.325C165.646 16.2932 165.588 16.2323 165.558 16.1556V16.1556Z" fill="white"/>
<path d="M168.724 15.0793C168.887 15.0793 169.019 14.939 169.019 14.766C169.019 14.593 168.887 14.4528 168.724 14.4528C168.56 14.4528 168.428 14.593 168.428 14.766C168.428 14.939 168.56 15.0793 168.724 15.0793Z" fill="white"/>
<path d="M232.773 154.083C232.736 154.083 232.699 154.082 232.661 154.08C232.222 154.063 231.794 153.934 231.413 153.704C231.031 153.474 230.708 153.15 230.47 152.758C228.689 149.934 226.502 147.422 223.99 145.313C222.47 144.023 220.88 142.825 219.344 141.665C215.379 138.675 211.646 135.859 209.573 131.967C205.055 123.482 210.376 111.663 217.978 106.363C226.505 100.418 237.72 99.4857 248.57 99.3635C249.698 99.3508 250.826 99.3445 251.955 99.3446C271.504 99.3525 291.012 101.245 310.238 104.998C316.631 106.249 323.323 107.782 328.701 111.501C334.046 115.199 337.296 121.022 336.979 126.337C336.516 134.095 328.763 139.892 321.703 141.408C314.974 142.851 307.983 141.876 300.582 140.843C298.948 140.615 297.259 140.379 295.588 140.174C277.433 137.948 243.327 144.809 241.884 145.103L240.452 145.393L234.898 152.976C234.648 153.321 234.326 153.601 233.958 153.793C233.589 153.985 233.184 154.084 232.773 154.083V154.083Z" fill="#6C63FF"/>
<path d="M313.622 116.235H236.884C236.442 116.235 236.017 116.048 235.704 115.716C235.391 115.384 235.215 114.933 235.215 114.464C235.215 113.994 235.391 113.543 235.704 113.211C236.017 112.879 236.442 112.692 236.884 112.692H313.622C314.065 112.692 314.489 112.879 314.802 113.211C315.115 113.543 315.291 113.994 315.291 114.464C315.291 114.933 315.115 115.384 314.802 115.716C314.489 116.048 314.065 116.235 313.622 116.235V116.235Z" fill="white"/>
<path d="M313.622 127.106H236.884C236.442 127.106 236.018 126.919 235.705 126.588C235.392 126.256 235.216 125.806 235.215 125.337C235.215 124.867 235.39 124.417 235.702 124.085C236.015 123.752 236.439 123.565 236.881 123.564H313.622C314.064 123.565 314.488 123.751 314.8 124.084C315.113 124.416 315.288 124.866 315.288 125.335C315.288 125.804 315.113 126.254 314.8 126.586C314.488 126.918 314.064 127.105 313.622 127.106Z" fill="white"/>
<path d="M245.827 137.977H236.884C236.442 137.976 236.018 137.789 235.706 137.457C235.393 137.125 235.218 136.675 235.218 136.206C235.218 135.737 235.393 135.287 235.706 134.955C236.018 134.622 236.442 134.436 236.884 134.435H245.827C246.269 134.436 246.693 134.622 247.006 134.955C247.318 135.287 247.494 135.737 247.494 136.206C247.494 136.675 247.318 137.125 247.006 137.457C246.693 137.789 246.269 137.976 245.827 137.977V137.977Z" fill="white"/>
<path d="M233.721 166.43C238.203 166.43 241.837 162.576 241.837 157.821C241.837 153.066 238.203 149.212 233.721 149.212C229.238 149.212 225.605 153.066 225.605 157.821C225.605 162.576 229.238 166.43 233.721 166.43Z" fill="white"/>
<path d="M233.721 166.535C232.096 166.535 230.508 166.024 229.157 165.067C227.806 164.109 226.753 162.748 226.131 161.156C225.509 159.564 225.347 157.812 225.664 156.121C225.981 154.431 226.763 152.878 227.912 151.659C229.061 150.441 230.525 149.611 232.118 149.274C233.712 148.938 235.363 149.111 236.864 149.77C238.366 150.43 239.649 151.547 240.551 152.98C241.454 154.413 241.936 156.098 241.936 157.821C241.933 160.131 241.067 162.346 239.527 163.98C237.987 165.614 235.899 166.533 233.721 166.535V166.535Z" fill="#3F3D56"/>
<path d="M233.113 161.262C233.096 161.262 233.079 161.261 233.061 161.26C232.908 161.252 232.759 161.21 232.623 161.135C232.487 161.06 232.368 160.955 232.274 160.827L230.918 158.977C230.833 158.86 230.769 158.727 230.732 158.584C230.695 158.442 230.685 158.293 230.703 158.146C230.72 157.999 230.764 157.857 230.833 157.729C230.902 157.6 230.994 157.487 231.104 157.396L231.153 157.356C231.263 157.265 231.389 157.198 231.524 157.159C231.658 157.119 231.798 157.109 231.937 157.127C232.075 157.145 232.209 157.193 232.33 157.266C232.452 157.339 232.558 157.437 232.644 157.554C232.712 157.647 232.799 157.723 232.898 157.778C232.997 157.832 233.106 157.864 233.217 157.869C233.328 157.875 233.439 157.855 233.543 157.811C233.646 157.767 233.74 157.7 233.816 157.614L236.57 154.53C236.764 154.314 237.031 154.187 237.312 154.179C237.594 154.171 237.867 154.282 238.072 154.487L238.117 154.533C238.218 154.634 238.299 154.756 238.356 154.891C238.413 155.026 238.444 155.172 238.448 155.32C238.452 155.468 238.428 155.615 238.378 155.753C238.328 155.891 238.253 156.018 238.157 156.125L233.884 160.91C233.785 161.021 233.665 161.11 233.533 161.17C233.4 161.231 233.257 161.262 233.113 161.262Z" fill="white"/>
<path d="M82.1812 46.5353L77.216 14.8611C77.1162 14.2199 77.2602 13.5629 77.6165 13.0342C77.9728 12.5055 78.5122 12.1483 79.1164 12.041L101.667 8.06319C102.271 7.95731 102.891 8.1101 103.389 8.48804C103.888 8.86598 104.224 9.4382 104.325 10.0792L109.291 41.7534C109.391 42.3946 109.246 43.0516 108.89 43.5803C108.534 44.109 107.994 44.4662 107.39 44.5735L84.8398 48.5513C84.2353 48.6572 83.6159 48.5044 83.1175 48.1265C82.6191 47.7485 82.2824 47.1763 82.1812 46.5353Z" fill="#3F3D56"/>
<path d="M82.4112 36.6632L79.2191 16.3002C79.1257 15.6997 79.2605 15.0843 79.5942 14.5892C79.9279 14.0941 80.4331 13.7595 80.999 13.659L100.379 10.2404C100.945 10.1413 101.525 10.2843 101.992 10.6383C102.459 10.9922 102.774 11.5281 102.869 12.1284L107.288 40.3142C107.381 40.9147 107.246 41.53 106.912 42.0252C106.579 42.5203 106.073 42.8548 105.508 42.9553L93.5019 45.0731C90.9803 45.5148 88.3965 44.8774 86.3173 43.3008C84.2381 41.7242 82.8334 39.3371 82.4112 36.6632V36.6632Z" fill="white"/>
<path d="M83.2478 21.4283C83.1564 20.8415 83.2882 20.2402 83.6143 19.7563C83.9403 19.2725 84.434 18.9456 84.987 18.8474L98.431 16.4759C98.705 16.4276 98.9852 16.437 99.2558 16.5036C99.5263 16.5701 99.7818 16.6926 100.008 16.8639C100.234 17.0352 100.426 17.2521 100.573 17.5021C100.719 17.752 100.819 18.0303 100.864 18.3209C100.91 18.6115 100.901 18.9088 100.838 19.1958C100.775 19.4827 100.66 19.7538 100.498 19.9935C100.337 20.2331 100.132 20.4367 99.8968 20.5925C99.6611 20.7484 99.3988 20.8535 99.1248 20.9018L85.6808 23.2733C85.1276 23.3702 84.5608 23.2304 84.1047 22.8845C83.6485 22.5386 83.3404 22.0149 83.2478 21.4283V21.4283Z" fill="#6C63FF"/>
<path d="M84.327 28.313C84.2356 27.7262 84.3675 27.1249 84.6935 26.641C85.0196 26.1571 85.5133 25.8303 86.0663 25.7321L99.5103 23.3606C100.064 23.263 100.631 23.4026 101.087 23.7485C101.543 24.0945 101.851 24.6186 101.943 25.2056C102.035 25.7925 101.904 26.3941 101.578 26.8781C101.251 27.3621 100.757 27.6889 100.204 27.7865L86.76 30.1579C86.2069 30.2548 85.64 30.115 85.1839 29.7691C84.7277 29.4233 84.4196 28.8996 84.327 28.313Z" fill="#6C63FF"/>
<path d="M85.4062 35.1977C85.3149 34.6109 85.4467 34.0096 85.7727 33.5258C86.0988 33.0419 86.5925 32.715 87.1455 32.6168L100.589 30.2454C100.863 30.197 101.144 30.2064 101.414 30.273C101.685 30.3395 101.94 30.462 102.166 30.6333C102.392 30.8046 102.584 31.0215 102.731 31.2715C102.878 31.5215 102.977 31.7997 103.023 32.0903C103.068 32.3809 103.059 32.6782 102.996 32.9652C102.934 33.2522 102.818 33.5232 102.657 33.7629C102.495 34.0025 102.291 34.2061 102.055 34.362C101.82 34.5178 101.557 34.6229 101.283 34.6712L87.8393 37.0427C87.2861 37.1396 86.7192 36.9998 86.2631 36.6539C85.807 36.308 85.4988 35.7843 85.4062 35.1977V35.1977Z" fill="#6C63FF"/>
<path d="M200.003 368.665L200.36 360.14C204.086 358.028 208.242 356.912 212.467 356.889C206.652 361.932 207.379 371.653 203.436 378.434C202.192 380.54 200.516 382.32 198.534 383.645C196.552 384.97 194.315 385.805 191.988 386.088L187.122 389.248C186.454 385.3 186.601 381.245 187.553 377.362C188.505 373.48 190.239 369.863 192.636 366.76C193.997 365.033 195.557 363.495 197.28 362.182C198.446 365.442 200.003 368.665 200.003 368.665Z" fill="#F2F2F2"/>
<path d="M264.519 390.167C264.519 390.277 264.499 390.385 264.459 390.486C264.42 390.588 264.362 390.679 264.289 390.757C264.216 390.834 264.13 390.896 264.034 390.937C263.939 390.979 263.837 391 263.734 391H52.4326C52.2244 391 52.0248 390.912 51.8775 390.756C51.7303 390.6 51.6476 390.388 51.6476 390.167C51.6476 389.946 51.7303 389.735 51.8775 389.578C52.0248 389.422 52.2244 389.334 52.4326 389.334H263.734C263.837 389.334 263.939 389.355 264.034 389.397C264.13 389.439 264.216 389.5 264.289 389.578C264.362 389.655 264.42 389.747 264.459 389.848C264.499 389.949 264.519 390.058 264.519 390.167Z" fill="#CCCCCC"/>
<path d="M52.9418 165.291C49.1943 165.212 29.0648 164.599 25.7638 164.749C25.5771 164.056 19.3195 172.563 19.1673 172.615C19.0659 172.729 18.9919 172.867 18.9516 173.017C18.9113 173.168 18.906 173.327 18.936 173.48C18.9661 173.633 19.0306 173.776 19.1241 173.897C19.2176 174.018 19.3373 174.113 19.473 174.174C19.8409 174.411 52.2923 173.775 52.6855 173.858C52.8556 173.855 53.0215 173.801 53.164 173.703C53.3065 173.604 53.4199 173.465 53.4911 173.301L53.708 172.786C53.7305 171.904 54.0026 167.398 53.7584 166.628C53.8183 166.483 53.8434 166.325 53.8315 166.168C53.8196 166.01 53.7709 165.858 53.69 165.726C53.609 165.593 53.4982 165.484 53.3677 165.408C53.2371 165.332 53.0907 165.292 52.9418 165.291V165.291Z" fill="#3F3D56"/>
<path opacity="0.17" d="M53.708 172.785C53.5175 173.27 53.2739 173.88 52.6855 173.858L19.8157 174.249C19.6602 174.247 19.5078 174.203 19.3731 174.121C19.2384 174.038 19.126 173.921 19.0465 173.779C18.9671 173.637 18.9233 173.476 18.9195 173.311C18.9156 173.146 18.9518 172.983 19.0245 172.838L53.708 172.785Z" fill="black"/>
<path d="M25.9175 164.645C25.5637 163.996 16.776 117.871 16.0425 117.485L10.0428 109.7L9.50651 109.272C8.76081 108.837 6.97204 109.131 7.13313 110.339C8.54266 117.508 17.6088 158.336 17.8074 164.701L18.8988 172.81C18.9182 172.948 18.9648 173.08 19.0353 173.198C19.1059 173.316 19.1989 173.417 19.3084 173.494C19.4179 173.571 19.5415 173.623 19.6711 173.647C19.8008 173.67 19.9336 173.665 20.0611 173.631C20.374 173.595 20.6726 173.473 20.9276 173.278C21.1826 173.082 21.3853 172.82 21.5155 172.516C21.5973 172.23 26.3284 164.811 25.9175 164.645Z" fill="#3F3D56"/>
<path opacity="0.17" d="M10.0412 109.7L21.5165 172.517C21.1328 173.548 19.3371 174.27 18.9188 172.918C18.9115 172.916 7.14644 110.378 7.13448 110.341C7.00913 108.835 9.35361 108.788 10.0412 109.7Z" fill="black"/>
<path d="M10.3868 112.269L16.2151 120.886L22.7566 153.841L19.7153 156.655L10.3868 112.269Z" fill="#6C63FF"/>
<path d="M49.1799 169.734L50.7923 169.804C50.8175 169.303 50.8955 168.807 51.0248 168.324C51.2674 167.102 51.4848 165.649 50.4789 165.654C49.7966 165.584 49.5641 166.501 49.4428 167.499C49.4115 168.25 49.3236 168.998 49.1799 169.734V169.734Z" fill="#2F2E41"/>
<path d="M39.9303 167.434L41.017 167.477L41.5427 167.499C41.5326 166.887 41.8004 165.627 41.1484 165.316C41.0447 165.269 40.9328 165.245 40.8199 165.247C40.2083 165.209 40.0263 165.702 39.9707 166.271C39.9353 166.614 39.9505 166.978 39.9404 167.263C39.9404 167.322 39.9354 167.381 39.9303 167.434Z" fill="#2F2E41"/>
<path d="M36.7106 167.295L37.8023 167.343L38.3229 167.364C38.3128 166.662 38.6616 165.129 37.6001 165.107C36.6196 165.048 36.7459 166.373 36.7206 167.123C36.7207 167.182 36.7156 167.241 36.7106 167.295Z" fill="#2F2E41"/>
<path d="M33.491 167.161L34.5777 167.204L35.1033 167.225C35.0932 166.528 35.442 164.995 34.3805 164.973C33.4 164.909 33.5263 166.233 33.5011 166.989C33.501 167.048 33.496 167.107 33.491 167.161Z" fill="#2F2E41"/>
<path d="M30.2712 167.021L31.363 167.07L31.8836 167.091C31.8735 166.389 32.2222 164.861 31.1608 164.834C30.1802 164.775 30.3066 166.099 30.2813 166.85C30.2814 166.909 30.2763 166.968 30.2712 167.021Z" fill="#2F2E41"/>
<path d="M27.0515 166.887L28.1382 166.93L28.6639 166.952C28.6538 166.308 28.9469 164.963 28.1685 164.732H28.1635C28.0913 164.709 28.0163 164.698 27.9411 164.7C27.8493 164.691 27.7569 164.7 27.6682 164.727H27.6631C26.9858 164.914 27.0818 166.04 27.0616 166.716C27.0616 166.775 27.0566 166.834 27.0515 166.887Z" fill="#2F2E41"/>
<path d="M45.9299 166.523L47.5423 166.592C47.5423 166.528 47.5423 166.458 47.5473 166.378C47.5873 165.97 47.594 165.559 47.5676 165.15C47.512 164.7 47.33 164.346 46.8195 164.335C46.2989 164.303 46.0917 164.657 46.0108 165.113C45.992 165.19 45.9785 165.269 45.9704 165.349V165.354C45.9299 165.772 45.9552 166.222 45.9299 166.523Z" fill="#2F2E41"/>
<path d="M42.7102 166.383L44.3226 166.453C44.3568 165.993 44.3669 165.531 44.3529 165.07C44.3074 164.598 44.1305 164.212 43.5998 164.201C43.064 164.164 42.8568 164.55 42.7759 165.027C42.7001 165.488 42.7405 166.04 42.7102 166.383Z" fill="#2F2E41"/>
<path d="M39.4906 166.249L39.9708 166.271L41.103 166.319C41.0979 166.062 41.1434 165.686 41.1484 165.316C41.1527 165.206 41.1494 165.094 41.1383 164.984C41.0979 164.485 40.9311 164.073 40.3802 164.062C39.8191 164.03 39.622 164.442 39.5513 164.946C39.4805 165.397 39.5209 165.917 39.4906 166.249Z" fill="#2F2E41"/>
<path d="M45.9602 169.6L47.5726 169.665C47.5675 168.968 47.9112 167.434 46.8498 167.413C45.7883 167.343 46.0209 168.898 45.9602 169.6Z" fill="#2F2E41"/>
<path d="M42.7406 169.461L44.353 169.531C44.3479 168.828 44.6916 167.295 43.6302 167.273C42.5687 167.209 42.8012 168.764 42.7406 169.461Z" fill="#2F2E41"/>
<path d="M39.5209 169.327L41.1332 169.391C41.1282 168.893 41.3051 167.97 41.017 167.477C40.9541 167.368 40.8645 167.279 40.7577 167.219C40.6509 167.16 40.5309 167.132 40.4104 167.139C40.245 167.121 40.0786 167.164 39.9404 167.263C39.4248 167.622 39.5714 168.759 39.5209 169.327Z" fill="#2F2E41"/>
<path d="M36.3013 169.187L37.9136 169.257C37.9086 168.759 38.0804 167.842 37.8024 167.343C37.7397 167.232 37.6495 167.142 37.5417 167.081C37.4339 167.021 37.3126 166.993 37.1909 167C37.0253 166.981 36.8587 167.024 36.7208 167.123C36.2052 167.493 36.3518 168.625 36.3013 169.187Z" fill="#2F2E41"/>
<path d="M33.0815 169.053L34.6939 169.118C34.6889 168.619 34.8658 167.697 34.5777 167.204C34.5148 167.094 34.4252 167.005 34.3184 166.946C34.2116 166.886 34.0916 166.859 33.9711 166.866C33.8056 166.847 33.6393 166.891 33.5011 166.989C32.9855 167.348 33.1321 168.485 33.0815 169.053Z" fill="#2F2E41"/>
<path d="M29.8618 168.914L31.4742 168.984C31.4691 168.485 31.641 167.568 31.363 167.07C31.3007 166.958 31.2106 166.867 31.1027 166.807C30.9948 166.746 30.8732 166.718 30.7514 166.727C30.5859 166.707 30.4193 166.751 30.2813 166.85C29.7658 167.22 29.9124 168.351 29.8618 168.914Z" fill="#2F2E41"/>
<path d="M26.6422 168.78L28.2546 168.844C28.2495 168.346 28.4214 167.429 28.1383 166.93C28.0759 166.821 27.9864 166.731 27.8795 166.672C27.7726 166.612 27.6523 166.585 27.5318 166.592C27.3663 166.574 27.2 166.617 27.0617 166.716C26.5462 167.08 26.6928 168.212 26.6422 168.78Z" fill="#2F2E41"/>
</g>
<defs>
<clipPath id="clip0_1151_2513">
<rect width="337" height="391" fill="white"/>
</clipPath>
</defs>
</svg>
