<svg width="324" height="303" viewBox="0 0 324 303" fill="none" xmlns="http://www.w3.org/2000/svg">
<g clip-path="url(#clip0_1151_2805)">
<path d="M235.226 171.94V255.642L249.323 278.459L250.396 280.195H306.02L307.144 171.94H235.226Z" fill="#E6E6E6"/>
<path opacity="0.1" d="M235.226 171.94V255.642L249.323 278.459L250.188 171.94H235.226Z" fill="black"/>
<path d="M100.94 169.708V253.41L86.8427 276.227L85.7698 277.962H30.1454L29.0215 169.708H100.94Z" fill="#E6E6E6"/>
<path opacity="0.1" d="M100.94 169.708V253.41L86.8428 276.227L85.9777 169.708H100.94Z" fill="black"/>
<path d="M324 168.034V173.056H21.7173V165.802L49.8104 151.294H299.278L324 168.034Z" fill="#E6E6E6"/>
<path opacity="0.1" d="M324 168.034V173.056H21.7173V165.802L324 168.034Z" fill="black"/>
<path d="M64.9811 193.145H51.4961L45.8774 189.239H71.1614L64.9811 193.145Z" fill="#3F3D56"/>
<path d="M64.9811 209.327H51.4961L45.8774 205.421H71.1614L64.9811 209.327Z" fill="#3F3D56"/>
<path d="M64.9811 232.206H51.4961L45.8774 228.299H71.1614L64.9811 232.206Z" fill="#3F3D56"/>
<path d="M64.9811 255.084H51.4961L45.8774 251.178H71.1614L64.9811 255.084Z" fill="#3F3D56"/>
<path d="M271.185 195.376H284.67L290.288 191.47H265.004L271.185 195.376Z" fill="#3F3D56"/>
<path d="M271.185 211.559H284.67L290.288 207.653H265.004L271.185 211.559Z" fill="#3F3D56"/>
<path d="M271.185 234.438H284.67L290.288 230.532H265.004L271.185 234.438Z" fill="#3F3D56"/>
<path d="M271.185 257.316H284.67L290.288 253.41H265.004L271.185 257.316Z" fill="#3F3D56"/>
<path d="M280.368 54.5008H166.845C166.281 54.5007 165.723 54.611 165.202 54.8252C164.681 55.0395 164.208 55.3535 163.809 55.7495C163.41 56.1454 163.094 56.6155 162.878 57.1329C162.662 57.6502 162.551 58.2047 162.552 58.7647V134.712C162.551 135.272 162.662 135.827 162.878 136.344C163.094 136.862 163.41 137.332 163.809 137.728C164.208 138.124 164.681 138.438 165.202 138.652C165.723 138.866 166.281 138.976 166.845 138.976H209.939L208.325 149.214C208.325 149.214 199.098 154.082 205.585 154.225C212.073 154.368 242.636 154.225 242.636 154.225C242.636 154.225 248.547 154.225 239.176 149.07L237.658 138.976H280.368C280.931 138.976 281.49 138.866 282.011 138.652C282.532 138.438 283.005 138.124 283.404 137.728C283.802 137.332 284.119 136.862 284.334 136.344C284.55 135.827 284.661 135.272 284.661 134.712V58.7647C284.661 58.2047 284.55 57.6502 284.334 57.1329C284.119 56.6155 283.802 56.1454 283.404 55.7495C283.005 55.3535 282.532 55.0395 282.011 54.8252C281.49 54.611 280.931 54.5007 280.368 54.5008V54.5008Z" fill="#3F3D56"/>
<path d="M280.552 59.0109H166.66V122.296H280.552V59.0109Z" fill="#F2F2F2"/>
<path d="M223.606 57.7223C224.004 57.7223 224.327 57.4018 224.327 57.0064C224.327 56.611 224.004 56.2905 223.606 56.2905C223.208 56.2905 222.885 56.611 222.885 57.0064C222.885 57.4018 223.208 57.7223 223.606 57.7223Z" fill="#F2F2F2"/>
<path d="M223.606 135.898C225.119 135.898 226.345 134.68 226.345 133.178C226.345 131.675 225.119 130.457 223.606 130.457C222.093 130.457 220.867 131.675 220.867 133.178C220.867 134.68 222.093 135.898 223.606 135.898Z" fill="#F2F2F2"/>
<path d="M219.338 161.956V163.388H141.776V162.243L141.883 161.956L143.794 156.802H217.752L219.338 161.956Z" fill="#3F3D56"/>
<path d="M249.186 160.555C249.045 161.155 248.511 161.788 247.306 162.386C242.981 164.534 234.187 161.813 234.187 161.813C234.187 161.813 227.411 160.668 227.411 157.661C227.601 157.532 227.8 157.415 228.005 157.31C229.823 156.355 235.853 153.997 246.543 157.41C247.33 157.656 248.034 158.114 248.575 158.733C248.814 158.967 248.995 159.254 249.101 159.571C249.207 159.887 249.237 160.225 249.186 160.555Z" fill="#3F3D56"/>
<path opacity="0.1" d="M249.186 160.555C243.892 162.569 239.174 162.72 234.331 159.379C232.5 158.035 230.282 157.309 228.005 157.31C229.823 156.355 235.853 153.997 246.543 157.41C247.33 157.656 248.034 158.114 248.575 158.733C248.814 158.967 248.995 159.254 249.101 159.571C249.207 159.887 249.237 160.225 249.186 160.555Z" fill="black"/>
<path d="M242.549 159.379C243.584 159.379 244.423 159.123 244.423 158.807C244.423 158.49 243.584 158.234 242.549 158.234C241.514 158.234 240.674 158.49 240.674 158.807C240.674 159.123 241.514 159.379 242.549 159.379Z" fill="#F2F2F2"/>
<path opacity="0.1" d="M219.338 161.956V163.389H141.776V162.243L141.883 161.956H219.338Z" fill="black"/>
<path d="M43.1255 4.25057e-05C42.3383 -0.0641443 41.5501 0.110731 40.8653 0.501496C40.1928 0.958836 39.769 1.76005 39.3364 2.50562C37.6823 5.39029 35.4431 7.90236 32.7605 9.88271C30.8065 11.3043 28.3224 13.0769 28.6567 15.6979C28.8331 16.5635 29.155 17.3934 29.6091 18.1527C31.4116 21.7665 36.3305 24.5591 35.8467 28.6827C37.6375 25.7052 35.2421 24.2328 37.033 21.2553C37.8858 19.8373 39.3674 18.2367 40.655 19.1272C41.0862 19.4253 41.3693 19.9601 41.8182 20.2217C42.8894 20.846 44.0289 19.6526 44.9771 18.8072C48.2467 15.8922 52.8964 16.6559 56.9651 17.5641C58.8859 17.9929 60.9957 18.5555 62.1312 20.3787C63.6241 22.7759 60.7128 25.3649 59.9772 28.0752C59.9171 28.3061 59.9143 28.5481 59.9689 28.7803C60.0235 29.0126 60.134 29.2283 60.2908 29.4089C60.4477 29.5895 60.6462 29.7297 60.8695 29.8175C61.0928 29.9053 61.3342 29.9381 61.573 29.9131C62.7939 29.7935 64.2401 29.6955 64.3123 29.1634C65.8483 29.2177 67.7303 29.0449 68.3885 27.4565C68.5896 26.8281 68.6959 26.1735 68.704 25.5141C68.9455 22.8459 70.0858 20.4117 70.8412 17.8722C71.5966 15.3327 71.925 12.3565 70.6502 10.105C70.1953 9.35586 69.6326 8.67672 68.9801 8.08905C61.746 1.13632 52.2347 -0.010278 43.1255 4.25057e-05Z" fill="#2F2E41"/>
<path d="M37.42 33.8911C37.42 33.8911 38.9933 46.912 33.2245 47.9537C27.4558 48.9953 38.4688 66.7037 38.4688 66.7037L64.6903 69.8287L58.3972 48.9953C58.3972 48.9953 54.2017 47.4328 56.8239 37.0161C59.446 26.5994 37.42 33.8911 37.42 33.8911Z" fill="#E2A789"/>
<path d="M21.4248 257.59L23.5227 286.236H34.5354L31.3892 257.59H21.4248Z" fill="#E2A789"/>
<path d="M102.187 203.423L103.76 227.381L115.822 222.173L111.102 202.381L102.187 203.423Z" fill="#E2A789"/>
<path d="M13.5583 148.214C13.5583 148.214 14.0828 178.423 17.2294 188.319C20.376 198.215 19.8515 198.735 19.3271 200.298C18.8027 201.86 18.2782 200.819 18.2782 203.423C18.2782 206.027 17.2294 247.173 18.2782 250.819C19.3271 254.465 15.1317 260.715 18.2782 261.236C21.4248 261.757 36.1088 261.236 36.6333 258.111C37.1577 254.986 32.4378 253.944 34.5356 251.861C36.6333 249.777 39.7799 207.069 39.7799 207.069L47.1219 177.381L60.757 161.756H89.6007L98.516 196.131C98.516 196.131 94.8449 206.027 97.4671 206.027C100.089 206.027 115.822 209.152 115.822 197.694C115.822 186.235 110.578 152.381 109.529 151.339C108.48 150.298 110.053 146.652 108.48 145.089C106.907 143.527 88.5518 132.589 81.7342 130.506C74.9166 128.423 65.3527 125.943 65.3527 125.943L13.5583 148.214Z" fill="#2F2E41"/>
<path d="M115.822 218.006C115.822 218.006 107.956 215.402 104.285 223.215C100.614 231.027 102.187 233.111 102.187 233.111C102.187 233.111 114.249 237.277 116.347 235.194C117.259 234.287 120.157 233.973 123.141 233.906C127.684 233.805 128.893 227.421 124.602 225.934C124.474 225.89 124.344 225.852 124.213 225.819C120.018 224.777 115.822 218.006 115.822 218.006Z" fill="#2F2E41"/>
<path d="M49.2196 42.4849C57.9086 42.4849 64.9525 35.4893 64.9525 26.8598C64.9525 18.2303 57.9086 11.2347 49.2196 11.2347C40.5306 11.2347 33.4867 18.2303 33.4867 26.8598C33.4867 35.4893 40.5306 42.4849 49.2196 42.4849Z" fill="#E2A789"/>
<path d="M28.7669 54.4641C28.7669 54.4641 54.4639 59.6724 60.7571 51.3391C67.0503 43.0057 69.6724 74.7766 69.6724 74.7766L72.819 108.11L68.0991 126.339C68.0991 126.339 43.4509 146.131 35.5845 147.694C27.718 149.256 15.6561 150.298 15.6561 150.298C15.6561 150.298 19.3272 92.485 19.3272 91.4434C19.3272 90.4017 28.7669 54.4641 28.7669 54.4641Z" fill="#6C63FF"/>
<path d="M36.5819 44.696C36.5819 44.696 30.8646 41.4432 29.2913 44.5682C27.718 47.6932 13.034 55.5057 11.4607 55.5057C9.88738 55.5057 14.6073 98.735 12.5095 103.943C10.4118 109.152 0.44765 147.173 6.21638 150.298C11.9851 153.423 7.78967 147.173 13.5584 154.985C19.3271 162.798 47.6463 162.798 49.2196 159.673C50.7929 156.548 36.6333 133.11 39.2555 111.235C41.8776 89.36 46.073 59.1516 42.402 54.9849C38.731 50.8182 36.5819 44.696 36.5819 44.696Z" fill="#2F2E41"/>
<path d="M55.5128 48.214L56.2433 45.7174C56.2433 45.7174 78.0633 52.9016 79.1122 57.5891C80.161 62.2766 79.6366 95.0892 75.9656 97.6934C72.2946 100.298 67.0503 104.464 70.7213 110.714C74.3923 116.964 78.5877 123.735 81.7343 124.256C84.8809 124.777 90.6496 128.423 89.0763 132.068C87.503 135.714 68.6236 128.943 68.6236 128.943C68.6236 128.943 56.0372 119.568 56.5617 104.985C57.0861 90.4017 55.5128 48.214 55.5128 48.214Z" fill="#2F2E41"/>
<path d="M73.8678 109.673L61.2815 133.11C61.2815 133.11 42.9265 151.86 53.4151 153.944C63.9037 156.027 69.6724 136.756 69.6724 136.756L83.3076 117.485L73.8678 109.673Z" fill="#E2A789"/>
<path d="M43.8919 4.08831C43.2577 4.04164 42.6225 4.164 42.0519 4.44274C41.536 4.81694 41.1108 5.3009 40.8074 5.85924C39.4086 7.94892 37.5852 9.72496 35.4543 11.0733C33.8637 12.0781 31.8415 13.3309 32.1137 15.1835C32.2614 15.8046 32.5243 16.393 32.889 16.9185C34.3614 19.4985 34.9475 22.4846 34.5588 25.4249L38.9323 19.1114C39.6266 18.1092 40.8326 16.9779 41.8808 17.6073C42.2318 17.818 42.4623 18.196 42.8277 18.3809C43.6997 18.8221 44.6273 17.9786 45.3992 17.3811C48.0608 15.3208 51.8458 15.8606 55.1579 16.5025C56.7215 16.8056 58.439 17.2032 59.3633 18.4918C60.8994 20.6333 59.2954 23.7277 60.1919 26.2016C60.4429 26.0271 60.656 25.8044 60.8186 25.5466C60.9813 25.2888 61.0902 25.0012 61.1388 24.7008C62.3892 24.7392 63.9213 24.6171 64.457 23.4944C64.6199 23.0544 64.7068 22.5902 64.7138 22.1214C64.9105 20.2356 65.8387 18.5151 66.4536 16.7202C67.0685 14.9253 67.3359 12.8218 66.2982 11.2304C65.9185 10.6912 65.4603 10.211 64.9386 9.80555C59.0497 4.89141 51.3072 4.08102 43.8919 4.08831Z" fill="#2F2E41"/>
<path d="M73.8678 55.5057L78.754 56.7938C78.754 56.7938 90.1251 85.7142 87.503 105.506C84.8808 125.298 83.3075 121.131 83.3075 121.131C83.3075 121.131 79.1121 111.756 69.6724 113.839L73.8678 55.5057Z" fill="#2F2E41"/>
<path d="M22.1514 282.45C20.8868 284.157 21.1403 286.596 20.0201 288.4C19.0491 289.963 17.2191 290.783 16.0045 292.168C15.6169 292.629 15.2714 293.122 14.9721 293.643C13.8454 295.518 12.9296 297.92 14.0392 299.804C14.9319 301.32 16.8082 301.912 18.5289 302.316C20.7039 302.826 22.9637 303.235 25.1637 302.845C27.3638 302.455 29.514 301.117 30.2984 299.039C30.4526 298.516 30.6358 298.002 30.8474 297.5C32.0398 295.169 35.7801 295.143 37.0005 292.826C37.8546 291.205 37.0695 289.244 36.2847 287.589L33.8879 282.532C33.0925 280.853 29.8681 281.818 28.1871 281.416C25.9948 280.892 23.7286 280.314 22.1514 282.45Z" fill="#2F2E41"/>
<path d="M4.64307 120.089L26.6691 153.944C26.6691 153.944 40.3043 171.131 44.4997 163.319C48.6952 155.506 29.8157 142.485 29.8157 142.485L15.6561 116.443L4.64307 120.089Z" fill="#E2A789"/>
<path d="M15.6561 56.5474L11.4607 55.5057C11.4607 55.5057 3.06979 58.1099 0.972073 69.0474C-1.12564 79.985 0.447641 123.735 3.06979 124.256C5.69194 124.777 16.0206 116.638 17.6738 118.364C19.3271 120.089 14.0828 111.235 15.6561 106.548C17.2294 101.86 15.6561 56.5474 15.6561 56.5474Z" fill="#2F2E41"/>
<path d="M212.826 79.7959H199.272V83.0366H212.826V79.7959Z" fill="#6C63FF"/>
<path d="M259.765 79.7959H254.996V83.0366H259.765V79.7959Z" fill="#6C63FF"/>
<path d="M269.303 79.7959H264.534V83.0366H269.303V79.7959Z" fill="#6C63FF"/>
<path d="M249.976 79.7959H217.596V83.0366H249.976V79.7959Z" fill="#6C63FF"/>
<path d="M195.758 100.736H182.203V103.977H195.758V100.736Z" fill="#6C63FF"/>
<path d="M242.696 100.736H237.927V103.977H242.696V100.736Z" fill="#6C63FF"/>
<path d="M252.235 100.736H247.466V103.977H252.235V100.736Z" fill="#6C63FF"/>
<path d="M232.907 100.736H200.527V103.977H232.907V100.736Z" fill="#6C63FF"/>
<path d="M251.733 87.0253H238.178V90.266H251.733V87.0253Z" fill="#6C63FF"/>
<path d="M270.056 87.0253H256.502V90.266H270.056V87.0253Z" fill="#6C63FF"/>
<path d="M186.973 87.0253H182.203V90.266H186.973V87.0253Z" fill="#6C63FF"/>
<path d="M196.511 87.0253H191.742V90.266H196.511V87.0253Z" fill="#6C63FF"/>
<path d="M233.66 87.0253H201.28V90.266H233.66V87.0253Z" fill="#6C63FF"/>
<path d="M223.62 94.0053H210.065V97.246H223.62V94.0053Z" fill="#6C63FF"/>
<path d="M205.296 94.0053H191.742V97.246H205.296V94.0053Z" fill="#6C63FF"/>
<path d="M186.973 94.0053H182.203V97.246H186.973V94.0053Z" fill="#6C63FF"/>
<path d="M270.056 94.0053H265.287V97.246H270.056V94.0053Z" fill="#6C63FF"/>
<path d="M260.518 94.0053H228.138V97.246H260.518V94.0053Z" fill="#6C63FF"/>
</g>
<defs>
<clipPath id="clip0_1151_2805">
<rect width="324" height="303" fill="white"/>
</clipPath>
</defs>
</svg>
