<svg width="325" height="259" viewBox="0 0 325 259" fill="none" xmlns="http://www.w3.org/2000/svg">
<g clip-path="url(#clip0)">
<path opacity="0.18" d="M126.459 18.8954C117.291 27.4286 110.495 38.3974 100.752 46.2459C84.279 59.542 61.9204 62.1856 42.5475 70.6495C29.7329 76.2487 17.5828 85.12 11.9133 97.9523C7.33548 108.353 7.91365 120.614 12.6727 130.889C14.9466 135.816 15.957 141.235 15.6118 146.654C15.2667 152.073 13.5769 157.319 10.6966 161.915C3.64212 173.139 -0.612141 185.963 0.0738912 199.133C1.1353 219.389 16.4481 239.372 36.5587 241.236C43.4622 241.877 50.4002 240.469 57.2346 239.212C98.5131 231.628 142.203 229.678 181.467 244.53C192.228 248.603 202.587 253.912 213.775 256.591C226.844 259.72 240.47 259.126 253.902 258.515C274.862 257.561 299.318 254.614 310.023 236.482C324.861 211.346 301.225 179.965 304.586 150.946C306.446 134.911 316.512 120.809 318.635 104.821C320.939 87.4429 312.736 69.072 298.282 59.2429C278.21 45.5959 250.454 48.9069 229.731 36.2739C213.335 26.2758 202.065 6.73913 182.735 1.42158C163.777 -3.78763 140.258 6.0674 126.459 18.8954Z" fill="#40AAFF"/>
<path opacity="0.11" d="M39.229 193.464C37.2011 179.479 32.3644 166.014 30.4055 152.016C28.4466 138.018 29.8101 122.624 38.7371 111.712C44.5619 104.592 52.9324 100.149 61.1173 95.9847C68.3961 92.2793 75.8907 88.5869 83.985 87.5815C91.1215 86.7147 98.3227 87.9498 105.459 88.8079C118.886 90.4201 132.56 90.6324 145.888 88.3355C163.289 85.3019 179.74 78.3678 196.749 73.6743C213.408 69.0545 229.898 66.7013 248.525 75.4079C261.4 81.4318 270.901 94.0085 273.981 107.911C278.961 130.373 267.717 155.267 277.17 176.225C279.836 182.127 283.979 187.215 287.361 192.736C291.519 199.544 294.52 206.998 296.241 214.795C296.832 217.478 297.268 220.308 296.513 222.947C294.571 229.708 286.252 231.957 279.254 232.512C255.985 234.358 232.738 229.998 209.529 227.463C171.853 223.355 133.837 224.078 96.0963 226.908C86.8601 227.602 77.6295 228.411 68.4048 229.335C60.962 230.068 46.8314 234.536 39.8158 232.408C31.9933 230.029 37.1277 224.876 38.7846 217.478C40.5579 209.625 40.3767 201.369 39.229 193.464Z" fill="#40AAFF"/>
<path d="M165.683 59.4509C165.683 59.4509 162.115 74.0211 156.782 78.0862C151.277 82.2813 145.564 74.2205 145.564 74.2205L142.384 79.9931C142.384 79.9931 148.265 89.5274 154.193 89.7484C160.122 89.9695 165.325 84.6389 165.325 84.6389L165.683 59.4509Z" fill="#40AAFF"/>
<path d="M135.209 49.4442L136.016 49.0845L152.463 53.2839L157.403 86.7407H156.786L135.209 49.4442Z" fill="#3F3D56"/>
<path opacity="0.05" d="M57.4067 229.972C57.4067 229.972 21.5302 232.386 16.3698 235.84C11.2095 239.294 51.6207 240.053 116.103 238.107C180.586 236.161 230.235 238.107 265.391 241.669C300.547 245.232 348.233 244.543 348.893 235.819C349.553 227.095 261.844 226.991 261.844 226.991L57.4067 229.972Z" fill="#000405"/>
<path d="M280.454 160.528C280.454 160.528 279.25 170.591 271.509 171.579H237.51L232.673 115.712H268.485C271.375 115.712 277.3 118.841 278.482 123.27C278.64 124.09 278.746 124.92 278.797 125.754C279.591 134.347 280.454 160.528 280.454 160.528Z" fill="#40AAFF"/>
<path d="M326.698 54.1116H293.907L284.173 44.5122L283.741 44.0789H316.403C319.294 44.0789 325.218 47.2079 326.4 51.637C326.551 52.4547 326.651 53.2812 326.698 54.1116Z" fill="url(#paint0_linear)"/>
<path d="M61.7946 120.913L58.5932 119.513C58.1765 119.331 57.835 119.01 57.6262 118.605C57.4174 118.199 57.354 117.734 57.4467 117.288C57.5394 116.841 57.7826 116.44 58.1352 116.152C58.4878 115.864 58.9284 115.707 59.3828 115.708H232.673C234.813 115.688 236.931 116.152 238.868 117.068C240.805 117.983 242.512 119.326 243.861 120.995C244.986 122.365 245.73 124.01 246.018 125.762C246.799 130.993 246.32 153.776 246.104 162.33C245.988 166.976 242.579 170.998 237.988 171.553L237.497 171.6H69.656L61.7946 120.913Z" fill="#40AAFF"/>
<path d="M61.7946 120.913L58.5932 119.513C58.1765 119.331 57.835 119.01 57.6262 118.605C57.4174 118.199 57.354 117.734 57.4467 117.288C57.5394 116.841 57.7826 116.44 58.1352 116.152C58.4878 115.864 58.9284 115.707 59.3828 115.708H232.673C234.813 115.688 236.931 116.152 238.868 117.068C240.805 117.983 242.512 119.326 243.861 120.995C244.986 122.365 245.73 124.01 246.018 125.762C246.799 130.993 246.32 153.776 246.104 162.33C245.988 166.976 242.579 170.998 237.988 171.553L237.497 171.6H69.656L61.7946 120.913Z" fill="#40AAFF"/>
<path d="M246.117 162.309C246.001 166.955 242.592 170.976 238.001 171.531L237.51 171.579H69.6689L61.7947 120.913L58.5932 119.513C58.1765 119.331 57.835 119.01 57.6262 118.605C57.4174 118.199 57.354 117.734 57.4467 117.288C57.5394 116.841 57.7826 116.44 58.1352 116.152C58.4878 115.864 58.9284 115.707 59.3828 115.708H232.673C234.813 115.688 236.931 116.152 238.868 117.068C240.805 117.983 242.512 119.326 243.861 120.995C244.986 122.365 245.73 124.01 246.018 125.762C246.799 130.971 246.333 153.754 246.117 162.309Z" fill="url(#paint1_linear)"/>
<path opacity="0.61" d="M53.1049 171.618H238.118C238.758 171.618 239.372 171.363 239.825 170.909C240.278 170.454 240.533 169.838 240.534 169.195C240.534 168.877 240.472 168.561 240.35 168.266C240.229 167.972 240.051 167.704 239.826 167.479C239.602 167.254 239.336 167.075 239.043 166.953C238.749 166.831 238.435 166.768 238.118 166.768H53.1049C52.4641 166.768 51.8495 167.024 51.3964 167.479C50.9433 167.934 50.6887 168.552 50.6887 169.195C50.6899 169.838 50.9449 170.454 51.3979 170.909C51.8509 171.363 52.4649 171.618 53.1049 171.618Z" fill="url(#paint2_linear)"/>
<path d="M53.1049 171.618H238.118C238.758 171.618 239.372 171.363 239.825 170.909C240.278 170.454 240.533 169.838 240.534 169.195C240.534 168.877 240.472 168.561 240.35 168.266C240.229 167.972 240.051 167.704 239.826 167.479C239.602 167.254 239.336 167.075 239.043 166.953C238.749 166.831 238.435 166.768 238.118 166.768H53.1049C52.4641 166.768 51.8495 167.024 51.3964 167.479C50.9433 167.934 50.6887 168.552 50.6887 169.195C50.6899 169.838 50.9449 170.454 51.3979 170.909C51.8509 171.363 52.4649 171.618 53.1049 171.618Z" fill="#40AAFF"/>
<path d="M276.083 187.519V217.833C276.083 221.788 274.519 225.581 271.736 228.378C268.953 231.175 265.177 232.748 261.24 232.75H66.0403C64.0934 232.753 62.165 232.371 60.3653 231.625C58.5655 230.879 56.9296 229.785 55.5509 228.404C54.1723 227.024 53.0779 225.384 52.3302 223.578C51.5826 221.772 51.1963 219.837 51.1935 217.881V187.519C51.19 184.763 51.952 182.062 53.394 179.718C53.7088 179.198 54.0576 178.7 54.4381 178.227C55.8268 176.475 57.5913 175.06 59.6002 174.088C61.6091 173.116 63.8105 172.613 66.0403 172.615H261.236C265.173 172.617 268.948 174.189 271.732 176.985C274.515 179.781 276.08 183.573 276.083 187.527V187.519Z" fill="#40AAFF"/>
<path d="M200.071 232.75H66.0404C63.1961 232.753 60.4108 231.935 58.0159 230.394C55.621 228.853 53.7173 226.653 52.5311 224.057H191.545C191.545 224.057 193.547 231.424 200.071 232.75Z" fill="url(#paint3_linear)"/>
<path d="M200.071 172.597C193.91 173.62 192.188 179.7 192.188 179.7H53.394L54.4382 178.209C55.8268 176.457 57.5914 175.042 59.6003 174.071C61.6092 173.099 63.8106 172.595 66.0403 172.597H200.071Z" fill="url(#paint4_linear)"/>
<path d="M276.083 187.518V217.833C276.085 220.501 275.374 223.121 274.023 225.419C272.673 227.716 270.734 229.608 268.407 230.895H207.104C205.88 230.896 204.668 230.654 203.537 230.184C202.406 229.714 201.379 229.025 200.513 228.157C199.647 227.288 198.96 226.256 198.491 225.121C198.022 223.985 197.781 222.768 197.78 221.539V184.753C197.78 183.523 198.02 182.305 198.489 181.169C198.957 180.032 199.644 179 200.51 178.13C201.376 177.26 202.404 176.57 203.535 176.1C204.667 175.629 205.88 175.388 207.104 175.388H269.883C271.803 176.769 273.367 178.589 274.445 180.699C275.524 182.809 276.085 185.147 276.083 187.518Z" fill="url(#paint5_linear)"/>
<path d="M276.083 187.519V217.833C276.083 218.392 276.053 218.951 275.992 219.506C275.966 219.749 275.932 219.987 275.893 220.226C275.733 221.264 275.458 222.282 275.073 223.259C274.982 223.506 274.883 223.745 274.771 223.983C274.288 225.062 273.68 226.08 272.959 227.017C272.769 227.259 272.571 227.502 272.359 227.736C271.233 229.017 269.896 230.095 268.407 230.921H215.91C214.584 230.924 213.273 230.641 212.065 230.091C210.857 229.542 209.781 228.739 208.908 227.736C208.705 227.507 208.515 227.267 208.338 227.017C207.679 226.103 207.195 225.074 206.91 223.983C206.845 223.749 206.793 223.506 206.75 223.259C206.643 222.695 206.59 222.122 206.591 221.547V184.754C206.591 184.098 206.66 183.444 206.798 182.803C206.841 182.56 206.901 182.32 206.975 182.084C207.295 180.986 207.816 179.957 208.511 179.05C208.701 178.8 208.904 178.56 209.119 178.331C209.988 177.396 211.04 176.651 212.208 176.143C213.377 175.634 214.637 175.373 215.91 175.375H269.883C271.039 176.207 272.069 177.203 272.942 178.331C273.123 178.565 273.3 178.803 273.468 179.05C274.119 179.994 274.654 181.012 275.064 182.084C275.159 182.322 275.25 182.565 275.323 182.803C275.656 183.787 275.879 184.804 275.988 185.837C276.018 186.075 276.04 186.318 276.053 186.561C276.065 186.803 276.083 187.219 276.083 187.519Z" fill="#40AAFF"/>
<path d="M276.083 187.519V217.833C276.083 218.392 276.053 218.951 275.992 219.506C275.966 219.749 275.932 219.987 275.893 220.226C275.733 221.264 275.458 222.282 275.073 223.259C274.982 223.506 274.883 223.745 274.771 223.983C274.288 225.062 273.68 226.08 272.959 227.017C272.769 227.259 272.571 227.502 272.359 227.736C271.233 229.017 269.896 230.095 268.407 230.921H215.91C214.584 230.924 213.273 230.641 212.065 230.091C210.857 229.542 209.781 228.739 208.908 227.736C208.705 227.507 208.515 227.267 208.338 227.017C207.679 226.103 207.195 225.074 206.91 223.983C206.845 223.749 206.793 223.506 206.75 223.259C206.643 222.695 206.59 222.122 206.591 221.547V184.754C206.591 184.098 206.66 183.444 206.798 182.803C206.841 182.56 206.901 182.32 206.975 182.084C207.295 180.986 207.816 179.957 208.511 179.05C208.701 178.8 208.904 178.56 209.119 178.331C209.988 177.396 211.04 176.651 212.208 176.143C213.377 175.634 214.637 175.373 215.91 175.375H269.883C271.039 176.207 272.069 177.203 272.942 178.331C273.123 178.565 273.3 178.803 273.468 179.05C274.119 179.994 274.654 181.012 275.064 182.084C275.159 182.322 275.25 182.565 275.323 182.803C275.656 183.787 275.879 184.804 275.988 185.837C276.018 186.075 276.04 186.318 276.053 186.561C276.065 186.803 276.083 187.219 276.083 187.519Z" fill="url(#paint6_linear)"/>
<path d="M273.468 179.063H208.511C208.701 178.813 208.904 178.573 209.119 178.344H272.937C273.119 178.578 273.3 178.816 273.468 179.063Z" fill="white"/>
<path d="M275.323 182.803H206.798C206.841 182.56 206.9 182.32 206.975 182.084H275.064C275.159 182.322 275.25 182.565 275.323 182.803Z" fill="white"/>
<path d="M276.053 186.548H206.586V185.824H275.988C276.018 186.062 276.04 186.305 276.053 186.548Z" fill="white"/>
<path d="M276.087 189.568H206.591V190.288H276.087V189.568Z" fill="white"/>
<path d="M276.087 193.308H206.591V194.028H276.087V193.308Z" fill="white"/>
<path d="M276.087 197.053H206.591V197.772H276.087V197.053Z" fill="white"/>
<path d="M276.087 200.797H206.591V201.512H276.087V200.797Z" fill="white"/>
<path d="M276.087 204.537H206.591V205.252H276.087V204.537Z" fill="white"/>
<path d="M276.087 208.282H206.591V208.997H276.087V208.282Z" fill="white"/>
<path d="M276.087 212.022H206.591V212.737H276.087V212.022Z" fill="white"/>
<path d="M276.087 215.766H206.591V216.486H276.087V215.766Z" fill="white"/>
<path d="M275.992 219.506C275.966 219.749 275.932 219.987 275.893 220.226H206.591V219.506H275.992Z" fill="white"/>
<path d="M275.095 223.246C275.004 223.493 274.905 223.732 274.793 223.97H206.923C206.858 223.736 206.806 223.493 206.763 223.246H275.095Z" fill="white"/>
<path d="M272.959 226.991C272.769 227.233 272.57 227.476 272.359 227.71H208.908C208.705 227.481 208.515 227.241 208.338 226.991H272.959Z" fill="white"/>
<path d="M189.958 165.607H234.183C232.307 166.547 230.239 167.033 228.142 167.028H63.7017C60.9849 167.053 58.3268 166.234 56.0906 164.684C55.4573 164.245 54.869 163.744 54.3346 163.189C54.162 163.011 53.9937 162.825 53.8341 162.638C53.2321 161.931 52.7191 161.153 52.3067 160.32C52.2161 160.138 52.1298 159.951 52.0521 159.769C51.7319 159.026 51.5002 158.248 51.3618 157.451C51.3316 157.269 51.3014 157.087 51.2798 156.896C51.2281 156.464 51.2022 156.03 51.2021 155.596V132.341C51.1978 132.093 51.2065 131.846 51.228 131.6C51.2539 131.357 51.2582 131.231 51.2798 131.049C51.3762 130.257 51.563 129.479 51.8364 128.731C51.9054 128.544 51.9788 128.362 52.0564 128.176C52.4066 127.351 52.8589 126.573 53.4026 125.862L53.8341 125.307C54.1527 124.933 54.4942 124.58 54.8566 124.249C57.2893 122.071 60.4428 120.881 63.7017 120.912H228.142C230.727 120.909 233.256 121.662 235.421 123.079H189.958C189.265 123.079 188.576 123.163 187.904 123.331C186.524 123.659 185.258 124.354 184.236 125.342C184.054 125.516 183.883 125.701 183.723 125.896C183.145 126.575 182.705 127.362 182.428 128.211C182.368 128.392 182.317 128.578 182.277 128.765C182.162 129.255 182.104 129.757 182.105 130.26V158.46C182.106 158.897 182.151 159.333 182.239 159.761C182.274 159.947 182.32 160.13 182.377 160.311C182.621 161.155 183.029 161.943 183.576 162.629C183.727 162.821 183.886 163.005 184.055 163.18C184.796 163.951 185.687 164.559 186.674 164.965C187.714 165.4 188.831 165.618 189.958 165.607Z" fill="#40AAFF"/>
<path d="M240.646 132.51V156.038C240.651 156.171 240.642 156.305 240.62 156.437C240.595 156.567 240.62 156.701 240.586 156.831C240.56 156.949 240.544 157.07 240.538 157.191C240.538 157.308 240.508 157.377 240.491 157.468C240.487 157.515 240.478 157.561 240.465 157.607C240.444 157.732 240.418 157.862 240.387 157.988C240.357 158.114 240.349 158.153 240.323 158.235C240.297 158.317 240.284 158.395 240.258 158.478C240.232 158.56 240.211 158.651 240.185 158.738L240.094 159.002C240.084 159.077 240.061 159.149 240.025 159.215C239.999 159.284 239.956 159.401 239.917 159.492L239.801 159.774C239.782 159.826 239.759 159.877 239.732 159.925C239.704 159.998 239.673 160.069 239.637 160.138C239.611 160.198 239.576 160.259 239.546 160.32C239.516 160.38 239.455 160.506 239.404 160.593C239.352 160.679 239.257 160.874 239.175 161.026L239.041 161.243C238.92 161.442 238.795 161.633 238.662 161.819C238.593 161.919 238.523 162.01 238.454 162.101C238.316 162.287 238.17 162.465 238.023 162.643C237.876 162.82 237.695 163.015 237.518 163.193C237.165 163.556 236.789 163.896 236.392 164.211C236.385 164.223 236.375 164.233 236.362 164.237C236.232 164.341 236.103 164.437 235.969 164.536L235.538 164.835L235.106 165.113C234.968 165.199 234.83 165.277 234.675 165.36L234.179 165.624H189.958C188.831 165.629 187.714 165.407 186.674 164.97C185.689 164.564 184.798 163.959 184.055 163.193C183.886 163.018 183.727 162.834 183.576 162.643C183.029 161.961 182.621 161.177 182.377 160.337C182.32 160.158 182.273 159.976 182.239 159.791C182.151 159.363 182.106 158.928 182.105 158.491V130.399C182.104 129.899 182.162 129.4 182.277 128.913C182.317 128.726 182.368 128.543 182.428 128.362C182.705 127.517 183.145 126.735 183.723 126.061C183.883 125.866 184.054 125.681 184.236 125.506C185.262 124.526 186.527 123.835 187.904 123.504C188.576 123.34 189.266 123.257 189.958 123.257H235.421C235.62 123.387 235.818 123.521 236.008 123.664L236.228 123.829C236.528 124.053 236.816 124.294 237.091 124.549L237.328 124.774L237.501 124.947L237.734 125.19L237.967 125.45L238.014 125.506L238.049 125.55C238.187 125.714 238.325 125.888 238.454 126.061C238.523 126.148 238.588 126.239 238.653 126.325C238.658 126.339 238.667 126.352 238.679 126.36C238.797 126.528 238.909 126.697 239.015 126.867L239.201 127.17C239.313 127.361 239.421 127.561 239.52 127.756C239.568 127.86 239.619 127.955 239.667 128.055C239.714 128.154 239.762 128.263 239.801 128.362C239.839 128.462 239.883 128.544 239.917 128.64C239.952 128.735 239.99 128.822 240.021 128.913L240.116 129.186C240.246 129.561 240.351 129.945 240.431 130.334C240.445 130.384 240.455 130.434 240.461 130.486C240.47 130.578 240.487 130.67 240.513 130.759C240.513 130.85 240.56 131.067 240.582 131.218C240.603 131.37 240.625 131.582 240.633 131.769V132.063C240.633 132.18 240.646 132.358 240.646 132.51Z" fill="url(#paint7_linear)"/>
<path d="M186.674 164.948C185.699 165.187 184.694 165.403 183.654 165.607H66.4113C62.9495 165.636 59.493 165.327 56.0906 164.684C55.4573 164.245 54.869 163.744 54.3346 163.189C54.162 163.011 53.9937 162.825 53.8341 162.638C53.2321 161.931 52.7191 161.153 52.3067 160.32C52.2161 160.138 52.1298 159.951 52.0521 159.769C51.7319 159.026 51.5002 158.248 51.3618 157.451C51.3316 157.269 51.3014 157.087 51.2798 156.896C51.2281 156.465 51.2022 156.03 51.2021 155.596V132.341C51.1978 132.093 51.2065 131.846 51.228 131.6C51.2539 131.357 51.2582 131.231 51.2798 131.049C51.3762 130.258 51.563 129.48 51.8364 128.731C51.9054 128.544 51.9788 128.362 52.0564 128.176C52.4066 127.351 52.8589 126.573 53.4026 125.862L53.8341 125.307C54.1527 124.934 54.4942 124.58 54.8566 124.25C58.6558 123.427 62.5336 123.027 66.42 123.058H186.937L187.904 123.309C186.524 123.638 185.258 124.332 184.236 125.32C184.054 125.494 183.883 125.68 183.723 125.875C183.145 126.554 182.705 127.34 182.428 128.189C182.368 128.371 182.317 128.556 182.277 128.744C182.162 129.234 182.104 129.735 182.105 130.239V158.439C182.106 158.876 182.151 159.311 182.239 159.739C182.274 159.925 182.32 160.109 182.377 160.289C182.621 161.134 183.029 161.922 183.576 162.608C183.727 162.799 183.886 162.983 184.055 163.158C184.796 163.93 185.687 164.54 186.674 164.948Z" fill="#40AAFF"/>
<path d="M186.674 164.948C185.699 165.187 184.694 165.403 183.654 165.607H66.4113C62.9495 165.636 59.493 165.327 56.0906 164.684C55.4573 164.245 54.869 163.744 54.3346 163.189C54.162 163.011 53.9937 162.825 53.8341 162.638C53.2321 161.931 52.7191 161.153 52.3067 160.32C52.2161 160.138 52.1298 159.951 52.0521 159.769C51.7319 159.026 51.5002 158.248 51.3618 157.451C51.3316 157.269 51.3014 157.087 51.2798 156.896C51.2281 156.465 51.2022 156.03 51.2021 155.596V132.341C51.1978 132.093 51.2065 131.846 51.228 131.6C51.2539 131.357 51.2582 131.231 51.2798 131.049C51.3762 130.258 51.563 129.48 51.8364 128.731C51.9054 128.544 51.9788 128.362 52.0564 128.176C52.4066 127.351 52.8589 126.573 53.4026 125.862L53.8341 125.307C54.1527 124.934 54.4942 124.58 54.8566 124.25C58.6558 123.427 62.5336 123.027 66.42 123.058H186.937L187.904 123.309C186.524 123.638 185.258 124.332 184.236 125.32C184.054 125.494 183.883 125.68 183.723 125.875C183.145 126.554 182.705 127.34 182.428 128.189C182.368 128.371 182.317 128.556 182.277 128.744C182.162 129.234 182.104 129.735 182.105 130.239V158.439C182.106 158.876 182.151 159.311 182.239 159.739C182.274 159.925 182.32 160.109 182.377 160.289C182.621 161.134 183.029 161.922 183.576 162.608C183.727 162.799 183.886 162.983 184.055 163.158C184.796 163.93 185.687 164.54 186.674 164.948Z" fill="url(#paint8_linear)"/>
<path d="M237.51 167.332C237.163 167.735 236.786 168.112 236.383 168.459C236.783 168.108 237.159 167.732 237.51 167.332Z" fill="url(#paint9_linear)"/>
<path d="M238.64 126.646C238.575 126.546 238.511 126.447 238.442 126.351C238.312 126.161 238.174 125.97 238.036 125.788C238.252 126.065 238.454 126.351 238.64 126.646Z" fill="url(#paint10_linear)"/>
<path d="M240.008 129.502C240.042 129.602 240.073 129.701 240.103 129.801C240.047 129.597 239.978 129.398 239.904 129.199C239.943 129.298 239.978 129.398 240.008 129.502Z" fill="url(#paint11_linear)"/>
<path d="M240.646 132.51V156.298C240.645 156.466 240.631 156.634 240.603 156.801C240.527 157.514 240.373 158.218 240.146 158.898C240.094 159.067 240.038 159.232 239.973 159.392C238.885 162.111 236.829 164.327 234.205 165.607H182.532C178.545 165.607 175.253 162.903 174.766 159.401C174.735 159.235 174.718 159.067 174.714 158.898C174.698 158.754 174.691 158.61 174.692 158.465V130.399C174.692 126.451 178.204 123.257 182.545 123.257H235.421C238.601 125.32 240.646 128.713 240.646 132.51Z" fill="#40AAFF"/>
<path d="M238.441 125.862H183.723C183.883 125.667 184.054 125.481 184.236 125.307H237.988C238.152 125.481 238.304 125.666 238.441 125.862Z" fill="white"/>
<path d="M240.008 128.713H182.277C182.317 128.526 182.368 128.341 182.428 128.159H239.814C239.87 128.358 239.943 128.544 240.008 128.713Z" fill="white"/>
<path d="M240.625 131.6H182.105V131.045H240.577C240.577 131.227 240.612 131.413 240.625 131.6Z" fill="white"/>
<path d="M240.651 133.914H182.105V134.469H240.651V133.914Z" fill="white"/>
<path d="M240.651 136.783H182.105V137.338H240.651V136.783Z" fill="white"/>
<path d="M240.651 139.652H182.105V140.207H240.651V139.652Z" fill="white"/>
<path d="M240.651 142.525H182.105V143.076H240.651V142.525Z" fill="white"/>
<path d="M240.651 145.394H182.105V145.945H240.651V145.394Z" fill="white"/>
<path d="M240.651 148.263H182.105V148.814H240.651V148.263Z" fill="white"/>
<path d="M240.651 151.132H182.105V151.682H240.651V151.132Z" fill="white"/>
<path d="M240.651 154.001H182.105V154.556H240.651V154.001Z" fill="white"/>
<path d="M240.655 156.883V157.438H182.105V156.883H240.655Z" fill="white"/>
<path d="M239.796 159.739C239.796 159.925 239.559 160.107 239.542 160.294H182.377C182.32 160.112 182.274 159.926 182.239 159.739H239.796Z" fill="white"/>
<path d="M185.824 125.862H53.394L53.8255 125.307H184.771C185.134 125.489 185.483 125.68 185.824 125.862Z" fill="white"/>
<path d="M184.633 128.713H51.8278C51.8968 128.527 51.9701 128.345 52.0478 128.159H184.111C184.296 128.333 184.47 128.518 184.633 128.713Z" fill="white"/>
<path d="M186.1 131.6H51.2195C51.2238 131.415 51.2411 131.231 51.2713 131.049H185.962C186.021 131.229 186.067 131.413 186.1 131.6Z" fill="white"/>
<path d="M186.161 133.914H51.1892V134.464H186.161V133.914Z" fill="white"/>
<path d="M186.161 136.783H51.1892V137.333H186.161V136.783Z" fill="white"/>
<path d="M186.161 139.652H51.1892V140.207H186.161V139.652Z" fill="white"/>
<path d="M186.161 142.525H51.1892V143.076H186.161V142.525Z" fill="white"/>
<path d="M186.161 145.398H51.1892V145.945H186.161V145.398Z" fill="white"/>
<path d="M186.161 148.263H51.1892V148.809H186.161V148.263Z" fill="white"/>
<path d="M186.161 151.132H51.1892V151.682H186.161V151.132Z" fill="white"/>
<path d="M186.161 154.001H51.1892V154.556H186.161V154.001Z" fill="white"/>
<path d="M185.962 156.883C185.906 157.072 185.838 157.257 185.759 157.438H51.3446C51.3144 157.256 51.2841 157.074 51.2626 156.883H185.962Z" fill="white"/>
<path d="M184.129 159.743C183.935 159.937 183.732 160.121 183.52 160.294H52.2981C52.2075 160.112 52.1212 159.925 52.0436 159.743H184.129Z" fill="white"/>
<path opacity="0.2" d="M190.868 115.712C188.922 118.061 186.407 120.423 185.41 120.947C179.74 123.946 173.174 126.243 169.847 131.747C165.636 138.681 168.358 147.752 166.425 155.648C166.072 157.087 165.524 158.556 164.415 159.548C163.306 160.541 161.524 160.879 160.346 159.982C159.311 159.197 159.052 157.776 158.857 156.489C157.157 144.339 157.093 132.014 158.668 119.847C152.196 122.75 147.816 128.878 144.36 135.075C140.904 141.273 138.005 147.916 133.19 153.121C131.822 154.595 130.023 156.038 128.038 155.752C125.652 152.718 126.903 148.285 128.258 144.653C130.972 137.338 133.694 130.014 137.206 123.08C138.337 120.826 139.592 118.564 141.491 116.908C142.01 116.456 142.571 116.054 143.165 115.708L190.868 115.712Z" fill="#3F3D56"/>
<path d="M238.014 162.612C237.868 162.807 237.704 162.959 237.54 163.163H54.3259C54.1534 162.985 53.9851 162.799 53.8254 162.612H238.014Z" fill="white"/>
<path d="M93.9649 232.75H71.8263C64.7287 230.956 61.2899 223.246 61.2899 223.246C61.2899 223.246 60.647 185.542 61.2899 180.775C61.9328 176.008 72.6849 172.584 72.6849 172.584H93.9649C86.8672 173.607 81.7112 180.559 81.7112 180.559C81.7112 180.559 81.2797 222.228 81.7112 225.032C82.1427 227.836 93.9649 232.75 93.9649 232.75Z" fill="url(#paint12_linear)"/>
<path d="M93.9648 232.75H86.8672C79.7782 230.956 76.3394 223.246 76.3394 223.246C76.3394 223.246 75.6922 185.542 76.3394 180.775C76.9866 176.008 87.7301 172.584 87.7301 172.584H93.9648C86.8672 173.607 81.7112 180.559 81.7112 180.559C81.7112 180.559 81.2797 222.228 81.7112 225.032C82.1426 227.836 93.9648 232.75 93.9648 232.75Z" fill="#40AAFF"/>
<path d="M93.9648 232.75H86.8672C79.7782 230.956 76.3394 223.246 76.3394 223.246C76.3394 223.246 75.6922 185.542 76.3394 180.775C76.9866 176.008 87.7301 172.584 87.7301 172.584H93.9648C86.8672 173.607 81.7112 180.559 81.7112 180.559C81.7112 180.559 81.2797 222.228 81.7112 225.032C82.1426 227.836 93.9648 232.75 93.9648 232.75Z" fill="url(#paint13_linear)"/>
<path d="M124.798 142.928L122.735 146.525L127.524 148.618L129.505 145.195L124.798 142.928Z" fill="url(#paint14_linear)"/>
<path d="M156.998 152.588L156.773 156.597L161.994 156.294L162.214 152.588H156.998Z" fill="url(#paint15_linear)"/>
<path d="M123.676 145.728C123.572 145.509 123.425 145.313 123.244 145.151C123.032 145.009 122.79 144.92 122.537 144.891L114.248 143.218C113.949 143.144 113.641 143.111 113.333 143.119C112.54 143.171 111.888 143.756 111.366 144.358C111.067 144.643 110.875 145.023 110.822 145.433C110.852 145.691 110.936 145.939 111.066 146.163C111.197 146.387 111.372 146.581 111.582 146.733C112.164 147.276 112.776 147.785 113.415 148.259C114.644 149.123 115.922 149.915 117.242 150.629C118.131 151.132 119.02 151.635 119.931 152.094C121.428 152.848 122.981 153.481 124.543 154.096C124.646 154.161 124.77 154.181 124.888 154.154C125.006 154.126 125.109 154.052 125.173 153.949C126.303 152.766 127.194 151.373 127.796 149.849C127.947 149.472 128.228 148.644 127.796 148.332C127.645 148.224 127.218 148.241 127.028 148.198C126.334 148.031 125.68 147.726 125.104 147.303C124.527 146.88 124.041 146.346 123.671 145.732L123.676 145.728Z" fill="#3F3D56"/>
<path d="M157.304 154.777C157.104 154.642 156.88 154.546 156.644 154.495C156.39 154.481 156.136 154.526 155.902 154.625L147.903 157.368C147.599 157.453 147.309 157.578 147.04 157.741C146.38 158.174 146.108 159.041 145.957 159.808C145.84 160.205 145.866 160.63 146.03 161.009C146.184 161.214 146.378 161.385 146.601 161.511C146.824 161.637 147.07 161.716 147.324 161.741C148.098 161.919 148.882 162.049 149.672 162.131C151.165 162.261 152.665 162.3 154.163 162.248C155.186 162.248 156.204 162.222 157.222 162.157C158.896 162.053 160.558 161.815 162.21 161.559C162.33 161.564 162.447 161.521 162.536 161.44C162.624 161.359 162.678 161.246 162.685 161.126C163.068 159.531 163.143 157.878 162.905 156.255C162.844 155.852 162.659 155.002 162.137 154.954C161.951 154.933 161.593 155.167 161.407 155.223C161.126 155.31 160.837 155.371 160.545 155.405C159.426 155.543 158.292 155.323 157.304 154.777Z" fill="#3F3D56"/>
<path d="M189.69 100.717C189.69 100.717 188.335 113.454 176.647 115.712C168.734 117.233 159.056 116.692 153.637 116.184C152.355 116.066 151.066 116.305 149.912 116.876C148.757 117.448 147.783 118.329 147.096 119.422L130.268 146.343L125.393 143.977H125.354L123.628 143.145L137.638 110.291C138.461 108.25 139.725 106.419 141.338 104.929C142.951 103.44 144.873 102.328 146.966 101.675L163.064 96.6695L166.827 95.4993C166.827 95.4993 181.898 93.9739 189.69 100.717Z" fill="#3F3D56"/>
<path opacity="0.24" d="M163.095 96.6436L164.152 98.8928C164.152 98.8928 145.599 104.353 143.32 107.01C140.279 110.564 125.41 143.955 125.41 143.955H125.371L123.646 143.123L137.638 110.291C138.461 108.251 139.725 106.419 141.338 104.93C142.951 103.44 144.873 102.328 146.966 101.675L163.095 96.6436Z" fill="white"/>
<path d="M169.67 98.5068C169.67 98.5068 154.767 113.112 154.284 120.913C153.801 128.713 155.885 153.173 155.885 153.173H163.116C163.116 153.173 162.758 123.478 165.705 123.27C168.652 123.062 182.01 114.412 184.154 111.942C186.299 109.471 189.72 100.708 189.72 100.708L169.67 98.5068Z" fill="#3F3D56"/>
<path d="M189.69 100.717C189.69 100.717 177.764 106.841 165.338 99.6771C164.256 99.0531 163.217 98.3566 162.227 97.5926C162.227 97.5926 167.457 88.2099 163.293 74.5802C161.511 68.7512 161.472 57.6221 170.296 56.0359H170.339C179.115 54.4714 178.619 56.647 178.619 56.647L182.588 60.5214C190.221 66.7404 191.058 76.2747 189.69 100.717Z" fill="#40AAFF"/>
<path opacity="0.24" d="M170.339 56.0271C169.972 56.8296 169.402 57.5214 168.686 58.0336C168.686 58.0336 163.44 60.3696 164.488 68.0967C165.537 75.8238 167.457 90.6844 167.457 90.6844L165.338 99.677C164.256 99.0529 163.217 98.3565 162.227 97.5924C162.227 97.5924 167.457 88.2098 163.293 74.58C161.511 68.7511 161.472 57.6219 170.296 56.0358L170.339 56.0271Z" fill="white"/>
<path d="M178.23 55.5332C177.768 56.0884 177.201 56.5467 176.562 56.8818C175.923 57.2169 175.224 57.4224 174.506 57.4864C173.788 57.5503 173.065 57.4716 172.377 57.2548C171.69 57.0379 171.051 56.687 170.498 56.2223L170.309 56.0576C170.309 56.0576 163.837 62.5583 170.378 63.3427C173.829 63.7761 178.079 59.581 179.309 57.2104L178.23 55.5332Z" fill="#3F3D56"/>
<path d="M180.172 49.4441C180.146 49.5308 178.929 53.2708 178.015 55.9448C177.336 58.029 175.896 59.7774 173.985 60.8376C172.863 61.5179 171.615 61.9603 170.317 62.1377C170.096 62.158 169.873 62.1343 169.661 62.0679C169.449 62.0016 169.252 61.8939 169.081 61.751C168.91 61.6081 168.769 61.4329 168.666 61.2352C168.563 61.0376 168.499 60.8215 168.479 60.5992C168.446 60.244 168.526 59.8872 168.708 59.5808C169.01 59.0477 169.338 58.4324 169.64 57.778C170.27 56.4171 170.796 54.9047 170.71 53.7085V53.5785C170.632 52.9545 171.038 52.4041 171.719 51.923C172.682 51.2513 174.196 50.7226 175.676 50.3239C177.157 49.9462 178.658 49.6524 180.172 49.4441Z" fill="url(#paint16_linear)"/>
<path d="M170.58 57.7259C170.284 57.7864 169.981 57.8083 169.679 57.7909C170.309 56.4301 170.835 54.9176 170.749 53.7214L171.75 51.9359L172.496 50.6098L175.706 50.3368L178.951 50.0637C176.811 55.1473 173.217 57.2535 170.58 57.7259Z" fill="url(#paint17_linear)"/>
<path d="M176.608 32.343C174.35 31.8685 171.996 32.3141 170.065 33.5818C168.134 34.8496 166.783 36.8357 166.309 39.1037C166.266 39.3247 166.227 39.537 166.197 39.7754C165.533 43.2779 165.505 46.8721 166.115 50.3845C167.595 55.8234 175.547 53.8515 177.16 52.2004C178.774 50.5492 185.259 42.9391 184.197 39.9791C183.52 37.9682 181.147 33.3701 176.608 32.343Z" fill="url(#paint18_linear)"/>
<path d="M170.201 27.0385L171.426 28.1697C170.584 27.92 169.695 27.875 168.832 28.0385C167.969 28.202 167.158 28.5693 166.464 29.1101C164.821 30.0574 163.611 31.6128 163.094 33.4439L165.817 32.9542C165.817 32.9542 164.825 35.8968 169.338 37.366C173.851 38.8351 178.627 40.3476 178.627 40.3476L177.661 37.7473C177.661 37.7473 180.194 39.6629 180.405 40.859C180.397 42.6731 180.253 44.484 179.973 46.2762C179.973 46.2762 181.906 43.6326 182.2 44.404C182.493 45.1754 180.811 47.5893 180.043 48.0184C179.274 48.4474 178.912 50.2286 178.817 50.3586C178.722 50.4886 182.269 48.8678 182.618 48.0704C182.968 47.273 188.12 39.6845 186.704 37.4136L187.865 37.6346C187.313 36.9968 186.626 36.4905 185.854 36.1525C185.854 36.1525 181.035 24.2693 170.201 27.0385Z" fill="#3F3D56"/>
<path d="M168.492 91.0312C167.841 90.3768 167.198 89.5967 166.287 89.4407C165.968 90.2034 166.62 90.9878 166.896 91.7636C166.938 91.8498 166.961 91.9447 166.961 92.0409C166.961 92.1372 166.938 92.2321 166.896 92.3183C166.766 92.5263 166.464 92.5393 166.227 92.522C165.076 92.4396 163.946 92.1672 162.883 91.7159C161.899 91.2825 160.954 90.7235 159.889 90.6151C159.775 90.5925 159.657 90.6077 159.552 90.6585C159.293 90.8231 159.444 91.2219 159.63 91.4645C160.026 91.9886 160.476 92.4694 160.972 92.899C160.22 92.5644 159.418 92.3579 158.599 92.288C158.37 92.288 158.059 92.3356 158.064 92.5653C158.078 92.6598 158.124 92.7466 158.193 92.8124C158.8 93.5098 159.531 94.0861 160.35 94.5112C159.755 94.385 159.146 94.334 158.538 94.3595C158.275 94.3595 157.926 94.4982 157.964 94.7582C157.981 94.8438 158.023 94.9224 158.085 94.9836C158.815 95.8687 159.801 96.5034 160.907 96.7994L159.181 96.8384C159.072 96.8341 158.964 96.8564 158.866 96.9034C158.556 97.1028 158.827 97.5925 159.129 97.8049C160.458 98.7366 162.15 98.9013 163.776 99.0183C166.887 99.2437 170.162 99.365 172.967 97.9869C173.169 97.8829 173.398 97.7442 173.437 97.5188C173.446 97.4008 173.428 97.2823 173.385 97.1721C173.044 96.0324 172.872 93.9651 171.84 93.2717C171.34 92.938 170.723 92.7473 170.209 92.405C169.696 92.0626 169.079 91.3259 168.492 91.0312Z" fill="url(#paint19_linear)"/>
<path d="M192.223 88.6128C191.248 98.2382 173.881 99.417 173.881 99.417L172.091 93.2326L171.776 92.1449C171.776 92.1449 181.078 90.9661 182.856 88.0408C184.633 85.1155 177.316 75.3081 181.738 69.8389C186.161 64.3697 187.166 66.0512 187.166 66.0512C187.166 66.0512 193.189 78.9875 192.223 88.6128Z" fill="#40AAFF"/>
<path d="M145.573 74.2249C145.568 74.5266 145.543 74.8277 145.499 75.1263C145.352 76.4741 144.934 78.94 143.821 79.8371C142.255 81.0982 142.039 79.2607 142.073 78.5369C142.108 78.1395 142.172 77.7454 142.268 77.3582C142.63 75.7893 144.55 74.7146 145.288 74.3592L145.573 74.2249Z" fill="url(#paint20_linear)"/>
<path d="M145.499 75.126C145.353 76.4738 144.934 78.9397 143.821 79.8368C143.338 79.4858 142.716 79.0178 142.073 78.5367C141.21 77.8866 140.291 77.2019 139.64 76.7252C139.06 76.3348 138.532 75.8717 138.069 75.347C137.663 74.8145 137.327 74.2319 137.068 73.6135L135.731 70.6926C135.299 69.7348 134.868 68.4693 135.636 67.7283C135.83 67.5376 137.599 67.1909 137.716 66.9395C138.039 66.2201 135.99 64.6989 136.119 63.9059C136.183 63.6899 136.321 63.5032 136.507 63.3781C136.694 63.2531 136.919 63.1976 137.142 63.2211C137.573 63.2428 138.799 64.3739 139.183 64.6036C139.942 65.037 139.303 65.6524 140.045 66.1031C141.008 66.6 141.883 67.2531 142.634 68.036C143.471 69.0197 143.894 70.2809 144.295 71.503C144.589 72.4001 144.981 73.3708 145.283 74.3373C145.365 74.6146 145.439 74.8703 145.499 75.126Z" fill="url(#paint21_linear)"/>
<path d="M139.152 68.2181L136.274 54.5103L135.209 49.4441L151.932 53.9469L156.786 86.7407L141.245 81.9822L139.152 68.2181Z" fill="#40AAFF"/>
<path d="M142.634 68.0535L136.016 53.2839L141.245 81.9822L156.786 86.7407L155.121 75.4946L142.634 68.0535Z" fill="url(#paint22_linear)"/>
<path d="M140.106 74.1294C140.632 73.865 141.711 73.384 141.983 72.8596C142.048 72.7339 142.143 72.5692 142.061 72.4565C141.685 71.9365 140.14 72.5996 139.7 72.4565C140.002 71.9582 142.695 70.4457 141.426 70.1033C141.154 70.0296 139.467 70.8877 139.196 70.8097C139.407 70.6363 141.141 69.3969 141.439 69.0762C141.525 68.9807 141.576 68.8586 141.584 68.7301C141.592 68.6016 141.556 68.4742 141.482 68.3689C141.408 68.2636 141.301 68.1866 141.178 68.1505C141.055 68.1144 140.924 68.1215 140.805 68.1704C139.886 68.5943 138.944 68.9647 137.983 69.2799C138.169 68.9722 140.676 67.5464 140.775 67.1823C140.831 67.0447 140.84 66.8923 140.801 66.7489C140.766 66.6718 140.715 66.6029 140.652 66.5469C140.589 66.4908 140.514 66.4489 140.434 66.4239C139.735 66.1509 138.95 66.4239 138.251 66.7056L136.594 67.3643C136.063 67.5724 135.476 67.8411 135.299 68.3784C135.222 68.6504 135.209 68.9368 135.261 69.2149C135.463 70.9695 136.086 72.6486 137.077 74.1077C137.569 74.8271 139.122 76.565 140.015 76.734C140.809 76.8857 139.364 74.5411 140.106 74.1294Z" fill="url(#paint23_linear)"/>
<path opacity="0.24" d="M157.408 118.555C157.408 118.555 163.112 105.428 169.704 101.692L167.457 100.778C167.457 100.778 155.88 113.142 154.513 119.504C153.145 125.866 155.889 153.165 155.889 153.165H157.787C157.787 153.165 154.651 121.233 157.408 118.555Z" fill="white"/>
<path opacity="0.24" d="M183.339 90.1427C179.667 91.6596 173.415 92.9814 172.069 93.2587L171.81 93.3107L171.754 92.171C171.754 92.171 181.056 90.9922 182.834 88.0669C184.612 85.1416 177.294 75.3342 181.717 69.865C181.717 69.865 181.156 74.7015 182.61 78.2769C184.064 81.8522 187.464 88.4092 183.339 90.1427Z" fill="white"/>
</g>
<defs>
<linearGradient id="paint0_linear" x1="301.69" y1="42.3583" x2="328.655" y2="83.2682" gradientUnits="userSpaceOnUse">
<stop stop-color="white" stop-opacity="0"/>
<stop offset="0.99" stop-color="white"/>
</linearGradient>
<linearGradient id="paint1_linear" x1="66808.4" y1="28671.8" x2="66837.6" y2="19717.9" gradientUnits="userSpaceOnUse">
<stop stop-color="white" stop-opacity="0"/>
<stop offset="0.99" stop-color="white"/>
</linearGradient>
<linearGradient id="paint2_linear" x1="177.885" y1="91.2132" x2="141.698" y2="177.875" gradientUnits="userSpaceOnUse">
<stop offset="0.17" stop-color="#00272E"/>
<stop offset="1" stop-color="#69B9EB" stop-opacity="0"/>
</linearGradient>
<linearGradient id="paint3_linear" x1="125.859" y1="212.893" x2="127.326" y2="263.776" gradientUnits="userSpaceOnUse">
<stop stop-opacity="0"/>
<stop offset="0.91" stop-opacity="0.8"/>
<stop offset="1"/>
</linearGradient>
<linearGradient id="paint4_linear" x1="43593" y1="4116.71" x2="43591.2" y2="4591.36" gradientUnits="userSpaceOnUse">
<stop stop-color="white" stop-opacity="0"/>
<stop offset="0.99" stop-color="white"/>
</linearGradient>
<linearGradient id="paint5_linear" x1="40202.6" y1="7548.96" x2="24550.3" y2="8387.25" gradientUnits="userSpaceOnUse">
<stop stop-opacity="0"/>
<stop offset="0.91" stop-opacity="0.8"/>
<stop offset="1"/>
</linearGradient>
<linearGradient id="paint6_linear" x1="38358.4" y1="32039.4" x2="39888.9" y2="11861.7" gradientUnits="userSpaceOnUse">
<stop stop-color="white" stop-opacity="0"/>
<stop offset="0.99" stop-color="white"/>
</linearGradient>
<linearGradient id="paint7_linear" x1="241.414" y1="146.833" x2="181.139" y2="141.888" gradientUnits="userSpaceOnUse">
<stop stop-color="#68E1FD"/>
<stop offset="1" stop-color="white"/>
</linearGradient>
<linearGradient id="paint8_linear" x1="58598.3" y1="21530.8" x2="7845.99" y2="21530.8" gradientUnits="userSpaceOnUse">
<stop stop-color="white" stop-opacity="0"/>
<stop offset="0.99" stop-color="white"/>
</linearGradient>
<linearGradient id="paint9_linear" x1="236.383" y1="167.895" x2="237.51" y2="167.895" gradientUnits="userSpaceOnUse">
<stop stop-color="#68E1FD"/>
<stop offset="1" stop-color="#69B9EB"/>
</linearGradient>
<linearGradient id="paint10_linear" x1="572.184" y1="521.611" x2="573.03" y2="521.611" gradientUnits="userSpaceOnUse">
<stop stop-color="#68E1FD"/>
<stop offset="1" stop-color="#69B9EB"/>
</linearGradient>
<linearGradient id="paint11_linear" x1="350.514" y1="411.662" x2="350.606" y2="411.662" gradientUnits="userSpaceOnUse">
<stop stop-color="#68E1FD"/>
<stop offset="1" stop-color="#69B9EB"/>
</linearGradient>
<linearGradient id="paint12_linear" x1="5557.2" y1="44464.3" x2="9114.91" y2="32571.7" gradientUnits="userSpaceOnUse">
<stop stop-color="white" stop-opacity="0"/>
<stop offset="0.99" stop-color="white"/>
</linearGradient>
<linearGradient id="paint13_linear" x1="3580.92" y1="37822.6" x2="4832.57" y2="287.03" gradientUnits="userSpaceOnUse">
<stop stop-color="white" stop-opacity="0"/>
<stop offset="0.99" stop-color="white"/>
</linearGradient>
<linearGradient id="paint14_linear" x1="130.251" y1="146.114" x2="120.292" y2="145.293" gradientUnits="userSpaceOnUse">
<stop stop-color="#ECC4D7"/>
<stop offset="0.42" stop-color="#EFD4D1"/>
<stop offset="1" stop-color="#F2EAC9"/>
</linearGradient>
<linearGradient id="paint15_linear" x1="4217.44" y1="-3633.94" x2="4101.32" y2="-3590.89" gradientUnits="userSpaceOnUse">
<stop stop-color="#ECC4D7"/>
<stop offset="0.42" stop-color="#EFD4D1"/>
<stop offset="1" stop-color="#F2EAC9"/>
</linearGradient>
<linearGradient id="paint16_linear" x1="5026.66" y1="-5773.33" x2="4835.59" y2="-5775.38" gradientUnits="userSpaceOnUse">
<stop stop-color="#ECC4D7"/>
<stop offset="0.42" stop-color="#EFD4D1"/>
<stop offset="1" stop-color="#F2EAC9"/>
</linearGradient>
<linearGradient id="paint17_linear" x1="3928.25" y1="-3486.69" x2="3541.33" y2="-3291.33" gradientUnits="userSpaceOnUse">
<stop stop-color="#ECC4D7"/>
<stop offset="0.42" stop-color="#EFD4D1"/>
<stop offset="1" stop-color="#F2EAC9"/>
</linearGradient>
<linearGradient id="paint18_linear" x1="8091.49" y1="-10746.8" x2="7401.44" y2="-10674.7" gradientUnits="userSpaceOnUse">
<stop stop-color="#ECC4D7"/>
<stop offset="0.42" stop-color="#EFD4D1"/>
<stop offset="1" stop-color="#F2EAC9"/>
</linearGradient>
<linearGradient id="paint19_linear" x1="5845.06" y1="3782.31" x2="6400.24" y2="3782.31" gradientUnits="userSpaceOnUse">
<stop stop-color="#ECC4D7"/>
<stop offset="0.42" stop-color="#EFD4D1"/>
<stop offset="1" stop-color="#F2EAC9"/>
</linearGradient>
<linearGradient id="paint20_linear" x1="142.069" y1="77.2455" x2="145.573" y2="77.2455" gradientUnits="userSpaceOnUse">
<stop stop-color="#183866"/>
<stop offset="1" stop-color="#1A7FC1"/>
</linearGradient>
<linearGradient id="paint21_linear" x1="3372.62" y1="5559.06" x2="3617.84" y2="5559.06" gradientUnits="userSpaceOnUse">
<stop stop-color="#ECC4D7"/>
<stop offset="0.42" stop-color="#EFD4D1"/>
<stop offset="1" stop-color="#F2EAC9"/>
</linearGradient>
<linearGradient id="paint22_linear" x1="6929.93" y1="10422.8" x2="9038.58" y2="13588.4" gradientUnits="userSpaceOnUse">
<stop stop-color="white" stop-opacity="0"/>
<stop offset="0.99" stop-color="white"/>
</linearGradient>
<linearGradient id="paint23_linear" x1="2294.97" y1="3487.6" x2="2404.5" y2="3487.6" gradientUnits="userSpaceOnUse">
<stop stop-color="#ECC4D7"/>
<stop offset="0.42" stop-color="#EFD4D1"/>
<stop offset="1" stop-color="#F2EAC9"/>
</linearGradient>
<clipPath id="clip0">
<rect width="325" height="259" fill="white"/>
</clipPath>
</defs>
</svg>
