<svg width="330" height="458" viewBox="0 0 330 458" fill="none" xmlns="http://www.w3.org/2000/svg">
<g clip-path="url(#clip0)">
<path d="M271.496 92.728C268.757 89.753 266.013 86.8238 263.262 83.9403V190.68C268.889 202.803 280.07 227.015 289.653 248.589C309.792 235.156 324.554 221.127 328.754 204.399C336.812 171.783 304.749 128.863 271.496 92.728Z" fill="#F2F2F2"/>
<path d="M46.7172 276.597C46.8029 276.464 46.883 276.326 46.9688 276.188C46.883 276.332 46.8029 276.464 46.7172 276.597Z" fill="#F2F2F2"/>
<path d="M45.7991 278.104L46.0881 277.635L45.7991 278.104Z" fill="#F2F2F2"/>
<path d="M44.8868 279.575L45.2098 279.06L44.8868 279.575Z" fill="#F2F2F2"/>
<path d="M47.6465 275.057L47.8352 274.746L47.6465 275.057Z" fill="#F2F2F2"/>
<path d="M50.4346 196.807V31.2373C40.2343 36.947 31.2638 44.1213 24.0726 52.846C-4.82234 88.1054 -4.352 148.446 8.00161 207.197C11.5952 224.684 16.4185 241.891 22.4349 258.687C31.4281 238.097 43.2264 212.391 50.4346 196.807Z" fill="#F2F2F2"/>
<path d="M43.9856 281.005L44.3256 280.467L43.9856 281.005Z" fill="#F2F2F2"/>
<path d="M39.6962 287.481L40.0872 286.909L39.6962 287.481Z" fill="#F2F2F2"/>
<path d="M38.0697 289.741L38.489 289.169L38.0697 289.741Z" fill="#F2F2F2"/>
<path d="M38.8799 288.631L39.2822 288.059L38.8799 288.631Z" fill="#F2F2F2"/>
<path d="M37.1854 290.92L37.7181 290.222L37.1854 290.92Z" fill="#F2F2F2"/>
<path d="M42.2291 283.734L42.5975 283.162L42.2291 283.734Z" fill="#F2F2F2"/>
<path d="M43.0961 282.395L43.4587 281.823L43.0961 282.395Z" fill="#F2F2F2"/>
<path d="M41.3677 285.033L41.7473 284.461L41.3677 285.033Z" fill="#F2F2F2"/>
<path d="M40.5234 286.286L40.9088 285.714L40.5234 286.286Z" fill="#F2F2F2"/>
<path d="M305.197 432.02C302.93 425.155 294.311 389.329 294.311 383.436C294.311 377.544 306.5 297.619 306.5 290.348C306.5 284.363 274.851 215.653 263.563 191.338" stroke="#232D34" stroke-width="2.5" stroke-linecap="round" stroke-linejoin="round"/>
<path d="M194.32 368.968C205.087 381.171 230.78 445.528 230.78 457.285" stroke="#232D34" stroke-width="2.5" stroke-linecap="round" stroke-linejoin="round"/>
<path d="M11.3335 432.02C13.6002 425.155 22.2194 389.329 22.2194 383.437C22.2194 377.544 10.0302 297.619 10.0302 290.348C10.0358 284.77 37.5651 224.629 50.4344 196.807" stroke="#232D34" stroke-width="2.5" stroke-linecap="round" stroke-linejoin="round"/>
<path d="M122.567 368.584C112.027 379.741 85.7329 445.396 85.7329 457.262" stroke="#232D34" stroke-width="2.5" stroke-linecap="round" stroke-linejoin="round"/>
<path d="M50.4346 196.808L50.5146 196.636" stroke="#232D34" stroke-width="2.5" stroke-linecap="round" stroke-linejoin="round"/>
<path d="M50.429 22.2322H263.262" stroke="#232D34" stroke-width="2.5" stroke-linecap="round" stroke-linejoin="round"/>
<path d="M67.6333 0.715088V22.2323" stroke="#232D34" stroke-width="2.5" stroke-linecap="round" stroke-linejoin="round"/>
<path d="M251.481 0.715088V22.2323" stroke="#232D34" stroke-width="2.5" stroke-linecap="round" stroke-linejoin="round"/>
<path d="M219.515 50.5403H101.181V158.967H219.515V50.5403Z" fill="#232D34"/>
<path d="M81.0806 92.1332C82.8833 92.1332 84.3447 90.6578 84.3447 88.8379C84.3447 87.0179 82.8833 85.5425 81.0806 85.5425C79.2779 85.5425 77.8165 87.0179 77.8165 88.8379C77.8165 90.6578 79.2779 92.1332 81.0806 92.1332Z" fill="#232D34"/>
<path d="M112.866 9.2168H80.3892C77.876 9.2168 75.8387 11.2736 75.8387 13.8109C75.8387 16.3481 77.876 18.4049 80.3892 18.4049H112.866C115.379 18.4049 117.416 16.3481 117.416 13.8109C117.416 11.2736 115.379 9.2168 112.866 9.2168Z" stroke="#232D34" stroke-width="2.5" stroke-linecap="round" stroke-linejoin="round"/>
<path d="M138.43 298.84L120.81 307.536C119.336 308.263 118.726 310.058 119.446 311.546L119.727 312.127C120.448 313.614 122.226 314.231 123.699 313.504L141.319 304.808C142.793 304.081 143.403 302.285 142.683 300.798L142.402 300.217C141.682 298.73 139.904 298.113 138.43 298.84Z" fill="#232D34"/>
<path d="M175.669 298.836L158.049 307.532C156.575 308.259 155.965 310.055 156.685 311.542L156.966 312.123C157.687 313.61 159.465 314.227 160.938 313.5L178.558 304.804C180.032 304.077 180.642 302.282 179.922 300.794L179.641 300.213C178.921 298.726 177.142 298.109 175.669 298.836Z" fill="#232D34"/>
<path d="M205.41 271.142C212.577 271.142 218.387 265.276 218.387 258.041C218.387 250.805 212.577 244.939 205.41 244.939C198.243 244.939 192.433 250.805 192.433 258.041C192.433 265.276 198.243 271.142 205.41 271.142Z" fill="#232D34"/>
<path d="M84.4012 390.845C88.7703 371.536 83.3472 310.257 74.0083 303.414C84.8546 292.012 102.342 240.922 102.342 220.624C102.342 207.168 96.9192 188.162 92.7087 188.162C85.4552 203.369 52.6275 271.788 36.2108 292.167C34.2104 294.501 32.8958 316.27 35.4118 339.395" stroke="#232D34" stroke-width="2.5" stroke-linecap="round" stroke-linejoin="round"/>
<path d="M232.135 390.845C227.765 371.536 233.189 310.257 242.539 303.414C231.698 292.012 214.205 240.922 214.205 220.624C214.205 207.168 219.628 188.162 223.838 188.162C231.069 203.369 263.897 271.788 280.314 292.167C282.121 294.278 283.368 312.259 281.736 332.787" stroke="#232D34" stroke-width="2.5" stroke-linecap="round" stroke-linejoin="round"/>
<path d="M230.383 366.776C226.054 368.088 221.558 368.751 217.038 368.744H85.9255" stroke="#232D34" stroke-width="2.5" stroke-linecap="round" stroke-linejoin="round"/>
<path d="M50.4346 270.278V7.7292C50.4346 5.86994 51.1658 4.08673 52.4674 2.7715C53.7691 1.45626 55.5348 0.716604 57.3764 0.715088H256.309C258.152 0.715087 259.92 1.45389 261.224 2.76913C262.528 4.08436 263.261 5.86842 263.262 7.7292V265.295" stroke="#232D34" stroke-width="2.5" stroke-linecap="round" stroke-linejoin="round"/>
<path d="M103.804 225.075H102.104C100.812 239.046 94.1709 261.782 86.9344 279.558C87.1363 279.778 87.3809 279.953 87.6529 280.073C87.9249 280.193 88.2186 280.256 88.5155 280.256H103.816C104.101 280.254 104.383 280.196 104.646 280.084C104.909 279.972 105.147 279.809 105.347 279.604C105.547 279.398 105.705 279.155 105.812 278.888C105.919 278.621 105.972 278.335 105.969 278.047V227.261C105.969 226.681 105.741 226.125 105.335 225.716C104.929 225.306 104.379 225.075 103.804 225.075Z" fill="#232D34"/>
<path d="M121.32 242.759H98.8912C97.3498 249.093 95.3834 255.884 93.1677 262.572H121.32C121.894 262.572 122.445 262.341 122.851 261.932C123.257 261.522 123.485 260.966 123.485 260.386V244.939C123.484 244.36 123.255 243.806 122.849 243.397C122.443 242.989 121.893 242.759 121.32 242.759Z" fill="#232D34"/>
<path d="M252.739 246.072C253.682 244.21 254.17 242.147 254.162 240.056C254.153 237.965 253.65 235.906 252.692 234.051C251.735 232.197 250.351 230.601 248.658 229.397C246.965 228.192 245.01 227.415 242.958 227.129C246.086 233.297 249.39 239.716 252.739 246.072Z" fill="#232D34"/>
</g>
<defs>
<clipPath id="clip0">
<rect width="330" height="458" fill="white"/>
</clipPath>
</defs>
</svg>
