<svg width="372" height="515" viewBox="0 0 372 515" fill="none" xmlns="http://www.w3.org/2000/svg">
<g clip-path="url(#clip0)">
<path d="M306.05 104.269C302.963 100.923 299.869 97.6295 296.769 94.3872V214.411C303.112 228.042 315.715 255.268 326.518 279.527C349.221 264.422 365.861 248.648 370.595 229.837C379.679 193.162 343.535 144.9 306.05 104.269Z" fill="#F2F2F2"/>
<path d="M52.663 311.02C52.7597 310.871 52.8499 310.716 52.9466 310.561C52.8499 310.722 52.7597 310.871 52.663 311.02Z" fill="#F2F2F2"/>
<path d="M51.6281 312.716L51.9538 312.188L51.6281 312.716Z" fill="#F2F2F2"/>
<path d="M50.5996 314.369L50.9637 313.79L50.5996 314.369Z" fill="#F2F2F2"/>
<path d="M53.7107 309.289L53.9234 308.94L53.7107 309.289Z" fill="#F2F2F2"/>
<path d="M56.8535 221.301V35.125C45.3551 41.5453 35.2428 49.6125 27.1364 59.423C-5.4361 99.0706 -4.90589 166.921 9.02 232.983C13.0709 252.647 18.5081 271.996 25.2903 290.882C35.4281 267.729 48.7279 238.825 56.8535 221.301Z" fill="#F2F2F2"/>
<path d="M49.5837 315.977L49.967 315.373L49.5837 315.977Z" fill="#F2F2F2"/>
<path d="M44.7483 323.26L45.1891 322.616L44.7483 323.26Z" fill="#F2F2F2"/>
<path d="M42.915 325.801L43.3878 325.158L42.915 325.801Z" fill="#F2F2F2"/>
<path d="M43.8282 324.553L44.2818 323.909L43.8282 324.553Z" fill="#F2F2F2"/>
<path d="M41.9181 327.126L42.5186 326.341L41.9181 327.126Z" fill="#F2F2F2"/>
<path d="M47.6038 319.046L48.019 318.403L47.6038 319.046Z" fill="#F2F2F2"/>
<path d="M48.5811 317.541L48.9899 316.897L48.5811 317.541Z" fill="#F2F2F2"/>
<path d="M46.6326 320.507L47.0606 319.863L46.6326 320.507Z" fill="#F2F2F2"/>
<path d="M45.6809 321.915L46.1153 321.272L45.6809 321.915Z" fill="#F2F2F2"/>
<path d="M344.04 485.787C341.485 478.067 331.768 437.783 331.768 431.157C331.768 424.531 345.509 334.659 345.509 326.483C345.509 319.754 309.832 242.492 297.107 215.151" stroke="#3A4E5F" stroke-width="2.5" stroke-linecap="round" stroke-linejoin="round"/>
<path d="M219.052 414.887C231.189 428.609 260.152 500.976 260.152 514.196" stroke="#3A4E5F" stroke-width="2.5" stroke-linecap="round" stroke-linejoin="round"/>
<path d="M12.776 485.787C15.3312 478.067 25.0474 437.783 25.0474 431.157C25.0474 424.531 11.3068 334.659 11.3068 326.483C11.3132 320.211 42.3461 252.585 56.8533 221.301" stroke="#3A4E5F" stroke-width="2.5" stroke-linecap="round" stroke-linejoin="round"/>
<path d="M138.167 414.456C126.285 427.001 96.6444 500.828 96.6444 514.17" stroke="#3A4E5F" stroke-width="2.5" stroke-linecap="round" stroke-linejoin="round"/>
<path d="M56.8535 221.302L56.9437 221.108" stroke="#3A4E5F" stroke-width="2.5" stroke-linecap="round" stroke-linejoin="round"/>
<path d="M56.8472 24.9993H296.768" stroke="#3A4E5F" stroke-width="2.5" stroke-linecap="round" stroke-linejoin="round"/>
<path d="M76.2412 0.804199V24.9993" stroke="#3A4E5F" stroke-width="2.5" stroke-linecap="round" stroke-linejoin="round"/>
<path d="M283.488 0.804199V24.9993" stroke="#3A4E5F" stroke-width="2.5" stroke-linecap="round" stroke-linejoin="round"/>
<path d="M247.453 56.8304H114.058V178.752H247.453V56.8304Z" fill="#3A4E5F"/>
<path d="M91.3999 103.6C93.4321 103.6 95.0794 101.941 95.0794 99.8941C95.0794 97.8476 93.4321 96.1886 91.3999 96.1886C89.3678 96.1886 87.7205 97.8476 87.7205 99.8941C87.7205 101.941 89.3678 103.6 91.3999 103.6Z" fill="#3A4E5F"/>
<path d="M127.23 10.364H90.6205C87.7876 10.364 85.491 12.6768 85.491 15.5298C85.491 18.3828 87.7876 20.6957 90.6205 20.6957H127.23C130.063 20.6957 132.36 18.3828 132.36 15.5298C132.36 12.6768 130.063 10.364 127.23 10.364Z" stroke="#3A4E5F" stroke-width="2.5" stroke-linecap="round" stroke-linejoin="round"/>
<path d="M156.049 336.032L136.186 345.81C134.525 346.628 133.837 348.646 134.648 350.319L134.965 350.972C135.777 352.645 137.782 353.338 139.443 352.52L159.306 342.742C160.967 341.925 161.655 339.906 160.843 338.233L160.526 337.58C159.714 335.908 157.71 335.215 156.049 336.032Z" fill="#3A4E5F"/>
<path d="M198.027 336.028L178.164 345.806C176.503 346.624 175.815 348.642 176.627 350.315L176.944 350.968C177.756 352.641 179.76 353.334 181.421 352.516L201.284 342.738C202.945 341.921 203.633 339.902 202.821 338.229L202.504 337.576C201.693 335.904 199.688 335.211 198.027 336.028Z" fill="#3A4E5F"/>
<path d="M231.553 304.887C239.632 304.887 246.181 298.291 246.181 290.155C246.181 282.019 239.632 275.423 231.553 275.423C223.474 275.423 216.924 282.019 216.924 290.155C216.924 298.291 223.474 304.887 231.553 304.887Z" fill="#3A4E5F"/>
<path d="M95.1432 439.487C100.068 417.775 93.9551 348.87 83.4276 341.176C95.6543 328.355 115.368 270.906 115.368 248.082C115.368 232.951 109.254 211.58 104.508 211.58C96.3314 228.679 59.3256 305.613 40.8195 328.528C38.5645 331.153 37.0825 355.631 39.9188 381.634" stroke="#3A4E5F" stroke-width="2.5" stroke-linecap="round" stroke-linejoin="round"/>
<path d="M261.679 439.487C256.754 417.775 262.867 348.87 273.407 341.176C261.187 328.355 241.467 270.906 241.467 248.082C241.467 232.951 247.581 211.58 252.327 211.58C260.478 228.679 297.484 305.613 315.99 328.528C318.028 330.902 319.433 351.121 317.593 374.204" stroke="#3A4E5F" stroke-width="2.5" stroke-linecap="round" stroke-linejoin="round"/>
<path d="M259.705 412.423C254.825 413.898 249.756 414.644 244.661 414.636H96.8616" stroke="#3A4E5F" stroke-width="2.5" stroke-linecap="round" stroke-linejoin="round"/>
<path d="M56.8535 303.915V8.69125C56.8535 6.60059 57.6778 4.59546 59.1451 3.11654C60.6125 1.63761 62.6028 0.805904 64.6788 0.804199H288.93C291.008 0.804199 293.001 1.63495 294.47 3.11387C295.94 4.5928 296.767 6.59888 296.768 8.69125V298.312" stroke="#3A4E5F" stroke-width="2.5" stroke-linecap="round" stroke-linejoin="round"/>
<path d="M117.016 253.087H115.1C113.643 268.797 106.156 294.362 97.9988 314.35C98.2263 314.597 98.502 314.795 98.8087 314.93C99.1153 315.065 99.4463 315.135 99.781 315.135H117.029C117.35 315.133 117.668 315.068 117.965 314.942C118.261 314.816 118.529 314.632 118.755 314.402C118.981 314.171 119.159 313.897 119.279 313.597C119.399 313.297 119.46 312.976 119.456 312.652V255.545C119.456 254.893 119.199 254.268 118.741 253.807C118.284 253.346 117.663 253.087 117.016 253.087Z" fill="#3A4E5F"/>
<path d="M136.761 272.972H111.477C109.74 280.093 107.523 287.729 105.026 295.25H136.761C137.408 295.25 138.029 294.991 138.487 294.53C138.944 294.069 139.201 293.444 139.201 292.792V275.423C139.2 274.772 138.942 274.149 138.484 273.689C138.027 273.23 137.407 272.972 136.761 272.972Z" fill="#3A4E5F"/>
<path d="M284.906 276.697C285.969 274.603 286.519 272.283 286.509 269.932C286.5 267.581 285.932 265.265 284.853 263.18C283.773 261.095 282.214 259.3 280.305 257.946C278.396 256.592 276.193 255.718 273.88 255.396C277.406 262.331 281.131 269.549 284.906 276.697Z" fill="#3A4E5F"/>
</g>
<defs>
<clipPath id="clip0">
<rect width="372" height="515" fill="white"/>
</clipPath>
</defs>
</svg>
