<svg width="317" height="423" viewBox="0 0 317 423" fill="none" xmlns="http://www.w3.org/2000/svg">
<path opacity="0.18" d="M112.932 146.331C88.4582 161.052 57.5895 164.496 35.7601 182.859C28.0543 189.347 21.8352 197.451 16.8247 206.151C0.539157 234.457 -2.80306 269.786 7.90452 300.608C18.6121 331.429 43.1822 357.214 73.6026 369.561C88.1518 375.464 103.751 378.373 119.338 380.405C148.076 384.144 177.119 385.011 206.032 382.994C224.309 381.716 243.607 378.835 257.669 367.186C267.043 359.42 273.148 348.464 277.869 337.293C290.635 306.92 294.582 273.612 289.264 241.131C286.012 221.486 279.288 202.257 268.212 185.656C249.577 157.715 220.252 139.387 190.2 125.442C178.403 119.995 163.326 110.484 150.173 115.988C136.344 121.784 126.108 138.408 112.932 146.331Z" fill="#40AAFF"/>
<path opacity="0.52" d="M9.74292 381.868C7.16107 382.358 4.44871 382.926 2.49105 384.682C-1.2427 388.002 -0.476658 394.372 2.80314 398.131C6.08294 401.89 11.0764 403.641 15.8542 405.076C55.7566 416.978 98.1329 417.062 139.794 417.045C152.522 417.045 165.584 416.978 177.472 412.464C185.712 409.341 193.026 404.198 201.152 400.782C231.651 387.951 267.338 401.26 299.585 393.714C303.37 392.83 307.575 391.221 308.891 387.591C311.553 380.275 300.794 375.802 292.946 375.419C258.517 373.731 224.021 373.893 189.61 375.903C162.117 377.507 137.071 369.414 109.476 370.523C75.9947 371.855 42.6589 375.647 9.74292 381.868Z" fill="url(#paint0_linear)"/>
<path d="M166.731 375.38H157.595C154.473 375.38 151.479 374.152 149.269 371.966C147.059 369.781 145.812 366.815 145.803 363.719V99.2798C145.805 96.1788 147.048 93.2053 149.259 91.0126C151.47 88.8199 154.468 87.5874 157.595 87.5859H166.731C163.603 87.5859 160.604 88.818 158.393 91.011C156.182 93.204 154.939 96.1784 154.939 99.2798V363.719C154.947 366.815 156.193 369.782 158.403 371.968C160.614 374.154 163.609 375.381 166.731 375.38Z" fill="#40AAFF"/>
<path d="M166.731 375.38H157.595C154.473 375.38 151.479 374.152 149.269 371.966C147.059 369.781 145.812 366.815 145.803 363.719V99.2798C145.805 96.1788 147.048 93.2053 149.259 91.0126C151.47 88.8199 154.468 87.5874 157.595 87.5859H166.731C163.603 87.5859 160.604 88.818 158.393 91.011C156.182 93.204 154.939 96.1784 154.939 99.2798V363.719C154.947 366.815 156.193 369.782 158.403 371.968C160.614 374.154 163.609 375.381 166.731 375.38Z" fill="url(#paint1_linear)"/>
<path d="M80.8829 178.627C80.8829 178.627 54.9338 212.032 57.5781 227.023C60.2224 242.015 66.5947 257.288 66.5947 257.288L84.0038 183.568L80.8829 178.627Z" fill="#40AAFF"/>
<path d="M80.8829 178.627C80.8829 178.627 54.9338 212.032 57.5781 227.023C60.2224 242.015 66.5947 257.288 66.5947 257.288L84.0038 183.568L80.8829 178.627Z" fill="url(#paint2_linear)"/>
<path d="M305.209 87.5859H166.714C160.201 87.5859 154.922 92.8215 154.922 99.2798V363.686C154.922 370.144 160.201 375.38 166.714 375.38H305.209C311.721 375.38 317 370.144 317 363.686V99.2798C317 92.8215 311.721 87.5859 305.209 87.5859Z" fill="#40AAFF"/>
<path opacity="0.34" d="M237.627 120.017H167.797C167.255 120.017 166.717 119.911 166.215 119.705C165.714 119.498 165.258 119.196 164.874 118.815C164.491 118.434 164.187 117.982 163.979 117.484C163.772 116.986 163.666 116.453 163.667 115.915C163.667 114.828 164.102 113.786 164.876 113.018C165.651 112.249 166.702 111.818 167.797 111.818H237.627C238.723 111.818 239.774 112.249 240.55 113.017C241.325 113.786 241.762 114.828 241.763 115.915C241.763 117.003 241.327 118.046 240.552 118.815C239.776 119.585 238.724 120.017 237.627 120.017Z" fill="white"/>
<path opacity="0.34" d="M237.627 161.823H167.797C166.707 161.823 165.66 161.396 164.886 160.633C164.113 159.871 163.674 158.836 163.667 157.755C163.666 157.216 163.772 156.683 163.979 156.185C164.187 155.688 164.491 155.235 164.874 154.854C165.258 154.473 165.714 154.171 166.215 153.965C166.717 153.758 167.255 153.652 167.797 153.652H237.627C238.724 153.652 239.776 154.085 240.552 154.854C241.327 155.623 241.763 156.667 241.763 157.755C241.754 158.837 241.314 159.872 240.54 160.634C239.765 161.396 238.718 161.823 237.627 161.823Z" fill="white"/>
<path opacity="0.34" d="M237.627 203.63H167.797C166.702 203.63 165.651 203.198 164.876 202.43C164.102 201.661 163.667 200.619 163.667 199.533C163.666 198.994 163.772 198.461 163.979 197.963C164.187 197.466 164.491 197.013 164.874 196.632C165.258 196.251 165.714 195.949 166.215 195.743C166.717 195.537 167.255 195.43 167.797 195.43H237.627C238.724 195.43 239.776 195.863 240.552 196.632C241.327 197.401 241.763 198.445 241.763 199.533C241.762 200.62 241.325 201.662 240.55 202.43C239.774 203.198 238.723 203.63 237.627 203.63Z" fill="white"/>
<path opacity="0.34" d="M237.627 245.442H167.797C166.701 245.44 165.651 245.007 164.876 244.238C164.102 243.469 163.667 242.426 163.667 241.339C163.666 240.801 163.772 240.267 163.979 239.77C164.187 239.272 164.491 238.82 164.874 238.439C165.258 238.058 165.714 237.755 166.215 237.549C166.717 237.343 167.255 237.237 167.797 237.237H237.627C238.724 237.237 239.776 237.669 240.552 238.438C241.327 239.208 241.763 240.251 241.763 241.339C241.762 242.427 241.325 243.469 240.55 244.238C239.775 245.007 238.723 245.44 237.627 245.442Z" fill="white"/>
<path opacity="0.34" d="M237.627 287.248H167.797C166.701 287.247 165.651 286.814 164.876 286.044C164.102 285.275 163.667 284.233 163.667 283.146C163.666 282.607 163.772 282.074 163.979 281.576C164.187 281.078 164.491 280.626 164.874 280.245C165.258 279.864 165.714 279.562 166.215 279.356C166.717 279.149 167.255 279.043 167.797 279.043H237.627C238.724 279.043 239.776 279.475 240.552 280.245C241.327 281.014 241.763 282.058 241.763 283.146C241.762 284.233 241.325 285.276 240.55 286.045C239.775 286.814 238.723 287.247 237.627 287.248Z" fill="white"/>
<path opacity="0.34" d="M237.627 329.054H167.797C167.255 329.054 166.717 328.948 166.215 328.742C165.714 328.536 165.258 328.234 164.874 327.853C164.491 327.472 164.187 327.019 163.979 326.522C163.772 326.024 163.666 325.49 163.667 324.952C163.667 323.865 164.102 322.822 164.876 322.053C165.651 321.284 166.701 320.851 167.797 320.85H237.627C238.723 320.851 239.775 321.284 240.55 322.053C241.325 322.822 241.762 323.864 241.763 324.952C241.763 326.04 241.327 327.084 240.552 327.853C239.776 328.622 238.724 329.054 237.627 329.054Z" fill="white"/>
<path d="M68.7907 266.668C73.699 257.31 97.5996 277.473 100.618 287.49C103.637 297.507 84.0037 332.69 73.8125 343.551C63.6213 354.412 44.7313 364.13 32.6618 367.501C32.6618 367.501 28.406 361.874 29.2572 359.561C30.1084 357.248 55.1211 339.167 57.3852 328.244C59.6493 317.321 63.8823 276.032 68.7907 266.668Z" fill="#302F47"/>
<path d="M184.134 179.55C184.134 179.55 181.115 170.855 181.62 169.899C182.125 168.942 185.059 166.736 186.443 168.025C187.828 169.314 190.637 177.304 190.637 177.304L220.115 167.321C220.115 167.321 223.406 166.815 223.06 170.383C222.714 173.951 190.994 186.455 190.994 186.455C190.994 186.455 188.412 189.077 184.134 179.55Z" fill="#40AAFF"/>
<path d="M184.134 179.55C184.134 179.55 181.115 170.855 181.62 169.899C182.125 168.942 185.059 166.736 186.443 168.025C187.828 169.314 190.637 177.304 190.637 177.304L220.115 167.321C220.115 167.321 223.406 166.815 223.06 170.383C222.714 173.951 190.994 186.455 190.994 186.455C190.994 186.455 188.412 189.077 184.134 179.55Z" fill="url(#paint3_linear)"/>
<path d="M113.562 130.219C113.562 130.219 122.76 146.145 120.938 155.796C119.117 165.447 113.913 163.281 112.069 168.272C110.913 171.545 110.17 174.948 109.856 178.402C109.856 178.402 104.517 182.701 94.9553 171.002C95.8066 166.239 95.2915 161.335 93.4686 156.849C90.4215 149.64 92.0671 123.618 113.562 130.219Z" fill="url(#paint4_linear)"/>
<path d="M85.2124 122.003C71.1286 135.329 65.352 127.248 58.3158 130.934C51.2795 134.62 48.5729 135.937 51.1263 149.82C53.6798 163.703 41.094 160.703 38.0752 169.105C29.4445 193.118 43.7496 197.31 59.7174 196.646C75.6851 195.982 74.1814 167.079 85.9501 165.959C97.7188 164.84 100.136 166.584 104.897 151.593C107.7 142.774 105.703 138.925 109.51 135.931C114.373 132.11 116.07 123.832 110.991 120.304C105.402 116.421 94.1723 113.528 85.2124 122.003Z" fill="#3F3D56"/>
<path d="M84.2138 176.426C84.2138 176.426 83.0392 171.103 86.8977 169.274C90.7563 167.445 101.816 166.562 103.353 169.274C104.891 171.986 106.577 178.132 108.222 178.278C109.868 178.424 116.626 189.083 116.626 189.083C116.626 189.083 118.039 218.694 118.118 230.191C118.249 248.458 107.212 276.972 91.9763 274.648C76.7406 272.324 65.6244 268.126 65.8741 260.292C66.1238 252.459 78.9933 193.444 78.0741 186.798C77.0754 179.629 83.9527 176.179 84.2138 176.426Z" fill="#40AAFF"/>
<path d="M84.2138 176.426C84.2138 176.426 83.0392 171.103 86.8977 169.274C90.7563 167.445 101.816 166.562 103.353 169.274C104.891 171.986 106.577 178.132 108.222 178.278C109.868 178.424 116.626 189.083 116.626 189.083C116.626 189.083 118.039 218.694 118.118 230.191C118.249 248.458 107.212 276.972 91.9763 274.648C76.7406 272.324 65.6244 268.126 65.8741 260.292C66.1238 252.459 78.9933 193.444 78.0741 186.798C77.0754 179.629 83.9527 176.179 84.2138 176.426Z" fill="url(#paint5_linear)"/>
<path d="M97.8947 185.661C97.8947 185.661 103.762 174.181 112.081 181.159C120.399 188.137 130.608 213.939 137.712 214.086C144.816 214.232 174.028 190.889 176.576 192.999C179.124 195.11 183.55 200.377 181.166 204.873C178.783 209.37 146.121 237.732 132.055 235.076C117.988 232.42 88.0042 213.371 97.8947 185.661Z" fill="#40AAFF"/>
<path d="M97.8947 185.661C97.8947 185.661 103.762 174.181 112.081 181.159C120.399 188.137 130.608 213.939 137.712 214.086C144.816 214.232 174.028 190.889 176.576 192.999C179.124 195.11 183.55 200.377 181.166 204.873C178.783 209.37 146.121 237.732 132.055 235.076C117.988 232.42 88.0042 213.371 97.8947 185.661Z" fill="url(#paint6_linear)"/>
<path d="M177.512 193.844C177.512 193.844 183.447 182.881 183.935 180.9C184.423 178.919 185.904 181.896 185.904 181.896C185.904 181.896 191.011 177.901 191.863 176.156C192.714 174.412 200.107 171.711 203.444 172.144C206.781 172.577 201.174 174.609 201.174 174.609C201.174 174.609 198.53 175.808 197.145 182.392C195.761 188.976 194.359 194.609 188.231 197.372C182.103 200.135 181.711 200.748 181.711 200.748C181.711 200.748 180.264 194.952 177.512 193.844Z" fill="url(#paint7_linear)"/>
<path d="M68.7908 266.669C68.7908 266.669 61.4821 283.258 75.0723 298.745C88.6625 314.232 98.797 326.32 95.9314 350.287C93.0658 374.254 99.9375 386.606 99.9375 386.606H107.95C107.95 386.606 120.382 342.206 118.237 323.405C116.093 304.603 106.735 266.725 106.735 266.725C106.735 266.725 88.4242 258.059 68.7908 266.669Z" fill="#3F3D56"/>
<path d="M99.9375 386.595V396.724H122.011C122.011 396.724 108.795 394.355 108.421 391.66C108.046 388.964 107.95 386.595 107.95 386.595H99.9375Z" fill="url(#paint8_linear)"/>
<path d="M101.572 393.612C100.573 393.41 99.3303 393.162 98.7004 393.956C98.4932 394.252 98.3608 394.594 98.3145 394.952C98.1179 395.935 98.0455 396.939 98.0989 397.94C98.1386 398.688 98.3145 399.532 98.9671 399.904C99.3771 400.089 99.83 400.161 100.278 400.112L123.168 399.696C124.042 399.696 125.052 399.6 125.546 398.885C125.77 398.533 125.87 398.118 125.83 397.704C125.767 397.141 125.582 396.598 125.288 396.113C124.994 395.627 124.598 395.21 124.127 394.89C123.178 394.248 122.124 393.774 121.012 393.489C118.175 392.633 113.635 391.035 110.832 392.2C107.774 393.455 104.948 394.316 101.572 393.612Z" fill="#3F3D56"/>
<path d="M29.0358 361.08L19.9568 365.678L31.0105 384.625C31.0105 384.625 26.471 372.093 28.6159 370.427C30.7608 368.762 32.7923 367.496 32.7923 367.496L29.0358 361.08Z" fill="url(#paint9_linear)"/>
<path d="M23.4522 365.537C23.1344 364.575 22.7258 363.387 21.7158 363.241C21.3558 363.208 20.9932 363.264 20.6604 363.404C19.7019 363.732 18.7873 364.174 17.9367 364.721C17.3068 365.126 16.6599 365.7 16.6599 366.449C16.7036 366.892 16.8662 367.316 17.1309 367.675C21.0727 374.158 25.0145 380.641 28.9563 387.124C29.4103 387.861 29.9891 388.688 30.8572 388.756C31.2767 388.77 31.6894 388.648 32.0318 388.407C32.4974 388.072 32.8842 387.641 33.1653 387.144C33.4465 386.646 33.6154 386.094 33.6604 385.526C33.7452 384.39 33.632 383.247 33.3256 382.149C32.6617 379.296 31.7652 374.575 29.3535 372.763C26.6979 370.776 24.5303 368.784 23.4522 365.537Z" fill="#3F3D56"/>
<path opacity="0.34" d="M286.029 101.143H262.384C260.601 101.143 259.155 102.576 259.155 104.345V124.052C259.155 125.82 260.601 127.254 262.384 127.254H286.029C287.812 127.254 289.258 125.82 289.258 124.052V104.345C289.258 102.576 287.812 101.143 286.029 101.143Z" fill="white"/>
<path opacity="0.34" d="M286.029 146.522H262.384C260.601 146.522 259.155 147.956 259.155 149.724V169.432C259.155 171.2 260.601 172.634 262.384 172.634H286.029C287.812 172.634 289.258 171.2 289.258 169.432V149.724C289.258 147.956 287.812 146.522 286.029 146.522Z" fill="white"/>
<path opacity="0.34" d="M286.029 187.698H262.384C260.601 187.698 259.155 189.132 259.155 190.9V210.608C259.155 212.376 260.601 213.81 262.384 213.81H286.029C287.812 213.81 289.258 212.376 289.258 210.608V190.9C289.258 189.132 287.812 187.698 286.029 187.698Z" fill="white"/>
<path opacity="0.34" d="M286.029 269.167H262.384C260.601 269.167 259.155 270.601 259.155 272.369V292.076C259.155 293.845 260.601 295.278 262.384 295.278H286.029C287.812 295.278 289.258 293.845 289.258 292.076V272.369C289.258 270.601 287.812 269.167 286.029 269.167Z" fill="white"/>
<path opacity="0.34" d="M286.029 228.278H262.384C260.601 228.278 259.155 229.711 259.155 231.48V251.187C259.155 252.956 260.601 254.389 262.384 254.389H286.029C287.812 254.389 289.258 252.956 289.258 251.187V231.48C289.258 229.711 287.812 228.278 286.029 228.278Z" fill="white"/>
<path opacity="0.34" d="M286.029 311.896H262.384C260.601 311.896 259.155 313.33 259.155 315.098V334.806C259.155 336.574 260.601 338.008 262.384 338.008H286.029C287.812 338.008 289.258 336.574 289.258 334.806V315.098C289.258 313.33 287.812 311.896 286.029 311.896Z" fill="white"/>
<path d="M261.266 110.388L266.68 119.392C268.382 122.206 271.31 122.769 273.432 120.754L291.755 103.264C291.755 103.264 293.457 100.85 291.647 98.9815C289.837 97.1132 288.339 99.2628 288.339 99.2628L272.11 114.727C271.083 115.656 269.681 115.352 268.887 114.018L264.574 106.775C263.763 105.419 262.259 105.295 261.368 106.545C261.003 107.117 260.8 107.776 260.782 108.453C260.764 109.129 260.932 109.798 261.266 110.388Z" fill="#40AAFF"/>
<path d="M261.266 154.941L266.68 163.945C268.382 166.73 271.31 167.321 273.432 165.307L291.755 147.816C291.755 147.816 293.457 145.402 291.647 143.534C289.837 141.666 288.339 143.815 288.339 143.815L272.11 159.28C271.083 160.208 269.681 159.904 268.887 158.571L264.574 151.328C263.757 149.961 262.259 149.837 261.368 151.063C260.996 151.639 260.79 152.305 260.772 152.988C260.754 153.671 260.925 154.347 261.266 154.941Z" fill="#40AAFF"/>
<path d="M261.266 239.831L266.68 248.835C268.382 251.62 271.31 252.211 273.432 250.197L291.755 232.701C291.755 232.701 293.457 230.287 291.647 228.418C289.837 226.55 288.339 228.7 288.339 228.7L272.11 244.17C271.083 245.098 269.681 244.789 268.887 243.461L264.574 236.218C263.757 234.851 262.259 234.727 261.368 235.954C260.996 236.529 260.79 237.195 260.772 237.878C260.754 238.562 260.925 239.237 261.266 239.831Z" fill="#40AAFF"/>
<path d="M261.266 281.024L266.68 290.028C268.382 292.814 271.31 293.404 273.432 291.39L291.755 273.9C291.755 273.9 293.457 271.48 291.647 269.612C289.837 267.743 288.339 269.893 288.339 269.893L272.11 285.363C271.083 286.291 269.681 285.982 268.887 284.654L264.574 277.411C263.757 276.044 262.259 275.92 261.368 277.147C260.996 277.722 260.79 278.388 260.772 279.071C260.754 279.755 260.925 280.43 261.266 281.024Z" fill="#40AAFF"/>
<path d="M261.266 321.148L266.68 330.152C268.382 332.965 271.31 333.528 273.432 331.519L291.755 314.023C291.755 314.023 293.457 311.609 291.647 309.741C289.837 307.872 288.339 310.022 288.339 310.022L272.11 325.486C271.083 326.421 269.681 326.111 268.887 324.777L264.574 317.574C263.757 316.207 262.259 316.083 261.368 317.31C261.004 317.881 260.802 318.539 260.784 319.215C260.766 319.89 260.933 320.558 261.266 321.148Z" fill="#40AAFF"/>
<path d="M261.266 110.388L266.68 119.392C268.382 122.206 271.31 122.769 273.432 120.754L291.755 103.264C291.755 103.264 293.457 100.85 291.647 98.9815C289.837 97.1132 288.339 99.2628 288.339 99.2628L272.11 114.727C271.083 115.656 269.681 115.352 268.887 114.018L264.574 106.775C263.763 105.419 262.259 105.295 261.368 106.545C261.003 107.117 260.8 107.776 260.782 108.453C260.764 109.129 260.932 109.798 261.266 110.388Z" fill="url(#paint10_linear)"/>
<path d="M261.266 154.941L266.68 163.945C268.382 166.73 271.31 167.321 273.432 165.307L291.755 147.816C291.755 147.816 293.457 145.402 291.647 143.534C289.837 141.666 288.339 143.815 288.339 143.815L272.11 159.28C271.083 160.208 269.681 159.904 268.887 158.571L264.574 151.328C263.757 149.961 262.259 149.837 261.368 151.063C260.996 151.639 260.79 152.305 260.772 152.988C260.754 153.671 260.925 154.347 261.266 154.941Z" fill="url(#paint11_linear)"/>
<path d="M261.266 239.831L266.68 248.835C268.382 251.62 271.31 252.211 273.432 250.197L291.755 232.701C291.755 232.701 293.457 230.287 291.647 228.418C289.837 226.55 288.339 228.7 288.339 228.7L272.11 244.17C271.083 245.098 269.681 244.789 268.887 243.461L264.574 236.218C263.757 234.851 262.259 234.727 261.368 235.954C260.996 236.529 260.79 237.195 260.772 237.878C260.754 238.562 260.925 239.237 261.266 239.831Z" fill="url(#paint12_linear)"/>
<path d="M261.266 281.024L266.68 290.028C268.382 292.814 271.31 293.404 273.432 291.39L291.755 273.9C291.755 273.9 293.457 271.48 291.647 269.612C289.837 267.743 288.339 269.893 288.339 269.893L272.11 285.363C271.083 286.291 269.681 285.982 268.887 284.654L264.574 277.411C263.757 276.044 262.259 275.92 261.368 277.147C260.996 277.722 260.79 278.388 260.772 279.071C260.754 279.755 260.925 280.43 261.266 281.024Z" fill="url(#paint13_linear)"/>
<path d="M261.266 321.148L266.68 330.152C268.382 332.965 271.31 333.528 273.432 331.519L291.755 314.023C291.755 314.023 293.457 311.609 291.647 309.741C289.837 307.872 288.339 310.022 288.339 310.022L272.11 325.486C271.083 326.421 269.681 326.111 268.887 324.777L264.574 317.574C263.757 316.207 262.259 316.083 261.368 317.31C261.004 317.881 260.802 318.539 260.784 319.215C260.766 319.89 260.933 320.558 261.266 321.148Z" fill="url(#paint14_linear)"/>
<defs>
<linearGradient id="paint0_linear" x1="156.199" y1="336.443" x2="147.398" y2="636.864" gradientUnits="userSpaceOnUse">
<stop stop-opacity="0"/>
<stop offset="0.98"/>
</linearGradient>
<linearGradient id="paint1_linear" x1="10165.3" y1="44946" x2="-5093.58" y2="45838.3" gradientUnits="userSpaceOnUse">
<stop stop-opacity="0"/>
<stop offset="0.98"/>
</linearGradient>
<linearGradient id="paint2_linear" x1="4467.47" y1="17810.4" x2="7533.58" y2="18201.8" gradientUnits="userSpaceOnUse">
<stop stop-opacity="0"/>
<stop offset="0.98"/>
</linearGradient>
<linearGradient id="paint3_linear" x1="18208.2" y1="2731.42" x2="17374.7" y2="6071.04" gradientUnits="userSpaceOnUse">
<stop stop-opacity="0"/>
<stop offset="0.98"/>
</linearGradient>
<linearGradient id="paint4_linear" x1="92.294" y1="154.159" x2="121.177" y2="154.159" gradientUnits="userSpaceOnUse">
<stop stop-color="#ECC4D7"/>
<stop offset="0.42" stop-color="#EFD4D1"/>
<stop offset="1" stop-color="#F2EAC9"/>
</linearGradient>
<linearGradient id="paint5_linear" x1="13615.2" y1="26448.8" x2="-10020.3" y2="24766" gradientUnits="userSpaceOnUse">
<stop stop-opacity="0"/>
<stop offset="0.98"/>
</linearGradient>
<linearGradient id="paint6_linear" x1="26769.8" y1="12138" x2="26013.1" y2="20644.3" gradientUnits="userSpaceOnUse">
<stop stop-opacity="0"/>
<stop offset="0.98"/>
</linearGradient>
<linearGradient id="paint7_linear" x1="10433.9" y1="5328.37" x2="11717.7" y2="5328.37" gradientUnits="userSpaceOnUse">
<stop stop-color="#ECC4D7"/>
<stop offset="0.42" stop-color="#EFD4D1"/>
<stop offset="1" stop-color="#F2EAC9"/>
</linearGradient>
<linearGradient id="paint8_linear" x1="5470.17" y1="5903.37" x2="6328.83" y2="5903.37" gradientUnits="userSpaceOnUse">
<stop stop-color="#ECC4D7"/>
<stop offset="0.42" stop-color="#EFD4D1"/>
<stop offset="1" stop-color="#F2EAC9"/>
</linearGradient>
<linearGradient id="paint9_linear" x1="1333.15" y1="12398.1" x2="1623.49" y2="12398.1" gradientUnits="userSpaceOnUse">
<stop stop-color="#ECC4D7"/>
<stop offset="0.42" stop-color="#EFD4D1"/>
<stop offset="1" stop-color="#F2EAC9"/>
</linearGradient>
<linearGradient id="paint10_linear" x1="18039.3" y1="-1851.07" x2="16866.9" y2="27739.4" gradientUnits="userSpaceOnUse">
<stop stop-opacity="0"/>
<stop offset="0.98"/>
</linearGradient>
<linearGradient id="paint11_linear" x1="18177.5" y1="-1800.64" x2="17006.3" y2="27779.8" gradientUnits="userSpaceOnUse">
<stop stop-opacity="0"/>
<stop offset="0.98"/>
</linearGradient>
<linearGradient id="paint12_linear" x1="18429.9" y1="-1706.01" x2="17258.1" y2="27881.1" gradientUnits="userSpaceOnUse">
<stop stop-opacity="0"/>
<stop offset="0.98"/>
</linearGradient>
<linearGradient id="paint13_linear" x1="18552.3" y1="-1660.06" x2="17380.5" y2="27927.3" gradientUnits="userSpaceOnUse">
<stop stop-opacity="0"/>
<stop offset="0.98"/>
</linearGradient>
<linearGradient id="paint14_linear" x1="18665" y1="-1615.49" x2="17492.2" y2="27976.5" gradientUnits="userSpaceOnUse">
<stop stop-opacity="0"/>
<stop offset="0.98"/>
</linearGradient>
</defs>
</svg>
