<svg width="20" height="20" viewBox="0 0 20 20" fill="none" xmlns="http://www.w3.org/2000/svg">
<rect x="0.973877" y="0.429199" width="19" height="19" fill="#0076C6"/>
<path d="M12.0136 12.4092V13.7792H10.1536V19.4292H8.4436V13.7792H6.5836V12.4092H12.0136ZM15.6118 19.4992C15.0985 19.4992 14.6385 19.4159 14.2318 19.2492C13.8251 19.0825 13.4985 18.8359 13.2518 18.5092C13.0118 18.1825 12.8851 17.7892 12.8718 17.3292H14.6918C14.7185 17.5892 14.8085 17.7892 14.9618 17.9292C15.1151 18.0625 15.3151 18.1292 15.5618 18.1292C15.8151 18.1292 16.0151 18.0725 16.1618 17.9592C16.3085 17.8392 16.3818 17.6759 16.3818 17.4692C16.3818 17.2959 16.3218 17.1525 16.2018 17.0392C16.0885 16.9259 15.9451 16.8325 15.7718 16.7592C15.6051 16.6859 15.3651 16.6025 15.0518 16.5092C14.5985 16.3692 14.2285 16.2292 13.9418 16.0892C13.6551 15.9492 13.4085 15.7425 13.2018 15.4692C12.9951 15.1959 12.8918 14.8392 12.8918 14.3992C12.8918 13.7459 13.1285 13.2359 13.6018 12.8692C14.0751 12.4959 14.6918 12.3092 15.4518 12.3092C16.2251 12.3092 16.8485 12.4959 17.3218 12.8692C17.7951 13.2359 18.0485 13.7492 18.0818 14.4092H16.2318C16.2185 14.1825 16.1351 14.0059 15.9818 13.8792C15.8285 13.7459 15.6318 13.6792 15.3918 13.6792C15.1851 13.6792 15.0185 13.7359 14.8918 13.8492C14.7651 13.9559 14.7018 14.1125 14.7018 14.3192C14.7018 14.5459 14.8085 14.7225 15.0218 14.8492C15.2351 14.9759 15.5685 15.1125 16.0218 15.2592C16.4751 15.4125 16.8418 15.5592 17.1218 15.6992C17.4085 15.8392 17.6551 16.0425 17.8618 16.3092C18.0685 16.5759 18.1718 16.9192 18.1718 17.3392C18.1718 17.7392 18.0685 18.1025 17.8618 18.4292C17.6618 18.7559 17.3685 19.0159 16.9818 19.2092C16.5951 19.4025 16.1385 19.4992 15.6118 19.4992Z" fill="white"/>
</svg>
